<svg version="1.1" viewBox="0.0 0.0 639.8740157480315 189.73228346456693" fill="none" stroke="none" stroke-linecap="square" stroke-miterlimit="10" xmlns:xlink="http://www.w3.org/1999/xlink" xmlns="http://www.w3.org/2000/svg"><clipPath id="p.0"><path d="m0 0l639.874 0l0 189.73228l-639.874 0l0 -189.73228z" clip-rule="nonzero"/></clipPath><g clip-path="url(#p.0)"><path fill="#000000" fill-opacity="0.0" d="m0 0l639.874 0l0 189.73228l-639.874 0z" fill-rule="evenodd"/><path fill="#f3f3f3" d="m160.72455 31.583214l0 0c0 -14.829359 12.021561 -26.85093 26.850922 -26.85093l107.40051 0l0 0c7.1213074 0 13.950928 2.828929 18.98645 7.864455c5.035553 5.0355263 7.8644714 11.865166 7.8644714 18.986475l0 121.63673c0 14.829361 -12.021576 26.850922 -26.850922 26.850922l-107.40051 0c-14.829361 0 -26.850922 -12.021561 -26.850922 -26.850922z" fill-rule="evenodd"/><path stroke="#666666" stroke-width="1.0" stroke-linejoin="round" stroke-linecap="butt" stroke-dasharray="4.0,3.0" d="m160.72455 31.583214l0 0c0 -14.829359 12.021561 -26.85093 26.850922 -26.85093l107.40051 0l0 0c7.1213074 0 13.950928 2.828929 18.98645 7.864455c5.035553 5.0355263 7.8644714 11.865166 7.8644714 18.986475l0 121.63673c0 14.829361 -12.021576 26.850922 -26.850922 26.850922l-107.40051 0c-14.829361 0 -26.850922 -12.021561 -26.850922 -26.850922z" fill-rule="evenodd"/><path fill="#666666" d="m258.63004 176.43219q-0.5 0.09375 -0.953125 -0.0625q-0.4375 -0.15625 -0.71875 -0.515625q-0.265625 -0.375 -0.265625 -0.921875q-0.046875 -0.515625 0.109375 -1.21875q0.171875 -0.703125 0.5 -1.40625q0.328125 -0.703125 0.71875 -1.203125q0.359375 -0.421875 0.703125 -0.765625q0.34375 -0.34375 0.625 -0.46875q0.234375 -0.109375 0.484375 -0.140625q0.265625 -0.03125 0.40625 -0.03125q0.28125 0.0625 0.609375 0.25q0.328125 0.171875 0.328125 0.375q0 0 0.046875 0.046875q0.046875 0.03125 0.046875 0.03125q0.09375 0 0.1875 0.234375q0.109375 0.234375 0.140625 0.53125q0.03125 0.296875 -0.078125 0.484375q-0.0625 0.328125 -0.25 0.609375q-0.171875 0.265625 -0.3125 0.265625q-0.078125 0 -0.140625 0.015625q-0.046875 0 -0.046875 0.078125q0 0.09375 -0.125 0.078125q-0.125 -0.015625 -0.265625 -0.09375q-0.140625 -0.09375 -0.1875 -0.234375q0 -0.09375 0.0625 -0.265625q0.0625 -0.1875 0.125 -0.515625q0.109375 -0.484375 -0.015625 -0.640625q-0.109375 -0.15625 -0.453125 -0.015625q-0.421875 0.234375 -0.78125 0.640625q-0.34375 0.390625 -0.640625 1.046875q-0.296875 0.640625 -0.546875 1.671875q-0.109375 0.390625 -0.0625 0.671875q0.046875 0.265625 0.09375 0.28125q0.25 0.0625 0.609375 0.03125q0.375 -0.046875 0.5625 -0.15625q0.28125 -0.140625 0.578125 -0.34375q0.3125 -0.203125 0.578125 -0.40625q0.078125 -0.046875 0.1875 -0.171875q0.109375 -0.140625 0.234375 -0.203125q0.140625 -0.203125 0.28125 -0.234375q0.140625 -0.03125 0.34375 -0.03125q0.140625 0.046875 0.28125 0.140625q0.140625 0.078125 0.1875 0.171875q0.0625 0.09375 -0.046875 0.140625q-0.0625 0 -0.078125 0.046875q-0.015625 0.046875 -0.015625 0.046875q0.046875 0.0625 -0.140625 0.296875q-0.1875 0.21875 -0.46875 0.484375q-0.265625 0.25 -0.515625 0.453125q-0.25 0.1875 -0.359375 0.1875q-0.171875 0 -0.171875 0.09375q0 0.046875 -0.25 0.1875q-0.25 0.125 -0.578125 0.265625q-0.3125 0.140625 -0.5625 0.1875zm6.45343 0.125q-0.25 -0.0625 -0.4375 -0.1875q-0.1875 -0.125 -0.453125 -0.34375q-0.203125 -0.28125 -0.3125 -0.515625q-0.09375 -0.25 -0.125 -0.5625q-0.03125 -0.328125 -0.03125 -0.828125q0 -0.21875 0.078125 -0.625q0.078125 -0.40625 0.1875 -0.84375q0.125 -0.4375 0.203125 -0.78125q0.09375 -0.359375 0.109375 -0.453125q0.046875 -0.234375 -0.1875 -0.265625q-0.21875 -0.03125 -0.484375 -0.015625q-0.265625 0 -0.359375 -0.046875q-0.0625 -0.015625 -0.0625 -0.109375q0 -0.09375 0 -0.09375q0 -0.0625 -0.03125 -0.078125q-0.015625 -0.03125 -0.078125 -0.125q-0.03125 -0.0625 0.0625 -0.203125q0.09375 -0.15625 0.28125 -0.1875q0.15625 -0.046875 0.4375 -0.0625q0.28125 -0.03125 0.578125 -0.125q0.296875 -0.09375 0.46875 -0.296875q0.15625 -0.390625 0.34375 -0.84375q0.203125 -0.46875 0.390625 -0.828125q0.203125 -0.359375 0.265625 -0.453125q0.296875 -0.15625 0.484375 -0.125q0.203125 0.03125 0.390625 0.296875q0.078125 0.125 0.125 0.1875q0.0625 0.0625 0.03125 0.203125q-0.03125 0.125 -0.171875 0.40625q-0.140625 0.28125 -0.4375 0.84375q-0.09375 0.171875 -0.171875 0.296875q-0.0625 0.125 -0.0625 0.125q0.078125 0.015625 0.203125 0.015625q0.140625 0 0.359375 -0.015625q0.1875 -0.03125 0.453125 -0.046875q0.28125 -0.03125 0.46875 0q0.390625 0 0.578125 0.171875q0.1875 0.171875 0.21875 0.515625q0.03125 0.203125 -0.109375 0.265625q-0.140625 0.0625 -0.609375 0.0625q-0.15625 0 -0.46875 0.03125q-0.3125 0.015625 -0.65625 0.03125q-0.34375 0.015625 -0.578125 0.046875q-0.234375 0.015625 -0.234375 0.046875q-0.046875 0.046875 -0.171875 0.328125q-0.109375 0.265625 -0.21875 0.625q-0.109375 0.359375 -0.203125 0.640625q-0.125 0.59375 -0.1875 1.171875q-0.046875 0.578125 -0.015625 1.015625q0.03125 0.421875 0.1875 0.59375q0.15625 0.15625 0.5625 0.03125q0.40625 -0.125 0.6875 -0.34375q0.3125 -0.265625 0.515625 -0.21875q0.203125 0.03125 0.25 0.25q0.046875 0.203125 -0.171875 0.546875q-0.21875 0.3125 -0.5625 0.546875q-0.328125 0.21875 -0.6875 0.3125q-0.34375 0.109375 -0.640625 0.015625zm3.2511902 -0.140625q-0.09375 0 -0.21875 -0.109375q-0.125 -0.109375 -0.203125 -0.265625q-0.078125 -0.171875 -0.09375 -0.296875q0 -0.09375 0.25 -0.390625q0.25 -0.296875 0.640625 -0.71875q0.40625 -0.4375 0.8125 -0.84375l0.671875 -0.765625l-0.3125 -0.8125q-0.09375 -0.265625 -0.203125 -0.578125q-0.109375 -0.328125 -0.1875 -0.59375q-0.078125 -0.265625 -0.078125 -0.359375q-0.078125 -0.1875 -0.03125 -0.390625q0.046875 -0.203125 0.09375 -0.265625q-0.015625 -0.140625 0.21875 -0.15625q0.25 -0.03125 0.390625 0.09375q0.140625 0.03125 0.265625 0.234375q0.140625 0.1875 0.25 0.4375q0.109375 0.25 0.15625 0.484375q0 0.046875 0.0625 0.265625q0.0625 0.21875 0.140625 0.40625l0.109375 0.484375l0.359375 -0.375q0.109375 -0.140625 0.25 -0.265625q0.15625 -0.125 0.15625 -0.1875q0.078125 0 0.25 -0.171875q0.171875 -0.1875 0.40625 -0.4375q0.25 -0.28125 0.5 -0.4375q0.265625 -0.15625 0.34375 -0.15625q0.234375 -0.015625 0.40625 0.21875q0.171875 0.234375 0.1875 0.5q0 0.125 -0.296875 0.484375q-0.296875 0.34375 -0.921875 0.796875q-0.390625 0.28125 -0.59375 0.46875q-0.203125 0.1875 -0.625 0.515625q0.28125 0.578125 0.5 1.0q0.234375 0.40625 0.609375 0.828125q0.1875 0.171875 0.359375 0.359375q0.171875 0.1875 0.171875 0.1875q0.078125 -0.015625 0.15625 0.078125q0.078125 0.09375 0.0625 0.234375q0.046875 0.171875 -0.046875 0.265625q-0.078125 0.078125 -0.203125 0.125q-0.125 0.046875 -0.15625 0.09375q-0.125 0.015625 -0.21875 -0.046875q-0.09375 -0.0625 -0.140625 -0.015625q-0.078125 0.03125 -0.375 -0.1875q-0.296875 -0.21875 -0.578125 -0.53125q-0.125 -0.125 -0.3125 -0.390625q-0.171875 -0.265625 -0.3125 -0.4375q-0.125 -0.1875 -0.234375 -0.328125q-0.09375 -0.140625 -0.125 -0.203125q-0.078125 0.0625 -0.3125 0.3125q-0.234375 0.234375 -0.65625 0.703125q-0.6875 0.65625 -0.953125 0.90625q-0.25 0.234375 -0.390625 0.234375zm7.037262 1.171875q-0.0625 0.171875 -0.328125 0.171875q-0.265625 0.015625 -0.5625 -0.21875q-0.203125 -0.203125 -0.265625 -0.3125q-0.0625 -0.109375 0.0625 -0.390625q0.125 -0.265625 0.421875 -0.9375q0.0625 -0.421875 0.234375 -0.84375q0.171875 -0.421875 0.265625 -0.59375q0.0625 -0.25 0.28125 -0.8125q0.21875 -0.5625 0.5 -1.25q0.296875 -0.6875 0.546875 -1.296875q0.265625 -0.625 0.390625 -0.9375q0.296875 -0.6875 0.59375 -1.453125q0.3125 -0.765625 0.859375 -1.921875q0.0625 -0.171875 0.03125 -0.359375q-0.03125 -0.203125 -0.328125 -0.203125q-0.171875 -0.1875 -0.1875 -0.390625q-0.015625 -0.203125 0.171875 -0.28125l1.140625 -0.4375q0.8125 -0.1875 1.671875 -0.109375q0.859375 0.078125 1.625 0.46875q0.828125 0.5 1.1875 1.03125q0.359375 0.515625 0.375 1.0625q0.015625 0.53125 -0.171875 1.015625q-0.140625 0.359375 -0.53125 0.796875q-0.390625 0.4375 -0.90625 0.875q-0.515625 0.421875 -1.0625 0.78125q-0.546875 0.359375 -1.0 0.546875q-0.4375 0.203125 -0.921875 0.375q-0.484375 0.171875 -0.984375 0.328125q-0.28125 0.078125 -0.671875 0.078125q-0.375 0 -0.5625 -0.078125l-0.296875 0.734375q-0.171875 0.625 -0.59375 1.859375q-0.421875 1.21875 -0.984375 2.703125zm6.875 0.234375q-0.140625 0.046875 -0.375 0.03125q-0.234375 -0.015625 -0.625 -0.265625q-0.765625 -0.453125 -1.53125 -1.09375q-0.75 -0.640625 -1.703125 -1.734375q-0.375 -0.4375 -0.609375 -0.828125q-0.21875 -0.390625 -0.484375 -1.046875l-0.25 -0.9375l0.546875 -0.3125l0.65625 0.625q0.265625 0.609375 0.6875 1.171875q0.4375 0.546875 0.8125 0.984375q0.3125 0.359375 0.84375 0.875q0.546875 0.5 1.15625 0.96875q0.609375 0.46875 1.09375 0.71875q0.09375 0.078125 0.046875 0.28125q-0.03125 0.203125 -0.109375 0.375q-0.078125 0.171875 -0.15625 0.1875zm-4.4375 -6.5625q0.40625 -0.03125 0.90625 -0.203125q0.515625 -0.1875 1.0625 -0.40625q0.5 -0.25 1.046875 -0.5625q0.546875 -0.328125 1.0 -0.71875q0.46875 -0.390625 0.734375 -0.8125q0.28125 -0.4375 0.25 -0.890625q0 -0.21875 -0.171875 -0.46875q-0.15625 -0.25 -0.390625 -0.453125q-0.234375 -0.21875 -0.46875 -0.28125q-0.6875 -0.1875 -1.109375 -0.21875q-0.40625 -0.046875 -0.625 0.078125q-0.21875 0.109375 -0.3125 0.46875q0 0.046875 -0.140625 0.34375q-0.125 0.28125 -0.328125 0.71875q-0.203125 0.421875 -0.390625 0.90625q-0.5 1.015625 -0.75 1.53125q-0.25 0.515625 -0.3125 0.703125q-0.0625 0.1875 0 0.265625zm10.182098 5.640625q-0.5625 0.171875 -1.140625 0.25q-0.5625 0.09375 -1.203125 -0.015625q-0.625 -0.109375 -1.375 -0.46875q-0.015625 -0.1875 -0.140625 -0.359375q-0.125 -0.171875 -0.28125 -0.1875q-0.078125 -0.015625 -0.171875 -0.171875q-0.09375 -0.15625 -0.1875 -0.234375q-0.046875 -0.21875 -0.0625 -0.34375q0 -0.140625 0.03125 -0.375q0.03125 -0.234375 0.109375 -0.671875q0.078125 -0.21875 0.25 -0.671875q0.171875 -0.46875 0.375 -1.03125q0.21875 -0.5625 0.46875 -1.109375q0.625 -1.546875 0.96875 -2.4375q0.359375 -0.890625 0.5 -1.3125q0.140625 -0.4375 0.140625 -0.625q0 -0.1875 -0.09375 -0.390625q-0.09375 -0.328125 0.015625 -0.578125q0.109375 -0.265625 0.4375 -0.390625q0.328125 -0.171875 0.71875 -0.328125q0.390625 -0.171875 0.765625 -0.28125q0.390625 -0.109375 0.6875 -0.140625q0.234375 -0.046875 0.59375 0q0.359375 0.03125 0.703125 0.125q0.359375 0.078125 0.625 0.1875q0.265625 0.109375 0.3125 0.25q0 0 0.046875 0.015625q0.0625 0.015625 0.0625 0.015625q0 0 0.0625 0.03125q0.0625 0.015625 0.203125 0.140625q0.1875 0.140625 0.328125 0.5q0.140625 0.34375 0.078125 0.59375q0 0.078125 0.03125 0.234375q0.046875 0.15625 0.09375 0.34375q0.078125 0.46875 -0.109375 1.046875q-0.1875 0.5625 -0.78125 1.203125q-0.203125 0.25 -0.375 0.46875q-0.15625 0.21875 -0.25 0.203125q-0.171875 0.15625 -0.265625 0.34375q-0.078125 0.1875 0.078125 0.21875q0 0 0.109375 0.171875q0.125 0.171875 0.34375 0.421875q0.328125 0.5 0.421875 1.1875q0.09375 0.671875 -0.09375 1.296875q-0.125 0.4375 -0.59375 1.0q-0.453125 0.5625 -1.09375 1.0625q-0.640625 0.5 -1.34375 0.8125zm-1.875 -0.90625q0.609375 0.078125 1.25 -0.09375q0.640625 -0.1875 1.203125 -0.625q0.578125 -0.4375 0.953125 -1.03125q0.484375 -0.609375 0.46875 -1.0625q0 -0.46875 -0.28125 -0.921875q-0.265625 -0.390625 -0.5625 -0.484375q-0.296875 -0.109375 -0.625 -0.03125q-0.328125 0.0625 -0.71875 0.1875q-0.34375 0.046875 -0.765625 0.1875q-0.421875 0.140625 -0.765625 0.25q-0.34375 0.109375 -0.453125 0.109375q0 0 -0.109375 0.109375q-0.09375 0.109375 -0.203125 0.21875q-0.109375 0.109375 -0.125 0.1875q-0.078125 0.03125 -0.171875 0.234375q-0.09375 0.203125 -0.171875 0.46875q-0.0625 0.25 -0.09375 0.4375q-0.03125 0.1875 0.015625 0.1875q0.078125 0.015625 -0.015625 0.28125q-0.09375 0.25 -0.125 0.4375q-0.140625 0.40625 0.28125 0.65625q0.421875 0.25 1.015625 0.296875zm0.28125 -4.8125q0.140625 -0.015625 0.46875 -0.140625q0.328125 -0.125 0.59375 -0.203125q0.734375 -0.15625 1.34375 -0.546875q0.625 -0.40625 1.0625 -0.953125q0.453125 -0.5625 0.65625 -1.109375q0.09375 -0.203125 0.140625 -0.578125q0.0625 -0.390625 0.03125 -0.578125l0 -0.125q-0.125 -0.328125 -0.578125 -0.46875q-0.453125 -0.140625 -1.046875 -0.09375q-0.59375 0.03125 -1.1875 0.265625q-0.234375 0.125 -0.296875 0.359375q-0.046875 0.21875 -0.140625 0.625q-0.0625 0.4375 -0.21875 0.796875q-0.140625 0.359375 -0.25 0.703125q-0.015625 0.078125 -0.09375 0.140625q-0.0625 0.046875 -0.0625 0.15625q0 0 -0.109375 0.25q-0.109375 0.234375 -0.203125 0.53125q-0.109375 0.296875 -0.171875 0.53125q-0.0625 0.21875 -0.0625 0.21875q0 0 0.015625 0.15625q0.03125 0.15625 0.109375 0.0625zm6.141205 5.984375q-0.0625 0 -0.140625 -0.109375q-0.0625 -0.09375 -0.0625 -0.171875q0 -0.078125 -0.03125 -0.078125q-0.140625 0 -0.15625 -0.265625q-0.015625 -0.265625 0.125 -0.375q0.03125 0 0.03125 -0.234375q0 -0.09375 0.015625 -0.15625q0.03125 -0.078125 0.015625 -0.15625q0 -0.046875 0.046875 -0.140625q0.046875 -0.109375 0.046875 -0.1875q0 -0.0625 0.078125 -0.203125q0.078125 -0.140625 0.125 -0.265625q0.046875 -0.078125 0.109375 -0.28125q0.078125 -0.21875 0.15625 -0.390625q0 -0.03125 0.140625 -0.296875q0.140625 -0.265625 0.234375 -0.5625q0.0625 -0.265625 0.109375 -0.546875q0.0625 -0.296875 0.0625 -0.328125q0 -0.109375 0 -0.171875q0 -0.0625 0 -0.0625q0.140625 0 0.140625 -0.0625q0.0625 -0.0625 0.0625 -0.0625q0.015625 -0.015625 0.015625 -0.015625q0 0 0.015625 -0.09375q0.03125 -0.109375 0.140625 -0.171875q0.15625 -0.1875 0.1875 -0.25q0.03125 -0.078125 0.03125 -0.125q0 0 0.21875 -0.609375q0.234375 -0.625 0.734375 -1.78125q0.296875 -0.46875 0.46875 -0.9375q0.1875 -0.46875 0.265625 -0.59375q0.140625 -0.328125 0.140625 -0.53125q0 0 -0.015625 0q0 0 -0.03125 0q-0.15625 0.078125 -0.265625 -0.03125q-0.09375 -0.125 -0.3125 -0.296875q-0.109375 -0.140625 -0.140625 -0.296875q-0.03125 -0.171875 -0.03125 -0.203125q0 -0.046875 0.234375 -0.1875q0.234375 -0.15625 0.53125 -0.296875q0.3125 -0.15625 0.515625 -0.203125l0 0l0 0q0.21875 -0.109375 0.546875 -0.109375q0.34375 0 0.671875 0.0625q0.34375 0.046875 0.578125 0.09375q0.5625 0.125 1.125 0.578125q0.5625 0.4375 0.84375 1.015625q0.140625 0.25 0.203125 0.625q0.0625 0.375 0.03125 0.796875q-0.015625 0.40625 -0.109375 0.75q-0.125 0.328125 -0.40625 0.765625q-0.28125 0.4375 -0.625 0.84375q-0.328125 0.390625 -0.609375 0.65625q-0.265625 0.265625 -0.390625 0.265625q-0.125 0 -0.140625 0q-0.015625 0 -0.015625 0q0 0.015625 -0.15625 0.125q-0.15625 0.09375 -0.390625 0.234375q-0.234375 0.140625 -0.453125 0.234375q-0.21875 0.09375 -0.3125 0.109375q-0.125 0 -0.203125 0.03125q-0.0625 0.015625 -0.109375 0.109375q-0.109375 0.171875 -0.125 0.296875q0 0.109375 0.03125 0.40625q0.09375 0.203125 0.28125 0.546875q0.203125 0.34375 0.390625 0.625q0.203125 0.28125 0.234375 0.28125q0.0625 0 0.1875 0.078125q0.125 0.0625 0.25 0.21875q0.34375 0.21875 0.609375 0.359375q0.265625 0.125 0.25 0q0 -0.046875 0.140625 -0.078125q0.140625 -0.046875 0.28125 -0.0625q0.171875 0 0.265625 0.0625q0.109375 0.0625 0.125 0.0625q0 0 0 0.109375q0.015625 0.09375 0.03125 0.234375q0 0.203125 -0.109375 0.4375q-0.09375 0.234375 -0.265625 0.40625q-0.171875 0.1875 -0.40625 0.203125q-0.578125 0.0625 -1.21875 -0.3125q-0.640625 -0.390625 -1.21875 -1.109375q-0.5625 -0.71875 -0.953125 -1.640625q-0.125 -0.390625 -0.15625 -0.484375q-0.03125 -0.109375 -0.296875 -0.078125q-0.203125 0 -0.25 0.0625q-0.046875 0.046875 -0.171875 0.390625q-0.03125 0.140625 -0.046875 0.25q0 0.109375 -0.078125 0.109375q0 0 -0.09375 0.203125q-0.078125 0.1875 -0.203125 0.4375q-0.03125 0.21875 -0.109375 0.40625q-0.078125 0.1875 -0.078125 0.25q0 0.1875 -0.015625 0.265625q-0.015625 0.0625 -0.109375 0.0625q0.015625 0.078125 -0.015625 0.15625q-0.03125 0.0625 -0.03125 0.15625q0 0.015625 -0.015625 0.15625q0 0.125 -0.046875 0.296875q-0.0625 0.171875 -0.140625 0.25q-0.078125 0.078125 -0.0625 0.171875q0 0.078125 -0.140625 0.171875q-0.125 0.09375 -0.296875 0.15625q-0.171875 0.0625 -0.3125 0.03125zm2.84375 -5.71875q0.125 0.390625 0.703125 -0.03125q0.578125 -0.21875 0.8125 -0.359375q0.234375 -0.140625 0.40625 -0.265625q0.15625 -0.09375 0.265625 -0.203125q0.109375 -0.109375 0.109375 -0.109375q0.109375 -0.015625 0.375 -0.234375q0.265625 -0.21875 0.53125 -0.53125q0.265625 -0.328125 0.40625 -0.640625q0.15625 -0.28125 0.1875 -0.40625q0.046875 -0.125 0.046875 -0.265625q0 -0.140625 0 -0.390625q-0.078125 -0.3125 -0.203125 -0.5q-0.109375 -0.203125 -0.296875 -0.359375q-0.1875 -0.15625 -0.5625 -0.296875l0 0l0 0q-0.265625 -0.140625 -0.65625 -0.15625q-0.390625 -0.03125 -0.65625 0.03125q-0.25 0.0625 -0.171875 0.203125q0.078125 0.28125 0.15625 0.59375q0.078125 0.3125 -0.078125 0.5625q0 0.15625 -0.25 0.703125q-0.234375 0.53125 -0.46875 1.125q-0.296875 0.6875 -0.484375 1.09375q-0.171875 0.390625 -0.171875 0.4375z" fill-rule="nonzero"/><path fill="#980000" d="m209.89201 62.784504l17.09755 0c-1.8885345 0 -3.41951 7.917858 -3.41951 17.68504c0 9.767174 1.5309753 17.685036 3.41951 17.685036l-17.09755 0l0 0c-1.8885345 0 -3.41951 -7.917862 -3.41951 -17.685036c0 -9.767181 1.5309753 -17.68504 3.41951 -17.68504z" fill-rule="evenodd"/><path stroke="#980000" stroke-width="1.0" stroke-linejoin="round" stroke-linecap="butt" d="m209.89201 62.784504l17.09755 0c-1.8885345 0 -3.41951 7.917858 -3.41951 17.68504c0 9.767174 1.5309753 17.685036 3.41951 17.685036l-17.09755 0l0 0c-1.8885345 0 -3.41951 -7.917862 -3.41951 -17.685036c0 -9.767181 1.5309753 -17.68504 3.41951 -17.68504z" fill-rule="evenodd"/><path fill="#e6b8af" d="m220.7979 82.75722l0 0c0 -23.439487 19.001465 -42.440945 42.440933 -42.440945l0 0c11.2560425 0 22.051086 4.471443 30.010284 12.430664c7.9592285 7.959221 12.430664 18.754246 12.430664 30.01028l0 0c0 23.439484 -19.001434 42.44095 -42.44095 42.44095l0 0c-23.439468 0 -42.440933 -19.001465 -42.440933 -42.44095z" fill-rule="evenodd"/><path stroke="#980000" stroke-width="1.0" stroke-linejoin="round" stroke-linecap="butt" d="m220.7979 82.75722l0 0c0 -23.439487 19.001465 -42.440945 42.440933 -42.440945l0 0c11.2560425 0 22.051086 4.471443 30.010284 12.430664c7.9592285 7.959221 12.430664 18.754246 12.430664 30.01028l0 0c0 23.439484 -19.001434 42.44095 -42.44095 42.44095l0 0c-23.439468 0 -42.440933 -19.001465 -42.440933 -42.44095z" fill-rule="evenodd"/><path fill="#000000" d="m239.0032 87.36847q-0.140625 -0.109375 -0.234375 -0.234375q-0.078125 -0.125 -0.03125 -0.40625q0.046875 -0.421875 0.109375 -0.734375q0.078125 -0.3125 0.171875 -0.71875q0.03125 -0.171875 0.171875 -0.59375q0.140625 -0.4375 0.328125 -0.9375q0.203125 -0.5 0.40625 -0.9375q0.203125 -0.453125 0.34375 -0.671875q0.140625 -0.09375 0.34375 -0.09375q0.21875 0 0.328125 0.125q0.171875 0.125 0.078125 0.46875q-0.09375 0.328125 -0.4375 1.03125q-0.140625 0.3125 -0.234375 0.515625q-0.09375 0.203125 -0.109375 0.265625q0 0.0625 0.109375 0q0.09375 -0.15625 0.328125 -0.359375q0.234375 -0.21875 0.484375 -0.421875q0.265625 -0.203125 0.5 -0.359375q0.234375 -0.171875 0.328125 -0.21875q0.109375 -0.078125 0.265625 -0.125q0.15625 -0.046875 0.21875 -0.078125q0.34375 -0.15625 0.703125 -0.109375q0.359375 0.03125 0.453125 0.25q0.015625 0.125 0.09375 0.1875q0.078125 0.046875 0.078125 0.046875q0.0625 0 0.0625 0.046875q0.015625 0.046875 0.015625 0.046875q0 0.109375 -0.171875 0.1875q-0.171875 0.0625 -0.40625 0.078125q-0.1875 0.015625 -0.34375 0.078125q-0.140625 0.046875 -0.34375 0.140625q-0.546875 0.328125 -1.03125 0.625q-0.484375 0.28125 -0.953125 0.796875q-0.109375 0.109375 -0.21875 0.25q-0.109375 0.140625 -0.21875 0.328125q-0.078125 0.078125 -0.15625 0.328125q-0.0625 0.25 -0.125 0.484375q-0.046875 0.21875 -0.046875 0.265625q0 0 -0.046875 0.140625q-0.046875 0.140625 -0.140625 0.265625q-0.171875 0.234375 -0.3125 0.265625q-0.125 0.015625 -0.359375 -0.21875zm6.2294006 0.109375q-0.203125 0.03125 -0.421875 -0.03125q-0.203125 -0.0625 -0.390625 -0.1875q-0.171875 -0.125 -0.28125 -0.234375q-0.09375 -0.109375 -0.0625 -0.203125q0.046875 -0.09375 0.15625 -0.09375q0.0625 0 0.109375 -0.125q0.0625 -0.125 0.09375 -0.46875q0.03125 -0.203125 0.078125 -0.359375q0.046875 -0.15625 0.046875 -0.203125q0.015625 -0.046875 0.03125 -0.25q0.03125 -0.203125 0.09375 -0.34375q0.0625 -0.265625 0.171875 -0.671875q0.125 -0.421875 0.25 -0.828125q0.125 -0.40625 0.1875 -0.625q0.03125 -0.15625 0.125 -0.40625q0.109375 -0.25 0.1875 -0.40625q0.140625 -0.40625 0.390625 -0.96875q0.25 -0.578125 0.5 -1.15625q0.265625 -0.578125 0.46875 -0.984375q0.203125 -0.421875 0.265625 -0.5q0.125 -0.125 0.3125 -0.09375q0.203125 0.015625 0.359375 0.171875q0.140625 0.171875 0.15625 0.34375q0.03125 0.171875 -0.140625 0.375q-0.0625 0.109375 -0.15625 0.28125q-0.09375 0.171875 -0.15625 0.28125q-0.125 0.359375 -0.296875 0.703125q-0.171875 0.328125 -0.359375 0.75q-0.1875 0.40625 -0.40625 1.03125q-0.125 0.265625 -0.21875 0.546875q-0.09375 0.265625 -0.140625 0.34375q-0.09375 0.3125 -0.21875 0.609375q-0.109375 0.28125 -0.171875 0.640625q0 0 0.15625 -0.140625q0.15625 -0.15625 0.375 -0.375q0.578125 -0.625 1.109375 -1.0q0.53125 -0.375 0.90625 -0.375q0.21875 -0.015625 0.453125 0.109375q0.234375 0.109375 0.4375 0.28125q0.21875 0.15625 0.28125 0.34375q0.125 0.265625 0.109375 0.609375q-0.015625 0.328125 -0.15625 0.703125q-0.140625 0.359375 -0.40625 0.703125q-0.15625 0.28125 -0.390625 0.546875q-0.21875 0.25 -0.375 0.359375q-0.15625 0.125 -0.296875 0.25q-0.140625 0.125 -0.21875 0.203125q-0.1875 0.140625 -0.3125 0.203125q-0.109375 0.0625 -0.328125 0.140625q-0.296875 0.21875 -0.84375 0.328125q-0.546875 0.09375 -1.0625 0.171875zm0.359375 -0.875q0.109375 0 0.375 -0.03125q0.265625 -0.046875 0.5 -0.234375q0.6875 -0.34375 1.15625 -0.828125q0.484375 -0.5 0.703125 -0.984375q0.234375 -0.484375 0.21875 -0.828125q-0.03125 -0.328125 -0.46875 -0.15625q-0.4375 0.15625 -1.125 0.859375q-0.3125 0.28125 -0.59375 0.59375q-0.265625 0.3125 -0.515625 0.59375q-0.109375 0.171875 -0.1875 0.28125q-0.0625 0.109375 -0.078125 0.21875q-0.109375 0.515625 0.015625 0.515625zm5.450714 0.9375q-0.078125 0.09375 -0.234375 0.015625q-0.140625 -0.09375 -0.203125 -0.171875q-0.09375 -0.046875 -0.125 -0.15625q-0.015625 -0.109375 0 -0.296875q0 -0.21875 0.015625 -0.375q0.03125 -0.15625 0.078125 -0.3125q0.0625 -0.171875 0.125 -0.421875q0.109375 -0.375 0.15625 -0.578125q0.046875 -0.21875 0.09375 -0.390625q0.046875 -0.171875 0.125 -0.4375q0.125 -0.3125 0.21875 -0.609375q0.109375 -0.3125 0.25 -0.578125q0.078125 -0.265625 0.21875 -0.53125q0.140625 -0.265625 0.25 -0.421875q0.0625 -0.078125 0.171875 -0.109375q0.125 -0.046875 0.203125 0q0.15625 -0.015625 0.21875 0.09375q0.0625 0.09375 0.09375 0.3125q0.0625 0.28125 -0.015625 0.546875q-0.078125 0.25 -0.34375 0.671875q-0.0625 0.234375 -0.09375 0.375q-0.015625 0.125 0 0.265625q0.15625 -0.21875 0.34375 -0.390625q0.203125 -0.171875 0.390625 -0.328125q0.296875 -0.265625 0.515625 -0.40625q0.234375 -0.15625 0.546875 -0.265625q0.171875 -0.078125 0.328125 -0.078125q0.15625 -0.015625 0.328125 0.046875q0.171875 0.046875 0.28125 0.171875q0 -0.03125 -0.03125 0.078125q-0.015625 0.09375 -0.046875 0.265625q-0.015625 0.15625 -0.046875 0.328125q-0.28125 -0.015625 -0.515625 0.09375q-0.234375 0.109375 -0.4375 0.25q-0.1875 0.140625 -0.34375 0.25q-0.25 0.203125 -0.546875 0.4375q-0.28125 0.234375 -0.546875 0.546875q-0.203125 0.265625 -0.375 0.515625q-0.15625 0.234375 -0.28125 0.421875q-0.109375 0.171875 -0.15625 0.328125q-0.125 0.265625 -0.3125 0.53125q-0.171875 0.265625 -0.296875 0.3125zm10.510651 1.125q-0.1875 0 -0.34375 -0.09375q-0.15625 -0.09375 -0.21875 -0.234375q-0.046875 -0.078125 -0.171875 -0.28125q-0.125 -0.1875 -0.15625 -0.359375q-0.046875 -0.46875 -0.0625 -0.90625q0 -0.453125 0.046875 -1.234375q0.046875 -0.65625 0.171875 -1.21875q0.125 -0.578125 0.25 -1.015625q0.125 -0.453125 0.203125 -0.703125q0.078125 -0.25 0.03125 -0.25q-0.0625 0 -0.171875 0.1875q-0.09375 0.171875 -0.21875 0.4375q-0.125 0.25 -0.265625 0.53125q-0.125 0.265625 -0.21875 0.453125q-0.203125 0.453125 -0.484375 0.96875q-0.265625 0.5 -0.546875 0.96875q-0.28125 0.46875 -0.484375 0.828125q-0.125 0.140625 -0.3125 0.421875q-0.171875 0.265625 -0.375 0.5625q-0.203125 0.28125 -0.421875 0.46875q-0.328125 0.3125 -0.65625 0.359375q-0.3125 0.046875 -0.546875 -0.125q-0.09375 -0.046875 -0.1875 -0.15625q-0.078125 -0.09375 -0.125 -0.25q-0.046875 -0.15625 -0.015625 -0.328125q-0.015625 -0.21875 0 -0.640625q0.03125 -0.4375 0.09375 -0.953125q0.0625 -0.515625 0.125 -1.0q0.0625 -0.484375 0.125 -0.8125q0.125 -0.9375 0.34375 -1.921875q0.234375 -0.984375 0.4375 -1.984375q0.109375 -0.28125 0.203125 -0.65625q0.09375 -0.375 0.203125 -0.703125q0.015625 -0.3125 0.171875 -0.421875q0.15625 -0.109375 0.359375 -0.0625q0.203125 0.046875 0.296875 0.1875q0.15625 0.15625 0.25 0.46875q0.109375 0.296875 -0.09375 0.765625q-0.296875 0.71875 -0.578125 1.765625q-0.265625 1.03125 -0.484375 2.484375q-0.0625 0.359375 -0.140625 0.828125q-0.0625 0.46875 -0.125 0.90625q-0.046875 0.421875 -0.078125 0.71875q-0.015625 0.296875 0.015625 0.3125q0.109375 0.03125 0.296875 -0.171875q0.1875 -0.203125 0.34375 -0.546875q0.59375 -1.0 1.171875 -2.046875q0.578125 -1.0625 1.125 -2.140625q0.25 -0.421875 0.5 -0.921875q0.265625 -0.515625 0.5 -0.9375q0.25 -0.4375 0.453125 -0.8125q0.21875 -0.375 0.375 -0.625q0.15625 -0.265625 0.234375 -0.28125q0.296875 0 0.46875 0.140625q0.1875 0.125 0.296875 0.421875q0.03125 0.078125 0 0.25q-0.015625 0.171875 -0.078125 0.3125q0 0.09375 -0.125 0.421875q-0.109375 0.328125 -0.1875 0.71875q-0.15625 0.390625 -0.265625 0.78125q-0.109375 0.390625 -0.140625 0.640625q-0.125 0.625 -0.296875 1.390625q-0.171875 0.75 -0.296875 1.5q-0.125 0.734375 -0.140625 1.296875q-0.015625 0.40625 0 0.609375q0.03125 0.203125 0.078125 0.328125q0.03125 0.125 0.15625 0.125q0.140625 0 0.25 -0.140625q0.265625 -0.34375 0.4375 -0.609375q0.1875 -0.28125 0.34375 -0.5625q0.171875 -0.296875 0.375 -0.703125q0.359375 -0.671875 0.75 -1.484375q0.390625 -0.828125 0.75 -1.640625q0.359375 -0.8125 0.625 -1.421875q0.28125 -0.796875 0.453125 -1.265625q0.171875 -0.484375 0.3125 -0.71875q0.15625 -0.25 0.296875 -0.34375q0.078125 -0.046875 0.234375 -0.046875q0.171875 0 0.3125 0.109375q0.0625 0.0625 0.140625 0.1875q0.078125 0.125 0.0625 0.296875q-0.078125 0.234375 -0.265625 0.765625q-0.1875 0.515625 -0.4375 1.140625q-0.234375 0.609375 -0.46875 1.1875q-0.21875 0.5625 -0.375 0.890625q-0.171875 0.3125 -0.3125 0.53125q-0.140625 0.21875 -0.140625 0.328125q0 0.0625 -0.15625 0.375q-0.140625 0.296875 -0.375 0.71875q-0.21875 0.421875 -0.484375 0.875q-0.265625 0.453125 -0.5 0.84375q-0.234375 0.375 -0.390625 0.578125q-0.375 0.453125 -0.75 0.75q-0.359375 0.3125 -0.625 0.453125q-0.265625 0.140625 -0.375 0.140625zm4.8806763 -1.28125q-0.0625 -0.125 -0.1875 -0.203125q-0.125 -0.078125 -0.125 -0.140625q0 -0.046875 -0.03125 -0.140625q-0.015625 -0.09375 -0.078125 -0.140625q-0.078125 -0.09375 0.015625 -0.40625q0.09375 -0.328125 0.3125 -0.796875q0.21875 -0.484375 0.5 -1.0q0.125 -0.125 0.234375 -0.3125q0.125 -0.1875 0.1875 -0.25q0 -0.0625 0.03125 -0.109375q0.046875 -0.046875 0.109375 -0.046875l0.03125 -0.140625q0.015625 -0.0625 0.15625 -0.234375q0.140625 -0.1875 0.34375 -0.390625q0.21875 -0.21875 0.4375 -0.40625q0.234375 -0.203125 0.375 -0.296875q0.3125 -0.203125 0.640625 -0.21875q0.328125 -0.03125 0.5625 0.15625q0.046875 0.046875 0.15625 0.15625q0.125 0.109375 0.28125 0.25q0.171875 0.140625 0.3125 0.28125l0.546875 0.46875l-0.265625 0.734375q-0.1875 0.59375 -0.09375 1.03125q0.09375 0.4375 0.28125 0.765625q0.078125 0.15625 0.265625 0.28125q0.1875 0.125 0.390625 0.15625q0.125 0.015625 0.21875 0.09375q0.109375 0.0625 0.109375 0.234375q0 0.21875 -0.09375 0.328125q-0.078125 0.109375 -0.21875 0.140625q-0.484375 0.046875 -0.90625 -0.203125q-0.421875 -0.25 -0.78125 -0.921875q-0.0625 -0.078125 -0.15625 -0.3125q-0.09375 -0.25 -0.109375 -0.328125q-0.046875 0.078125 -0.1875 0.25q-0.140625 0.15625 -0.234375 0.25q-1.03125 1.046875 -1.78125 1.40625q-0.75 0.34375 -1.25 0.015625zm0.609375 -0.953125q0.03125 0.078125 0.3125 -0.03125q0.296875 -0.125 0.65625 -0.421875q0.5 -0.421875 0.9375 -0.859375q0.453125 -0.4375 0.765625 -0.875l0.328125 -0.53125q-0.15625 -0.328125 -0.3125 -0.4375q-0.140625 -0.125 -0.265625 -0.125q-0.1875 0 -0.53125 0.3125q-0.328125 0.3125 -0.734375 0.859375q-0.390625 0.546875 -0.765625 1.25q-0.171875 0.296875 -0.28125 0.578125q-0.109375 0.28125 -0.109375 0.28125zm6.151886 1.46875q-0.28125 0.0625 -0.46875 -0.140625q-0.1875 -0.203125 -0.234375 -0.609375q-0.046875 -0.40625 0.0625 -0.953125q0.078125 -0.171875 0.125 -0.34375q0.046875 -0.171875 0.046875 -0.265625q0.03125 -0.15625 0.109375 -0.4375q0.09375 -0.28125 0.1875 -0.59375q0.109375 -0.3125 0.203125 -0.546875q0.09375 -0.25 0.125 -0.3125q0.0625 0 0.09375 -0.09375q0.046875 -0.109375 0.046875 -0.203125q0 -0.125 0.046875 -0.265625q0.0625 -0.140625 0.125 -0.203125q0 -0.078125 0.03125 -0.171875q0.03125 -0.09375 0.03125 -0.15625q0 -0.0625 0.03125 -0.109375q0.046875 -0.0625 0.046875 -0.125q0.109375 -0.1875 0.265625 -0.609375q0.171875 -0.421875 0.375 -0.921875q0.203125 -0.515625 0.375 -1.015625q0.171875 -0.5 0.28125 -0.84375q0.109375 -0.34375 0.109375 -0.421875q0 -0.109375 0.0625 -0.1875q0.078125 -0.078125 0.1875 -0.078125q0.046875 -0.03125 0.140625 -0.046875q0.109375 -0.015625 0.171875 -0.015625q0 0 0.046875 0.0625q0.0625 0.046875 0.1875 0.171875q0.109375 0.09375 0.15625 0.234375q0.0625 0.125 0.0625 0.296875q0 0.203125 -0.0625 0.359375q-0.046875 0.140625 -0.1875 0.4375q-0.125 0.28125 -0.390625 0.859375q-0.125 0.296875 -0.265625 0.5625q-0.125 0.25 -0.125 0.3125q0 0.046875 -0.046875 0.171875q-0.046875 0.109375 -0.109375 0.296875q-0.0625 0.109375 -0.171875 0.34375q-0.09375 0.21875 -0.203125 0.484375q-0.109375 0.25 -0.1875 0.4375q-0.0625 0.1875 -0.0625 0.203125q0 0.0625 -0.015625 0.125q0 0.0625 -0.0625 0.109375q-0.0625 0 -0.078125 0.09375q0 0.078125 0 0.078125q0 0.140625 -0.234375 0.78125q-0.234375 0.796875 -0.4375 1.46875q-0.1875 0.671875 -0.1875 1.09375q0 0.34375 -0.046875 0.484375q-0.046875 0.140625 -0.15625 0.203125zm2.2084045 -0.3125q-0.15625 -0.09375 -0.265625 -0.203125q-0.109375 -0.125 -0.09375 -0.34375q0.03125 -0.21875 0.09375 -0.453125q0.0625 -0.25 0.140625 -0.484375q0.046875 -0.265625 0.109375 -0.515625q0.078125 -0.265625 0.234375 -0.5q0.1875 -0.546875 0.390625 -1.078125q0.21875 -0.546875 0.359375 -1.125q0.21875 -0.53125 0.390625 -0.9375q0.1875 -0.40625 0.453125 -1.0625q0.15625 -0.328125 0.265625 -0.75q0.109375 -0.421875 0.34375 -0.734375q0.09375 -0.140625 0.140625 -0.234375q0.0625 -0.09375 0.125 -0.1875q0.03125 -0.125 0.21875 -0.09375q0.1875 0.015625 0.265625 0.109375q0.125 0.03125 0.21875 0.265625q0.109375 0.21875 0.078125 0.34375q0 0.15625 -0.109375 0.34375q-0.0625 0.0625 -0.125 0.171875q-0.046875 0.109375 -0.171875 0.28125q-0.0625 0.203125 -0.125 0.390625q-0.046875 0.1875 -0.125 0.34375q-0.078125 0.171875 -0.171875 0.328125q-0.078125 0.15625 -0.109375 0.265625q-0.125 0.328125 -0.28125 0.65625q-0.15625 0.3125 -0.265625 0.65625q-0.125 0.34375 -0.25 0.71875q-0.125 0.375 -0.328125 0.703125q-0.109375 0.15625 -0.15625 0.40625q-0.03125 0.25 -0.09375 0.484375q-0.09375 0.25 -0.1875 0.484375q-0.078125 0.21875 -0.078125 0.265625q-0.09375 0.328125 -0.15625 0.640625q-0.0625 0.3125 -0.1875 0.546875q0 0.265625 -0.140625 0.34375q-0.140625 0.078125 -0.40625 -0.046875zm3.453125 0.203125q-0.234375 -0.03125 -0.359375 -0.09375q-0.109375 -0.0625 -0.421875 -0.296875q-0.1875 -0.171875 -0.484375 -0.53125q-0.28125 -0.375 -0.578125 -0.796875q-0.296875 -0.421875 -0.5 -0.71875l0.671875 -0.875q0.203125 0.234375 0.3125 0.4375q0.125 0.203125 0.1875 0.28125q0.34375 0.5 0.53125 0.8125q0.1875 0.296875 0.34375 0.5q0.15625 0.1875 0.328125 0.34375q0.1875 0.140625 0.46875 0.296875q0.046875 0.03125 0.09375 0.109375q0.046875 0.0625 0.03125 0.1875q-0.046875 0.15625 -0.15625 0.21875q-0.109375 0.0625 -0.46875 0.125zm-2.34375 -2.640625q-0.078125 -0.25 0.046875 -0.515625q0.125 -0.28125 0.3125 -0.390625q0.0625 -0.09375 0.125 -0.125q0.0625 -0.046875 0.078125 -0.109375q0.03125 -0.0625 0.15625 -0.15625q0.125 -0.109375 0.21875 -0.1875q0.234375 -0.15625 0.53125 -0.359375q0.296875 -0.21875 0.5625 -0.4375q0.28125 -0.21875 0.46875 -0.375q0.203125 -0.171875 0.25 -0.21875q0.046875 -0.046875 0.140625 -0.0625q0.109375 -0.015625 0.234375 0.046875q0.171875 0.03125 0.25 0.15625q0.078125 0.109375 0.078125 0.359375q0.046875 0.171875 -0.15625 0.375q-0.1875 0.1875 -0.515625 0.40625q-0.125 0.078125 -0.328125 0.234375q-0.1875 0.140625 -0.34375 0.265625q-0.09375 0.0625 -0.296875 0.203125q-0.203125 0.140625 -0.34375 0.265625q-0.109375 0.078125 -0.296875 0.265625q-0.171875 0.171875 -0.359375 0.265625q-0.46875 0.4375 -0.609375 0.453125q-0.125 0.015625 -0.203125 -0.359375zm5.534149 2.8125q-0.703125 0 -1.125 -0.484375q-0.421875 -0.484375 -0.40625 -1.296875q0.015625 -0.53125 0.203125 -1.140625q0.1875 -0.625 0.5 -1.203125q0.328125 -0.578125 0.703125 -1.0q0.375 -0.4375 0.765625 -0.609375q0.140625 -0.078125 0.3125 -0.125q0.171875 -0.046875 0.34375 -0.046875q0.171875 0 0.359375 0.046875q0.1875 0.046875 0.3125 0.109375q0.28125 0.09375 0.453125 0.296875q0.1875 0.203125 0.25 0.59375q0.03125 0.234375 0.015625 0.375q-0.015625 0.125 -0.078125 0.328125q-0.1875 0.515625 -0.5 0.921875q-0.3125 0.390625 -0.765625 0.625q-0.109375 0.078125 -0.25 0.109375q-0.140625 0.03125 -0.296875 0.03125q-0.28125 0 -0.546875 -0.09375q-0.265625 -0.109375 -0.4375 -0.296875l-0.109375 -0.125l-0.0625 0.140625q-0.125 0.34375 -0.203125 0.640625q-0.0625 0.28125 -0.0625 0.5q0 0.171875 0.03125 0.34375q0.03125 0.171875 0.109375 0.28125q0.0625 0.09375 0.171875 0.125q0.125 0.03125 0.296875 0.03125q0.078125 0 0.1875 0q0.109375 -0.015625 0.1875 -0.03125q0.25 -0.09375 0.40625 -0.203125q0.171875 -0.109375 0.34375 -0.234375l0.0625 -0.03125l-0.015625 0q0.1875 -0.109375 0.3125 -0.171875q0.125 -0.078125 0.140625 -0.078125q0.0625 -0.03125 0.109375 -0.078125q0.15625 -0.046875 0.34375 0.0625q0.1875 0.109375 0.1875 0.28125q-0.015625 0.09375 -0.140625 0.265625q-0.109375 0.15625 -0.265625 0.3125q-0.140625 0.140625 -0.265625 0.1875q-0.03125 0.015625 -0.109375 0.046875q-0.0625 0.03125 -0.09375 0.0625l0.015625 0q-0.140625 0.171875 -0.265625 0.171875l-0.125 0q-0.046875 0.109375 -0.375 0.234375q-0.328125 0.125 -0.625 0.125zm0.6875 -3.328125q0.21875 0 0.375 -0.109375q0.171875 -0.125 0.3125 -0.28125q0.3125 -0.34375 0.375 -0.71875q0.078125 -0.390625 -0.078125 -0.546875q-0.078125 -0.046875 -0.140625 -0.0625q-0.0625 -0.015625 -0.203125 0.03125q-0.125 0.015625 -0.359375 0.171875q-0.21875 0.15625 -0.4375 0.375q-0.21875 0.21875 -0.34375 0.4375l-0.1875 0.296875q0.078125 -0.046875 0.15625 -0.046875q0.09375 -0.015625 0.109375 0.015625q0.03125 0.09375 0.078125 0.203125q0.0625 0.09375 0.125 0.171875q0.078125 0.0625 0.21875 0.0625zm3.307251 2.90625q-0.078125 0.09375 -0.234375 0.015625q-0.140625 -0.09375 -0.203125 -0.171875q-0.09375 -0.046875 -0.125 -0.15625q-0.015625 -0.109375 0 -0.296875q0 -0.21875 0.015625 -0.375q0.03125 -0.15625 0.078125 -0.3125q0.0625 -0.171875 0.125 -0.421875q0.109375 -0.375 0.15625 -0.578125q0.046875 -0.21875 0.09375 -0.390625q0.046875 -0.171875 0.125 -0.4375q0.125 -0.3125 0.21875 -0.609375q0.109375 -0.3125 0.25 -0.578125q0.078125 -0.265625 0.21875 -0.53125q0.140625 -0.265625 0.25 -0.421875q0.0625 -0.078125 0.171875 -0.109375q0.125 -0.046875 0.203125 0q0.15625 -0.015625 0.21875 0.09375q0.0625 0.09375 0.09375 0.3125q0.0625 0.28125 -0.015625 0.546875q-0.078125 0.25 -0.34375 0.671875q-0.0625 0.234375 -0.09375 0.375q-0.015625 0.125 0 0.265625q0.15625 -0.21875 0.34375 -0.390625q0.203125 -0.171875 0.390625 -0.328125q0.296875 -0.265625 0.515625 -0.40625q0.234375 -0.15625 0.546875 -0.265625q0.171875 -0.078125 0.328125 -0.078125q0.15625 -0.015625 0.328125 0.046875q0.171875 0.046875 0.28125 0.171875q0 -0.03125 -0.03125 0.078125q-0.015625 0.09375 -0.046875 0.265625q-0.015625 0.15625 -0.046875 0.328125q-0.28125 -0.015625 -0.515625 0.09375q-0.234375 0.109375 -0.4375 0.25q-0.1875 0.140625 -0.34375 0.25q-0.25 0.203125 -0.546875 0.4375q-0.28125 0.234375 -0.546875 0.546875q-0.203125 0.265625 -0.375 0.515625q-0.15625 0.234375 -0.28125 0.421875q-0.109375 0.171875 -0.15625 0.328125q-0.125 0.265625 -0.3125 0.53125q-0.171875 0.265625 -0.296875 0.3125z" fill-rule="nonzero"/><path fill="#980000" d="m271.001 47.34719l-15.827896 -6.2607384l16.435043 -4.42807z" fill-rule="evenodd"/><path stroke="#980000" stroke-width="1.0" stroke-linejoin="round" stroke-linecap="butt" d="m271.001 47.34719l-15.827896 -6.2607384l16.435043 -4.42807z" fill-rule="evenodd"/><path fill="#f3f3f3" d="m4.2364526 29.562176l0 0c0 -13.713171 11.116722 -24.829891 24.829893 -24.829891l99.31659 0l0 0c6.5852966 0 12.900879 2.6159987 17.557388 7.2725067c4.6565094 4.6565084 7.2725067 10.972089 7.2725067 17.557384l0 125.67879c0 13.713181 -11.1167145 24.829895 -24.829895 24.829895l-99.31659 0c-13.713171 0 -24.829893 -11.1167145 -24.829893 -24.829895z" fill-rule="evenodd"/><path stroke="#666666" stroke-width="1.0" stroke-linejoin="round" stroke-linecap="butt" stroke-dasharray="4.0,3.0" d="m4.2364526 29.562176l0 0c0 -13.713171 11.116722 -24.829891 24.829893 -24.829891l99.31659 0l0 0c6.5852966 0 12.900879 2.6159987 17.557388 7.2725067c4.6565094 4.6565084 7.2725067 10.972089 7.2725067 17.557384l0 125.67879c0 13.713181 -11.1167145 24.829895 -24.829895 24.829895l-99.31659 0c-13.713171 0 -24.829893 -11.1167145 -24.829893 -24.829895z" fill-rule="evenodd"/><path fill="#666666" d="m81.6433 175.4322q-0.5 0.09375 -0.953125 -0.0625q-0.4375 -0.15625 -0.71875 -0.515625q-0.265625 -0.375 -0.265625 -0.921875q-0.046875 -0.515625 0.109375 -1.21875q0.171875 -0.703125 0.5 -1.40625q0.328125 -0.703125 0.71875 -1.203125q0.359375 -0.421875 0.703125 -0.765625q0.34375 -0.34375 0.625 -0.46875q0.234375 -0.109375 0.484375 -0.140625q0.265625 -0.03125 0.40625 -0.03125q0.28125 0.0625 0.609375 0.25q0.328125 0.171875 0.328125 0.375q0 0 0.046875 0.046875q0.046875 0.03125 0.046875 0.03125q0.09375 0 0.1875 0.234375q0.109375 0.234375 0.140625 0.53125q0.03125 0.296875 -0.078125 0.484375q-0.0625 0.328125 -0.25 0.609375q-0.171875 0.265625 -0.3125 0.265625q-0.078125 0 -0.140625 0.015625q-0.046875 0 -0.046875 0.078125q0 0.09375 -0.125 0.078125q-0.125 -0.015625 -0.265625 -0.09375q-0.140625 -0.09375 -0.1875 -0.234375q0 -0.09375 0.0625 -0.265625q0.0625 -0.1875 0.125 -0.515625q0.109375 -0.484375 -0.015625 -0.640625q-0.109375 -0.15625 -0.453125 -0.015625q-0.421875 0.234375 -0.78125 0.640625q-0.34375 0.390625 -0.640625 1.046875q-0.296875 0.640625 -0.546875 1.671875q-0.109375 0.390625 -0.0625 0.671875q0.046875 0.265625 0.09375 0.28125q0.25 0.0625 0.609375 0.03125q0.375 -0.046875 0.5625 -0.15625q0.28125 -0.140625 0.578125 -0.34375q0.3125 -0.203125 0.578125 -0.40625q0.078125 -0.046875 0.1875 -0.171875q0.109375 -0.140625 0.234375 -0.203125q0.140625 -0.203125 0.28125 -0.234375q0.140625 -0.03125 0.34375 -0.03125q0.140625 0.046875 0.28125 0.140625q0.140625 0.078125 0.1875 0.171875q0.0625 0.09375 -0.046875 0.140625q-0.0625 0 -0.078125 0.046875q-0.015625 0.046875 -0.015625 0.046875q0.046875 0.0625 -0.140625 0.296875q-0.1875 0.21875 -0.46875 0.484375q-0.265625 0.25 -0.515625 0.453125q-0.25 0.1875 -0.359375 0.1875q-0.171875 0 -0.171875 0.09375q0 0.046875 -0.25 0.1875q-0.25 0.125 -0.578125 0.265625q-0.3125 0.140625 -0.5625 0.1875zm6.45343 0.125q-0.25 -0.0625 -0.4375 -0.1875q-0.1875 -0.125 -0.453125 -0.34375q-0.203125 -0.28125 -0.3125 -0.515625q-0.09375 -0.25 -0.125 -0.5625q-0.03125 -0.328125 -0.03125 -0.828125q0 -0.21875 0.078125 -0.625q0.078125 -0.40625 0.1875 -0.84375q0.125 -0.4375 0.203125 -0.78125q0.09375 -0.359375 0.109375 -0.453125q0.046875 -0.234375 -0.1875 -0.265625q-0.21875 -0.03125 -0.484375 -0.015625q-0.265625 0 -0.359375 -0.046875q-0.0625 -0.015625 -0.0625 -0.109375q0 -0.09375 0 -0.09375q0 -0.0625 -0.03125 -0.078125q-0.015625 -0.03125 -0.078125 -0.125q-0.03125 -0.0625 0.0625 -0.203125q0.09375 -0.15625 0.28125 -0.1875q0.15625 -0.046875 0.4375 -0.0625q0.28125 -0.03125 0.578125 -0.125q0.296875 -0.09375 0.46875 -0.296875q0.15625 -0.390625 0.34375 -0.84375q0.203125 -0.46875 0.390625 -0.828125q0.203125 -0.359375 0.265625 -0.453125q0.296875 -0.15625 0.484375 -0.125q0.203125 0.03125 0.390625 0.296875q0.078125 0.125 0.125 0.1875q0.0625 0.0625 0.03125 0.203125q-0.03125 0.125 -0.171875 0.40625q-0.140625 0.28125 -0.4375 0.84375q-0.09375 0.171875 -0.171875 0.296875q-0.0625 0.125 -0.0625 0.125q0.078125 0.015625 0.203125 0.015625q0.140625 0 0.359375 -0.015625q0.1875 -0.03125 0.453125 -0.046875q0.28125 -0.03125 0.46875 0q0.390625 0 0.578125 0.171875q0.1875 0.171875 0.21875 0.515625q0.03125 0.203125 -0.109375 0.265625q-0.140625 0.0625 -0.609375 0.0625q-0.15625 0 -0.46875 0.03125q-0.3125 0.015625 -0.65625 0.03125q-0.34375 0.015625 -0.578125 0.046875q-0.234375 0.015625 -0.234375 0.046875q-0.046875 0.046875 -0.171875 0.328125q-0.109375 0.265625 -0.21875 0.625q-0.109375 0.359375 -0.203125 0.640625q-0.125 0.59375 -0.1875 1.171875q-0.046875 0.578125 -0.015625 1.015625q0.03125 0.421875 0.1875 0.59375q0.15625 0.15625 0.5625 0.03125q0.40625 -0.125 0.6875 -0.34375q0.3125 -0.265625 0.515625 -0.21875q0.203125 0.03125 0.25 0.25q0.046875 0.203125 -0.171875 0.546875q-0.21875 0.3125 -0.5625 0.546875q-0.328125 0.21875 -0.6875 0.3125q-0.34375 0.109375 -0.640625 0.015625zm3.2512054 -0.140625q-0.09375 0 -0.21875 -0.109375q-0.125 -0.109375 -0.203125 -0.265625q-0.078125 -0.171875 -0.09375 -0.296875q0 -0.09375 0.25 -0.390625q0.25 -0.296875 0.640625 -0.71875q0.40625 -0.4375 0.8125 -0.84375l0.671875 -0.765625l-0.3125 -0.8125q-0.09375 -0.265625 -0.203125 -0.578125q-0.109375 -0.328125 -0.1875 -0.59375q-0.078125 -0.265625 -0.078125 -0.359375q-0.078125 -0.1875 -0.03125 -0.390625q0.046875 -0.203125 0.09375 -0.265625q-0.015625 -0.140625 0.21875 -0.15625q0.25 -0.03125 0.390625 0.09375q0.140625 0.03125 0.265625 0.234375q0.140625 0.1875 0.25 0.4375q0.109375 0.25 0.15625 0.484375q0 0.046875 0.0625 0.265625q0.0625 0.21875 0.140625 0.40625l0.109375 0.484375l0.359375 -0.375q0.109375 -0.140625 0.25 -0.265625q0.15625 -0.125 0.15625 -0.1875q0.078125 0 0.25 -0.171875q0.171875 -0.1875 0.40625 -0.4375q0.25 -0.28125 0.5 -0.4375q0.265625 -0.15625 0.34375 -0.15625q0.234375 -0.015625 0.40625 0.21875q0.171875 0.234375 0.1875 0.5q0 0.125 -0.296875 0.484375q-0.296875 0.34375 -0.921875 0.796875q-0.390625 0.28125 -0.59375 0.46875q-0.203125 0.1875 -0.625 0.515625q0.28125 0.578125 0.5 1.0q0.234375 0.40625 0.609375 0.828125q0.1875 0.171875 0.359375 0.359375q0.171875 0.1875 0.171875 0.1875q0.078125 -0.015625 0.15625 0.078125q0.078125 0.09375 0.0625 0.234375q0.046875 0.171875 -0.046875 0.265625q-0.078125 0.078125 -0.203125 0.125q-0.125 0.046875 -0.15625 0.09375q-0.125 0.015625 -0.21875 -0.046875q-0.09375 -0.0625 -0.140625 -0.015625q-0.078125 0.03125 -0.375 -0.1875q-0.296875 -0.21875 -0.578125 -0.53125q-0.125 -0.125 -0.3125 -0.390625q-0.171875 -0.265625 -0.3125 -0.4375q-0.125 -0.1875 -0.234375 -0.328125q-0.09375 -0.140625 -0.125 -0.203125q-0.078125 0.0625 -0.3125 0.3125q-0.234375 0.234375 -0.65625 0.703125q-0.6875 0.65625 -0.953125 0.90625q-0.25 0.234375 -0.390625 0.234375zm16.037262 0.953125q-0.046875 0.09375 -0.25 0.046875q-0.203125 -0.03125 -0.359375 -0.234375q-0.125 -0.3125 -0.140625 -0.609375q0 -0.28125 0.015625 -0.828125q0.109375 -0.609375 0.296875 -1.578125q0.203125 -0.984375 0.46875 -2.203125q0.28125 -1.234375 0.59375 -2.546875q0.1875 -0.671875 0.296875 -1.1875q0.109375 -0.53125 0.171875 -0.84375q0.0625 -0.328125 0.0625 -0.328125q0 -0.015625 -0.078125 0.0625q-0.0625 0.078125 -0.140625 0.171875q-0.0625 0.078125 -0.046875 0.15625q0 0 -0.109375 0.15625q-0.09375 0.15625 -0.28125 0.453125q-0.15625 0.171875 -0.375 0.609375q-0.203125 0.4375 -0.5 0.890625q-0.265625 0.515625 -0.59375 1.140625q-0.3125 0.625 -0.5625 1.03125q-0.140625 0.203125 -0.28125 0.453125q-0.140625 0.234375 -0.171875 0.328125q-0.0625 0.1875 -0.234375 0.46875q-0.15625 0.265625 -0.375 0.53125q-0.09375 0.15625 -0.234375 0.328125q-0.125 0.171875 -0.203125 0.3125q-0.078125 0.125 -0.078125 0.125q-0.015625 0.0625 -0.1875 0.3125q-0.171875 0.25 -0.421875 0.546875q-0.234375 0.296875 -0.46875 0.515625q-0.59375 0.59375 -0.96875 0.71875q-0.375 0.125 -0.84375 -0.296875q-0.234375 -0.28125 -0.359375 -0.609375q-0.109375 -0.34375 -0.09375 -0.859375q0.015625 -0.515625 0.140625 -1.359375q0.125 -0.578125 0.234375 -1.203125q0.125 -0.625 0.234375 -1.1875q0.125 -0.5625 0.21875 -0.953125q0.09375 -0.40625 0.140625 -0.546875q0.03125 -0.390625 -0.015625 -0.421875q-0.03125 -0.03125 -0.1875 0.203125q-0.09375 0.140625 -0.40625 0.671875q-0.296875 0.515625 -0.703125 1.25q-0.390625 0.734375 -0.765625 1.546875q-0.703125 1.328125 -1.171875 2.1875q-0.46875 0.859375 -0.75 1.375q-0.28125 0.515625 -0.421875 0.765625q-0.140625 0.25 -0.203125 0.34375q-0.046875 0.09375 -0.078125 0.125q-0.203125 0 -0.375 -0.171875q-0.171875 -0.15625 -0.328125 -0.375q-0.046875 -0.140625 -0.046875 -0.28125q0 -0.140625 0.09375 -0.375q0.09375 -0.234375 0.265625 -0.640625q0.234375 -0.453125 0.421875 -0.78125q0.203125 -0.328125 0.296875 -0.40625q0.078125 -0.125 0.140625 -0.265625q0.0625 -0.140625 0.078125 -0.3125q0.09375 -0.109375 0.265625 -0.421875q0.1875 -0.328125 0.375 -0.703125q0.140625 -0.234375 0.359375 -0.609375q0.234375 -0.390625 0.484375 -0.828125q0.265625 -0.453125 0.453125 -0.859375q0.78125 -1.359375 1.296875 -2.265625q0.53125 -0.90625 0.78125 -1.15625q0.09375 -0.09375 0.1875 -0.265625q0.09375 -0.1875 0.125 -0.3125q0.078125 -0.421875 0.25 -0.71875q0.1875 -0.296875 0.359375 -0.28125q0.15625 0 0.3125 0.0625q0.171875 0.046875 0.34375 0.25q0.15625 0.203125 0.28125 0.46875q0.140625 0.25 0.015625 0.875q0 0.265625 -0.0625 0.59375q-0.0625 0.328125 -0.109375 0.625q-0.046875 0.296875 -0.09375 0.46875q-0.1875 0.703125 -0.375 1.5q-0.171875 0.796875 -0.328125 1.578125q-0.15625 0.765625 -0.25 1.40625q-0.09375 0.625 -0.125 1.046875q-0.03125 0.40625 0.046875 0.484375q0.078125 0.046875 0.171875 0q0.109375 -0.0625 0.265625 -0.359375q0.09375 -0.1875 0.265625 -0.421875q0.171875 -0.25 0.375 -0.484375q0.1875 -0.296875 0.484375 -0.765625q0.296875 -0.484375 0.734375 -1.21875q0.453125 -0.75 1.078125 -1.8125q0.625 -1.078125 1.46875 -2.546875q0.40625 -0.609375 0.75 -1.203125q0.359375 -0.59375 0.609375 -0.8125q0.265625 -0.234375 0.5625 -0.125q0.296875 0.09375 0.53125 0.4375q0.25 0.34375 0.28125 0.859375q0.015625 0.25 -0.078125 0.8125q-0.078125 0.5625 -0.265625 1.28125q-0.171875 0.703125 -0.40625 1.4375q-0.0625 0.28125 -0.171875 0.75q-0.109375 0.453125 -0.25 0.9375q-0.140625 0.46875 -0.28125 0.890625q-0.078125 0.5625 -0.1875 1.0625q-0.09375 0.484375 -0.078125 0.75q-0.15625 0.28125 -0.21875 0.8125q-0.046875 0.515625 -0.046875 1.0625q-0.0625 0.671875 -0.171875 0.953125q-0.09375 0.28125 -0.15625 0.265625q-0.203125 -0.078125 -0.21875 0.078125zm2.9344177 -1.359375q-0.0625 -0.140625 -0.21875 -0.234375q-0.140625 -0.09375 -0.140625 -0.171875q0 -0.0625 -0.03125 -0.171875q-0.03125 -0.109375 -0.109375 -0.171875q-0.078125 -0.109375 0.03125 -0.484375q0.109375 -0.390625 0.359375 -0.953125q0.265625 -0.5625 0.59375 -1.15625q0.140625 -0.140625 0.28125 -0.359375q0.140625 -0.234375 0.203125 -0.3125q0 -0.0625 0.046875 -0.125q0.0625 -0.0625 0.140625 -0.0625l0.03125 -0.15625q0.015625 -0.078125 0.1875 -0.28125q0.171875 -0.21875 0.40625 -0.46875q0.25 -0.25 0.515625 -0.484375q0.265625 -0.234375 0.453125 -0.34375q0.359375 -0.234375 0.75 -0.265625q0.390625 -0.03125 0.65625 0.203125q0.0625 0.046875 0.203125 0.1875q0.140625 0.125 0.328125 0.296875q0.1875 0.15625 0.359375 0.3125l0.640625 0.578125l-0.3125 0.859375q-0.21875 0.6875 -0.109375 1.21875q0.109375 0.515625 0.34375 0.890625q0.078125 0.1875 0.296875 0.34375q0.234375 0.140625 0.46875 0.1875q0.140625 0.015625 0.265625 0.109375q0.125 0.078125 0.125 0.265625q0 0.265625 -0.09375 0.390625q-0.09375 0.125 -0.265625 0.15625q-0.578125 0.078125 -1.078125 -0.21875q-0.5 -0.296875 -0.921875 -1.09375q-0.0625 -0.109375 -0.1875 -0.390625q-0.109375 -0.28125 -0.125 -0.375q-0.0625 0.09375 -0.234375 0.296875q-0.15625 0.1875 -0.265625 0.296875q-1.234375 1.25 -2.125 1.65625q-0.875 0.40625 -1.46875 0.03125zm0.734375 -1.125q0.03125 0.078125 0.359375 -0.0625q0.34375 -0.140625 0.78125 -0.484375q0.59375 -0.5 1.109375 -1.0q0.53125 -0.515625 0.90625 -1.046875l0.375 -0.625q-0.171875 -0.390625 -0.359375 -0.53125q-0.171875 -0.140625 -0.3125 -0.140625q-0.234375 0 -0.640625 0.375q-0.390625 0.375 -0.859375 1.015625q-0.453125 0.640625 -0.90625 1.46875q-0.1875 0.359375 -0.328125 0.703125q-0.125 0.328125 -0.125 0.328125zm7.6555786 1.296875q-0.3125 -0.015625 -0.546875 -0.390625q-0.21875 -0.375 -0.25 -0.78125q0.015625 -0.125 0.046875 -0.390625q0.03125 -0.265625 0.0625 -0.53125q0.0625 -0.34375 0.1875 -0.828125q0.125 -0.5 0.25 -0.984375q0.125 -0.5 0.234375 -0.859375q0.109375 -0.375 0.140625 -0.4375q0.078125 -0.171875 0.328125 -0.078125q0.265625 0.078125 0.421875 0.296875q0.09375 0.140625 0.125 0.34375q0.03125 0.1875 -0.046875 0.546875q-0.078125 0.359375 -0.296875 1.078125q-0.1875 0.6875 -0.28125 1.109375q-0.09375 0.421875 -0.078125 0.890625q-0.0625 0.671875 -0.109375 0.859375q-0.046875 0.171875 -0.1875 0.15625zm1.859375 -7.0q-0.078125 0.046875 -0.140625 0.046875q-0.046875 -0.015625 -0.1875 -0.109375q-0.125 -0.015625 -0.3125 -0.15625q-0.171875 -0.15625 -0.3125 -0.3125q-0.125 -0.171875 -0.125 -0.203125q-0.015625 -0.171875 0.015625 -0.46875q0.046875 -0.3125 0.1875 -0.5625q0.15625 -0.265625 0.421875 -0.28125q0.0625 0 0.171875 0.03125q0.125 0.03125 0.375 0.140625q0.140625 0.265625 0.265625 0.625q0.140625 0.34375 0.09375 0.671875q-0.046875 0.328125 -0.453125 0.578125zm1.7610779 7.296875q-0.1875 -0.046875 -0.40625 -0.21875q-0.203125 -0.1875 -0.359375 -0.40625q-0.15625 -0.234375 -0.203125 -0.40625q0 -0.03125 -0.046875 -0.078125q-0.03125 -0.0625 -0.03125 -0.0625q-0.078125 -0.046875 -0.09375 -0.453125q0 -0.40625 0.046875 -0.90625q0.0625 -0.515625 0.125 -0.796875q0.09375 -0.28125 0.265625 -0.75q0.171875 -0.484375 0.296875 -0.859375l0.46875 -1.015625l-0.703125 -0.1875q-0.125 -0.03125 -0.203125 -0.140625q-0.078125 -0.109375 -0.078125 -0.171875q0 -0.140625 0.15625 -0.359375q0.15625 -0.21875 0.234375 -0.21875q0.078125 0.03125 0.3125 0.03125q0.234375 0 0.453125 -0.015625q0.234375 -0.03125 0.28125 -0.046875q0.078125 -0.03125 0.140625 -0.09375q0.078125 -0.0625 0.109375 -0.1875q0.09375 -0.1875 0.15625 -0.328125q0.0625 -0.15625 0.1875 -0.359375q0.125 -0.21875 0.203125 -0.375q0.078125 -0.15625 0.25 -0.4375q0.09375 -0.125 0.1875 -0.296875q0.109375 -0.171875 0.265625 -0.296875q0.15625 -0.140625 0.375 -0.15625q0.234375 -0.015625 0.484375 0.21875q0.140625 0.171875 0.15625 0.28125q0.015625 0.109375 -0.140625 0.359375q-0.125 0.28125 -0.3125 0.5625q-0.1875 0.28125 -0.34375 0.578125q-0.28125 0.375 -0.109375 0.4375q0.1875 0.046875 0.984375 -0.078125q0.5 -0.078125 0.71875 0.0625q0.234375 0.140625 0.265625 0.4375q0.046875 0.421875 -0.09375 0.515625q-0.140625 0.078125 -0.796875 0.078125q-0.40625 0.0625 -0.703125 0.078125q-0.296875 0.015625 -0.4375 0.015625q-0.21875 0.015625 -0.296875 0.015625q-0.0625 0 -0.203125 0.03125q-0.140625 0.03125 -0.203125 0.109375q-0.0625 0.078125 -0.125 0.21875q-0.078125 0.0625 -0.21875 0.359375q-0.125 0.296875 -0.34375 0.640625q-0.234375 0.734375 -0.40625 1.4375q-0.15625 0.703125 -0.28125 1.375q-0.046875 0.390625 0.03125 0.546875q0.078125 0.15625 0.4375 0.203125q0.1875 0.015625 0.59375 -0.015625q0.40625 -0.03125 0.65625 -0.09375q0.1875 -0.09375 0.390625 -0.1875q0.21875 -0.09375 0.390625 -0.1875q0.15625 -0.09375 0.3125 -0.1875q0.15625 -0.09375 0.15625 -0.09375q0.078125 -0.140625 0.203125 -0.046875q0.125 0.09375 0.1875 0.296875q0 0.21875 -0.09375 0.46875q-0.078125 0.234375 -0.625 0.546875q-0.78125 0.484375 -1.484375 0.59375q-0.6875 0.09375 -1.140625 0.015625zm5.5793304 -0.421875q-0.046875 0.015625 -0.1875 -0.015625q-0.125 -0.03125 -0.265625 -0.078125q-0.140625 -0.0625 -0.171875 -0.09375q-0.0625 -0.078125 -0.140625 -0.21875q-0.078125 -0.15625 -0.0625 -0.4375q0.03125 -0.28125 0.328125 -0.71875q0.09375 -0.171875 0.203125 -0.515625q0.125 -0.34375 0.25 -0.734375q0.14061737 -0.390625 0.24999237 -0.703125q0.109375 -0.3125 0.15625 -0.4375q0.046875 -0.296875 -0.015625 -0.421875q-0.0625 -0.125 -0.31249237 -0.140625q-0.171875 0 -0.265625 -0.0625q-0.09375 -0.0625 -0.09375 -0.375q0.03125 -0.25 0.125 -0.375q0.109375 -0.125 0.28125 -0.25q0.17186737 -0.09375 0.37499237 -0.125q0.21875 -0.03125 0.421875 -0.015625q0.203125 0.015625 0.3125 0.125q0.109375 0.0625 0.15625 0.296875q0.0625 0.234375 0.078125 0.484375q0.015625 0.234375 0.03125 0.359375q0.171875 -0.140625 0.453125 -0.390625q0.28125 -0.25 0.5 -0.484375q0.28125 -0.1875 0.65625 -0.375q0.390625 -0.203125 0.5625 -0.203125q0.1875 0 0.40625 0.125q0.21875 0.125 0.28125 0.265625q0.171875 0.296875 0.203125 0.546875q0.03125 0.25 -0.15625 0.5q-0.1875 0.21875 -0.46875 0.359375q-0.265625 0.125 -0.453125 0.109375q-0.109375 -0.015625 -0.265625 -0.203125q-0.140625 -0.1875 -0.15625 -0.28125q0 -0.0625 -0.1875 0.09375q-0.1875 0.140625 -0.4375 0.359375q-0.234375 0.21875 -0.40625 0.390625q-0.296875 0.359375 -0.625 0.984375q-0.328125 0.625 -0.78125 1.515625q-0.21875 0.421875 -0.328125 0.765625q-0.09375 0.328125 -0.24999237 0.375zm6.2693253 0.15625q-0.671875 -0.28125 -0.890625 -0.8125q-0.21875 -0.546875 -0.09375 -1.578125q0.03125 -0.53125 0 -0.703125q-0.015625 -0.1875 -0.203125 -0.359375q-0.046875 -0.0625 -0.203125 -0.203125q-0.140625 -0.140625 -0.125 -0.21875q-0.015625 -0.125 0.015625 -0.28125q0.046875 -0.15625 0.125 -0.171875q0.078125 -0.015625 0.171875 -0.0625q0.09375 -0.046875 0.171875 -0.015625q0.0625 0 0.171875 0.046875q0.109375 0.046875 0.109375 0.109375q0.0625 0.125 0.21875 -0.015625q0.15625 -0.140625 0.328125 -0.484375q0.171875 -0.28125 0.453125 -0.546875q0.28125 -0.265625 0.546875 -0.484375q0.28125 -0.234375 0.46875 -0.34375q0.09375 -0.03125 0.28125 -0.078125q0.203125 -0.046875 0.421875 -0.09375q0.234375 -0.046875 0.375 -0.03125q0.3125 0.015625 0.5625 0.21875q0.265625 0.1875 0.46875 0.390625q0.21875 0.15625 0.28125 0.4375q0.078125 0.265625 0.03125 0.578125q-0.03125 0.3125 -0.140625 0.5625q-0.0625 0.171875 -0.328125 0.4375q-0.25 0.265625 -0.59375 0.515625q-0.328125 0.234375 -0.59375 0.34375q-0.21875 0.046875 -0.5625 0.09375q-0.328125 0.03125 -0.625 0.015625q-0.296875 -0.015625 -0.40625 -0.078125q-0.125 -0.0625 -0.1875 0.140625q-0.0625 0.203125 -0.109375 0.703125q-0.03125 0.328125 0 0.484375q0.046875 0.15625 0.078125 0.21875q0.109375 0.15625 0.296875 0.3125q0.1875 0.15625 0.5625 0.046875q0.328125 -0.0625 0.640625 -0.421875q0.328125 -0.375 0.609375 -0.59375q0.0625 -0.125 0.25 -0.15625q0.203125 -0.03125 0.4375 0.03125q0.203125 0.125 0.171875 0.328125q-0.03125 0.1875 -0.21875 0.578125q-0.046875 0.109375 -0.25 0.3125q-0.203125 0.203125 -0.4375 0.40625q-0.234375 0.203125 -0.40625 0.296875q-0.515625 0.28125 -0.984375 0.28125q-0.46875 0 -0.890625 -0.15625zm1.109375 -3.640625q0.359375 -0.09375 0.5625 -0.125q0.203125 -0.046875 0.40625 -0.203125q0.203125 -0.171875 0.46875 -0.59375q0.078125 -0.1875 0.0625 -0.359375q-0.015625 -0.171875 -0.078125 -0.21875q-0.15625 -0.1875 -0.359375 -0.125q-0.1875 0.0625 -0.375 0.203125q-0.125 0.046875 -0.359375 0.234375q-0.21875 0.1875 -0.4375 0.421875q-0.21875 0.234375 -0.34375 0.4375q-0.125 0.1875 -0.0625 0.21875q-0.03125 0.078125 0.203125 0.09375q0.234375 0.015625 0.3125 0.015625z" fill-rule="nonzero"/><path fill="#000000" fill-opacity="0.0" d="m129.13518 79.59449l77.32283 0.88188934" fill-rule="evenodd"/><path stroke="#38761d" stroke-width="1.0" stroke-linejoin="round" stroke-linecap="butt" d="m129.13518 79.59449l73.895966 0.84280396" fill-rule="evenodd"/><path fill="#38761d" stroke="#38761d" stroke-width="1.0" stroke-linecap="butt" d="m203.03114 80.437294l-1.1373444 1.1116867l3.1024017 -1.0892715l-3.0767365 -1.1597519z" fill-rule="evenodd"/><path fill="#980000" d="m33.347397 59.621773l17.097553 0c-1.888546 0 -3.41951 7.917862 -3.41951 17.685036c0 9.767181 1.5309639 17.685043 3.41951 17.685043l-17.097553 0l0 0c-1.8885422 0 -3.419508 -7.917862 -3.419508 -17.685043c0 -9.767174 1.5309658 -17.685036 3.419508 -17.685036z" fill-rule="evenodd"/><path stroke="#980000" stroke-width="1.0" stroke-linejoin="round" stroke-linecap="butt" d="m33.347397 59.621773l17.097553 0c-1.888546 0 -3.41951 7.917862 -3.41951 17.685036c0 9.767181 1.5309639 17.685043 3.41951 17.685043l-17.097553 0l0 0c-1.8885422 0 -3.419508 -7.917862 -3.419508 -17.685043c0 -9.767174 1.5309658 -17.685036 3.419508 -17.685036z" fill-rule="evenodd"/><path fill="#e6b8af" d="m44.25328 79.59449l0 0c0 -23.439487 19.001457 -42.44095 42.44095 -42.44095l0 0c11.256035 0 22.051056 4.471447 30.010277 12.430668c7.959221 7.959221 12.430672 18.754238 12.430672 30.01028l0 0c0 23.439484 -19.001465 42.44094 -42.44095 42.44094l0 0c-23.439491 0 -42.44095 -19.001457 -42.44095 -42.44094z" fill-rule="evenodd"/><path stroke="#980000" stroke-width="1.0" stroke-linejoin="round" stroke-linecap="butt" d="m44.25328 79.59449l0 0c0 -23.439487 19.001457 -42.44095 42.44095 -42.44095l0 0c11.256035 0 22.051056 4.471447 30.010277 12.430668c7.959221 7.959221 12.430672 18.754238 12.430672 30.01028l0 0c0 23.439484 -19.001465 42.44094 -42.44095 42.44094l0 0c-23.439491 0 -42.44095 -19.001457 -42.44095 -42.44094z" fill-rule="evenodd"/><path fill="#000000" d="m77.17006 85.10949q-0.109375 -0.03125 -0.3125 -0.1875q-0.203125 -0.15625 -0.34375 -0.515625q-0.140625 -0.359375 -0.140625 -0.953125q0.015625 -0.53125 0.03125 -0.796875q0.03125 -0.265625 -0.09375 -0.265625q-0.125 0 -0.46875 0.234375q-0.34375 0.234375 -0.828125 0.65625q-0.46875 0.421875 -1.0 1.015625q-0.1875 0.171875 -0.390625 0.375q-0.1875 0.203125 -0.375 0.265625q-0.1875 0.0625 -0.40625 -0.109375l-0.171875 -0.15625q-0.09375 -0.078125 -0.140625 -0.203125q-0.046875 -0.125 -0.015625 -0.234375l0.4375 -1.21875q0.265625 -0.578125 0.359375 -0.828125q0.09375 -0.265625 0.078125 -0.328125q0 -0.078125 -0.046875 -0.0625q-0.140625 0.015625 -0.390625 0.171875q-0.234375 0.15625 -0.328125 0.28125q-0.0625 0 -0.203125 0.15625q-0.125 0.15625 -0.296875 0.28125q-0.125 0.171875 -0.453125 0.484375q-0.3125 0.3125 -0.640625 0.65625q-0.21875 0.1875 -0.46875 0.5q-0.234375 0.296875 -0.421875 0.53125q-0.171875 0.21875 -0.21875 0.21875q-0.265625 0 -0.46875 -0.140625q-0.1875 -0.15625 -0.28125 -0.4375q-0.140625 -0.25 -0.015625 -0.765625q0.125 -0.53125 0.328125 -1.46875q0.078125 -0.25 0.09375 -0.390625q0.03125 -0.15625 0.078125 -0.296875q0.0625 -0.15625 0.171875 -0.421875q0.109375 -0.28125 0.3125 -0.765625q0.109375 -0.28125 0.125 -0.46875q0.015625 -0.1875 0 -0.28125q0 -0.203125 0.125 -0.328125q0.125 -0.140625 0.28125 -0.1875q0.171875 -0.0625 0.296875 -0.03125q0.265625 0.03125 0.421875 0.25q0.15625 0.203125 0.171875 0.484375q0.03125 0.21875 -0.03125 0.390625q-0.0625 0.171875 -0.125 0.3125l-0.1875 0.46875q-0.125 0.265625 -0.234375 0.578125q-0.109375 0.296875 -0.1875 0.53125q-0.078125 0.21875 -0.078125 0.265625q0.015625 0.046875 0.140625 -0.03125q0.125 -0.09375 0.296875 -0.25q0.171875 -0.15625 0.34375 -0.296875q0.34375 -0.328125 0.765625 -0.625q0.421875 -0.3125 0.8125 -0.515625q0.390625 -0.21875 0.625 -0.296875q0.296875 0.015625 0.453125 0.171875q0.171875 0.140625 0.375 0.390625q0.109375 0.171875 0.09375 0.375q0 0.1875 -0.046875 0.359375q-0.015625 0.078125 -0.09375 0.328125q-0.078125 0.234375 -0.15625 0.453125q-0.0625 0.21875 -0.0625 0.21875q0 0 0.171875 -0.15625q0.1875 -0.15625 0.390625 -0.34375q0.21875 -0.1875 0.359375 -0.28125q0.75 -0.578125 1.25 -0.71875q0.5 -0.15625 0.828125 0.328125q0.21875 0.1875 0.234375 0.453125q0.03125 0.265625 0.03125 0.8125q0.015625 0.234375 0.03125 0.53125q0.015625 0.296875 0.046875 0.53125q0.046875 0.234375 0.078125 0.296875q0.046875 0.0625 0.1875 0.125q0.15625 0.046875 0.34375 0.078125q0.265625 0.0625 0.296875 0.296875q0.046875 0.234375 -0.21875 0.421875q-0.265625 0.15625 -0.578125 0.15625q-0.296875 0 -0.546875 -0.078125zm2.0681763 0.09375q-0.0625 -0.140625 -0.21875 -0.234375q-0.140625 -0.09375 -0.140625 -0.171875q0 -0.0625 -0.03125 -0.171875q-0.03125 -0.109375 -0.109375 -0.171875q-0.078125 -0.109375 0.03125 -0.484375q0.109375 -0.390625 0.359375 -0.953125q0.265625 -0.5625 0.59375 -1.15625q0.140625 -0.140625 0.28125 -0.359375q0.140625 -0.234375 0.203125 -0.3125q0 -0.0625 0.046875 -0.125q0.0625 -0.0625 0.140625 -0.0625l0.03125 -0.15625q0.015625 -0.078125 0.1875 -0.28125q0.171875 -0.21875 0.40625 -0.46875q0.25 -0.25 0.515625 -0.484375q0.265625 -0.234375 0.453125 -0.34375q0.359375 -0.234375 0.75 -0.265625q0.390625 -0.03125 0.65625 0.203125q0.0625 0.046875 0.203125 0.1875q0.140625 0.125 0.328125 0.296875q0.1875 0.15625 0.359375 0.3125l0.640625 0.578125l-0.3125 0.859375q-0.21875 0.6875 -0.109375 1.21875q0.109375 0.515625 0.34375 0.890625q0.078125 0.1875 0.296875 0.34375q0.234375 0.140625 0.46875 0.1875q0.140625 0.015625 0.265625 0.109375q0.125 0.078125 0.125 0.265625q0 0.265625 -0.09375 0.390625q-0.09375 0.125 -0.265625 0.15625q-0.578125 0.078125 -1.078125 -0.21875q-0.5 -0.296875 -0.921875 -1.09375q-0.0625 -0.109375 -0.1875 -0.390625q-0.109375 -0.28125 -0.125 -0.375q-0.0625 0.09375 -0.234375 0.296875q-0.15625 0.1875 -0.265625 0.296875q-1.234375 1.25 -2.125 1.65625q-0.875 0.40625 -1.46875 0.03125zm0.734375 -1.125q0.03125 0.078125 0.359375 -0.0625q0.34375 -0.140625 0.78125 -0.484375q0.59375 -0.5 1.109375 -1.0q0.53125 -0.515625 0.90625 -1.046875l0.375 -0.625q-0.171875 -0.390625 -0.359375 -0.53125q-0.171875 -0.140625 -0.3125 -0.140625q-0.234375 0 -0.640625 0.375q-0.390625 0.375 -0.859375 1.015625q-0.453125 0.640625 -0.90625 1.46875q-0.1875 0.359375 -0.328125 0.703125q-0.125 0.328125 -0.125 0.328125zm7.6555786 1.296875q-0.3125 -0.015625 -0.546875 -0.390625q-0.21875 -0.375 -0.25 -0.78125q0.015625 -0.125 0.046875 -0.390625q0.03125 -0.265625 0.0625 -0.53125q0.0625 -0.34375 0.1875 -0.828125q0.125 -0.5 0.25 -0.984375q0.125 -0.5 0.234375 -0.859375q0.109375 -0.375 0.140625 -0.4375q0.078125 -0.171875 0.328125 -0.078125q0.265625 0.078125 0.421875 0.296875q0.09375 0.140625 0.125 0.34375q0.03125 0.1875 -0.046875 0.546875q-0.078125 0.359375 -0.296875 1.078125q-0.1875 0.6875 -0.28125 1.109375q-0.09375 0.421875 -0.078125 0.890625q-0.0625 0.671875 -0.109375 0.859375q-0.046875 0.171875 -0.1875 0.15625zm1.859375 -7.0q-0.078125 0.046875 -0.140625 0.046875q-0.046875 -0.015625 -0.1875 -0.109375q-0.125 -0.015625 -0.3125 -0.15625q-0.171875 -0.15625 -0.3125 -0.3125q-0.125 -0.171875 -0.125 -0.203125q-0.015625 -0.171875 0.015625 -0.46875q0.046875 -0.3125 0.1875 -0.5625q0.15625 -0.265625 0.421875 -0.28125q0.0625 0 0.171875 0.03125q0.125 0.03125 0.375 0.140625q0.140625 0.265625 0.265625 0.625q0.140625 0.34375 0.09375 0.671875q-0.046875 0.328125 -0.453125 0.578125zm2.651703 7.375q-0.25 -0.0625 -0.4375 -0.1875q-0.1875 -0.125 -0.453125 -0.34375q-0.203125 -0.28125 -0.3125 -0.515625q-0.09375 -0.25 -0.125 -0.5625q-0.03125 -0.328125 -0.03125 -0.828125q0 -0.21875 0.078125 -0.625q0.078125 -0.40625 0.1875 -0.84375q0.125 -0.4375 0.203125 -0.78125q0.09375 -0.359375 0.109375 -0.453125q0.046875 -0.234375 -0.1875 -0.265625q-0.21875 -0.03125 -0.484375 -0.015625q-0.265625 0 -0.359375 -0.046875q-0.0625 -0.015625 -0.0625 -0.109375q0 -0.09375 0 -0.09375q0 -0.0625 -0.03125 -0.078125q-0.015625 -0.03125 -0.078125 -0.125q-0.03125 -0.0625 0.0625 -0.203125q0.09375 -0.15625 0.28125 -0.1875q0.15625 -0.046875 0.4375 -0.0625q0.28125 -0.03125 0.578125 -0.125q0.296875 -0.09375 0.46875 -0.296875q0.15625 -0.390625 0.34375 -0.84375q0.203125 -0.46875 0.390625 -0.828125q0.203125 -0.359375 0.265625 -0.453125q0.296875 -0.15625 0.484375 -0.125q0.203125 0.03125 0.390625 0.296875q0.078125 0.125 0.125 0.1875q0.0625 0.0625 0.03125 0.203125q-0.03125 0.125 -0.171875 0.40625q-0.140625 0.28125 -0.4375 0.84375q-0.09375 0.171875 -0.171875 0.296875q-0.0625 0.125 -0.0625 0.125q0.078125 0.015625 0.203125 0.015625q0.140625 0 0.359375 -0.015625q0.1875 -0.03125 0.453125 -0.046875q0.28125 -0.03125 0.46875 0q0.390625 0 0.578125 0.171875q0.1875 0.171875 0.21875 0.515625q0.03125 0.203125 -0.109375 0.265625q-0.140625 0.0625 -0.609375 0.0625q-0.15625 0 -0.46875 0.03125q-0.3125 0.015625 -0.65625 0.03125q-0.34375 0.015625 -0.578125 0.046875q-0.234375 0.015625 -0.234375 0.046875q-0.046875 0.046875 -0.171875 0.328125q-0.109375 0.265625 -0.21875 0.625q-0.109375 0.359375 -0.203125 0.640625q-0.125 0.59375 -0.1875 1.171875q-0.046875 0.578125 -0.015625 1.015625q0.03125 0.421875 0.1875 0.59375q0.15625 0.15625 0.5625 0.03125q0.40625 -0.125 0.6875 -0.34375q0.3125 -0.265625 0.515625 -0.21875q0.203125 0.03125 0.25 0.25q0.046875 0.203125 -0.171875 0.546875q-0.21875 0.3125 -0.5625 0.546875q-0.328125 0.21875 -0.6875 0.3125q-0.34375 0.109375 -0.640625 0.015625zm4.2824554 -0.359375q-0.09375 0.09375 -0.28125 0q-0.171875 -0.109375 -0.25 -0.1875q-0.09375 -0.0625 -0.140625 -0.1875q-0.03125 -0.125 -0.015625 -0.359375q0.015625 -0.25 0.046875 -0.4375q0.03125 -0.1875 0.09375 -0.375q0.0625 -0.203125 0.125 -0.484375q0.140625 -0.453125 0.1875 -0.703125q0.046875 -0.25 0.109375 -0.4375q0.0625 -0.203125 0.15625 -0.515625q0.140625 -0.390625 0.25 -0.734375q0.125 -0.359375 0.296875 -0.671875q0.09375 -0.328125 0.25 -0.640625q0.171875 -0.3125 0.3125 -0.5q0.0625 -0.09375 0.203125 -0.140625q0.140625 -0.046875 0.25 0.015625q0.171875 -0.015625 0.25 0.109375q0.078125 0.109375 0.109375 0.375q0.0625 0.328125 -0.03125 0.640625q-0.09375 0.296875 -0.40625 0.796875q-0.0625 0.28125 -0.09375 0.4375q-0.03125 0.15625 0 0.328125q0.1875 -0.265625 0.40625 -0.46875q0.234375 -0.21875 0.453125 -0.390625q0.34375 -0.328125 0.609375 -0.5q0.28125 -0.171875 0.65625 -0.296875q0.1875 -0.09375 0.375 -0.09375q0.203125 -0.015625 0.390625 0.046875q0.203125 0.0625 0.34375 0.203125q-0.015625 -0.03125 -0.046875 0.09375q-0.03125 0.125 -0.0625 0.3125q-0.015625 0.1875 -0.046875 0.390625q-0.328125 -0.015625 -0.609375 0.125q-0.28125 0.125 -0.515625 0.296875q-0.234375 0.15625 -0.40625 0.296875q-0.3125 0.234375 -0.65625 0.515625q-0.328125 0.28125 -0.640625 0.640625q-0.234375 0.3125 -0.4375 0.609375q-0.1875 0.28125 -0.328125 0.5q-0.140625 0.203125 -0.203125 0.375q-0.140625 0.3125 -0.359375 0.640625q-0.21875 0.3125 -0.34375 0.375zm6.675583 0.015625q-0.671875 -0.28125 -0.890625 -0.8125q-0.21875 -0.546875 -0.09375 -1.578125q0.03125 -0.53125 0 -0.703125q-0.015625 -0.1875 -0.203125 -0.359375q-0.046875 -0.0625 -0.203125 -0.203125q-0.140625 -0.140625 -0.125 -0.21875q-0.015625 -0.125 0.015625 -0.28125q0.046875 -0.15625 0.125 -0.171875q0.078125 -0.015625 0.171875 -0.0625q0.09375 -0.046875 0.171875 -0.015625q0.0625 0 0.171875 0.046875q0.109375 0.046875 0.109375 0.109375q0.0625 0.125 0.21875 -0.015625q0.15625 -0.140625 0.328125 -0.484375q0.171875 -0.28125 0.453125 -0.546875q0.28125 -0.265625 0.546875 -0.484375q0.28125 -0.234375 0.46875 -0.34375q0.09375 -0.03125 0.28125 -0.078125q0.203125 -0.046875 0.421875 -0.09375q0.234375 -0.046875 0.375 -0.03125q0.3125 0.015625 0.5625 0.21875q0.265625 0.1875 0.46875 0.390625q0.21875 0.15625 0.28125 0.4375q0.078125 0.265625 0.03125 0.578125q-0.03125 0.3125 -0.140625 0.5625q-0.0625 0.171875 -0.328125 0.4375q-0.25 0.265625 -0.59375 0.515625q-0.328125 0.234375 -0.59375 0.34375q-0.21875 0.046875 -0.5625 0.09375q-0.328125 0.03125 -0.625 0.015625q-0.296875 -0.015625 -0.40625 -0.078125q-0.125 -0.0625 -0.1875 0.140625q-0.0625 0.203125 -0.109375 0.703125q-0.03125 0.328125 0 0.484375q0.046875 0.15625 0.078125 0.21875q0.109375 0.15625 0.296875 0.3125q0.1875 0.15625 0.5625 0.046875q0.328125 -0.0625 0.640625 -0.421875q0.328125 -0.375 0.609375 -0.59375q0.0625 -0.125 0.25 -0.15625q0.203125 -0.03125 0.4375 0.03125q0.203125 0.125 0.171875 0.328125q-0.03125 0.1875 -0.21875 0.578125q-0.046875 0.109375 -0.25 0.3125q-0.203125 0.203125 -0.4375 0.40625q-0.234375 0.203125 -0.40625 0.296875q-0.515625 0.28125 -0.984375 0.28125q-0.46875 0 -0.890625 -0.15625zm1.109375 -3.640625q0.359375 -0.09375 0.5625 -0.125q0.203125 -0.046875 0.40625 -0.203125q0.203125 -0.171875 0.46875 -0.59375q0.078125 -0.1875 0.0625 -0.359375q-0.015625 -0.171875 -0.078125 -0.21875q-0.15625 -0.1875 -0.359375 -0.125q-0.1875 0.0625 -0.375 0.203125q-0.125 0.046875 -0.359375 0.234375q-0.21875 0.1875 -0.4375 0.421875q-0.21875 0.234375 -0.34375 0.4375q-0.125 0.1875 -0.0625 0.21875q-0.03125 0.078125 0.203125 0.09375q0.234375 0.015625 0.3125 0.015625z" fill-rule="nonzero"/><path fill="#980000" d="m94.45638 44.18446l-15.827896 -6.2607384l16.435059 -4.4280663z" fill-rule="evenodd"/><path stroke="#980000" stroke-width="1.0" stroke-linejoin="round" stroke-linecap="butt" d="m94.45638 44.18446l-15.827896 -6.2607384l16.435059 -4.4280663z" fill-rule="evenodd"/><path fill="#ffffff" d="m437.70865 4.2992125l196.44095 0l0 181.13387l-196.44095 0z" fill-rule="evenodd"/><path stroke="#000000" stroke-width="1.3333333333333333" stroke-linejoin="round" stroke-linecap="butt" d="m436.37534 4.2992125c0 -0.7363796 0.59695435 -1.3333333 1.333313 -1.3333333l196.44095 0c0.73638916 0 1.333313 0.59695363 1.333313 1.3333333l0 181.13387c0 0.7363739 -0.5969238 1.3333282 -1.333313 1.3333282l-196.44095 0c-0.73635864 0 -1.333313 -0.59695435 -1.333313 -1.3333282z" fill-rule="nonzero"/><path stroke="#000000" stroke-width="1.3333333333333333" stroke-linejoin="round" stroke-linecap="butt" d="m439.042 5.632546l193.77429 0l0 178.46718l-193.77429 0z" fill-rule="nonzero"/><path fill="#000000" fill-opacity="0.0" d="m437.7021 4.2992125l196.44098 0l0 38.771652l-196.44098 0z" fill-rule="evenodd"/><path fill="#000000" d="m508.196 28.659214l2.40625 -11.453125l2.3437195 0l-1.9843445 9.53125l5.8280945 0l-0.40625 1.921875l-8.1874695 0zm17.773407 -3.453125l-5.625 0q0 0.125 0 0.203125q0 0.828125 0.46875 1.34375q0.46875 0.5 1.15625 0.5q1.109375 0 1.734375 -1.15625l2.015625 0.328125q-0.59375 1.21875 -1.578125 1.828125q-0.96875 0.609375 -2.1875 0.609375q-1.671875 0 -2.71875 -1.0625q-1.046875 -1.0625 -1.046875 -2.8125q0 -1.703125 0.9375 -3.03125q1.296875 -1.796875 3.6875 -1.796875q1.515625 0 2.40625 0.953125q0.90625 0.9375 0.90625 2.625q0 0.8125 -0.15625 1.46875zm-1.890625 -1.375q0.015625 -0.140625 0.015625 -0.21875q0 -0.921875 -0.421875 -1.375q-0.40625 -0.46875 -1.109375 -0.46875q-0.6875 0 -1.25 0.53125q-0.546875 0.515625 -0.734375 1.53125l3.5 0zm2.6015625 5.265625l2.359375 0.34375q0 0.359375 0.109375 0.546875q0.125 0.1875 0.390625 0.3125q0.265625 0.125 0.71875 0.125q0.703125 0 1.140625 -0.28125q0.3125 -0.21875 0.515625 -0.703125q0.125 -0.296875 0.328125 -1.328125l0.078125 -0.390625q-1.171875 0.96875 -2.40625 0.96875q-1.21875 0 -2.0 -0.859375q-0.78125 -0.859375 -0.78125 -2.515625q0 -1.46875 0.53125 -2.6875q0.53125 -1.21875 1.484375 -1.84375q0.96875 -0.625 1.96875 -0.625q0.828125 0 1.515625 0.4375q0.6875 0.4375 1.0625 1.234375l0.3125 -1.46875l2.109375 0l-1.4375 6.90625q-0.359375 1.671875 -0.609375 2.375q-0.234375 0.71875 -0.546875 1.140625q-0.3125 0.421875 -0.796875 0.703125q-0.46875 0.296875 -1.125 0.421875q-0.640625 0.125 -1.390625 0.125q-1.765625 0 -2.671875 -0.609375q-0.890625 -0.59375 -0.890625 -2.0q0 -0.140625 0.03125 -0.328125zm2.640625 -4.015625q0 0.953125 0.421875 1.453125q0.421875 0.484375 1.0625 0.484375q0.59375 0 1.140625 -0.4375q0.546875 -0.453125 0.84375 -1.265625q0.296875 -0.828125 0.296875 -1.59375q0 -0.875 -0.484375 -1.40625q-0.46875 -0.546875 -1.09375 -0.546875q-0.609375 0 -1.109375 0.484375q-0.5 0.46875 -0.828125 1.453125q-0.25 0.765625 -0.25 1.375zm15.3203125 0.125l-5.625 0q0 0.125 0 0.203125q0 0.828125 0.46875 1.34375q0.46875 0.5 1.15625 0.5q1.109375 0 1.734375 -1.15625l2.015625 0.328125q-0.59375 1.21875 -1.578125 1.828125q-0.96875 0.609375 -2.1875 0.609375q-1.671875 0 -2.71875 -1.0625q-1.046875 -1.0625 -1.046875 -2.8125q0 -1.703125 0.9375 -3.03125q1.296875 -1.796875 3.6875 -1.796875q1.515625 0 2.40625 0.953125q0.90625 0.9375 0.90625 2.625q0 0.8125 -0.15625 1.46875zm-1.890625 -1.375q0.015625 -0.140625 0.015625 -0.21875q0 -0.921875 -0.421875 -1.375q-0.40625 -0.46875 -1.109375 -0.46875q-0.6875 0 -1.25 0.53125q-0.546875 0.515625 -0.734375 1.53125l3.5 0zm4.4765625 -3.46875l2.125 0l-0.21875 1.078125q0.796875 -0.6875 1.484375 -0.984375q0.703125 -0.296875 1.46875 -0.296875q1.015625 0 1.609375 0.59375q0.59375 0.578125 0.59375 1.546875q0 0.4375 -0.265625 1.65625l-0.96875 4.703125l-2.25 0l0.984375 -4.71875q0.21875 -1.046875 0.21875 -1.25q0 -0.4375 -0.25 -0.671875q-0.25 -0.25 -0.703125 -0.25q-0.5 0 -1.109375 0.421875q-0.59375 0.40625 -0.9375 1.078125q-0.25 0.484375 -0.5625 1.984375l-0.703125 3.40625l-2.25 0l1.734375 -8.296875zm15.6796875 8.296875l-2.125 0l0.1875 -0.90625q-0.609375 0.59375 -1.203125 0.859375q-0.59375 0.25 -1.328125 0.25q-1.296875 0 -2.09375 -0.875q-0.796875 -0.890625 -0.796875 -2.609375q0 -2.0 1.125 -3.609375q1.125 -1.609375 2.96875 -1.609375q1.671875 0 2.515625 1.328125l0.890625 -4.28125l2.25 0l-2.390625 11.453125zm-5.1875 -3.375q0 0.890625 0.453125 1.390625q0.453125 0.5 1.109375 0.5q0.609375 0 1.125 -0.421875q0.53125 -0.421875 0.84375 -1.28125q0.328125 -0.859375 0.328125 -1.640625q0 -0.90625 -0.484375 -1.453125q-0.484375 -0.5625 -1.125 -0.5625q-0.984375 0 -1.625 1.09375q-0.625 1.09375 -0.625 2.375z" fill-rule="nonzero"/><path fill="#f3f3f3" d="m451.37402 100.28227l0 0c0 -3.2557907 2.6393433 -5.895134 5.895111 -5.895134l41.847534 0c1.5635071 0 3.0629578 0.62109375 4.1684875 1.7266464c1.1055603 1.1055527 1.726654 2.6049957 1.726654 4.1684875l0 23.579811c0 3.2557907 -2.6393433 5.895134 -5.8951416 5.895134l-41.847534 0c-3.2557678 0 -5.895111 -2.6393433 -5.895111 -5.895134z" fill-rule="evenodd"/><path stroke="#666666" stroke-width="1.0" stroke-linejoin="round" stroke-linecap="butt" stroke-dasharray="4.0,3.0" d="m451.37402 100.28227l0 0c0 -3.2557907 2.6393433 -5.895134 5.895111 -5.895134l41.847534 0c1.5635071 0 3.0629578 0.62109375 4.1684875 1.7266464c1.1055603 1.1055527 1.726654 2.6049957 1.726654 4.1684875l0 23.579811c0 3.2557907 -2.6393433 5.895134 -5.8951416 5.895134l-41.847534 0c-3.2557678 0 -5.895111 -2.6393433 -5.895111 -5.895134z" fill-rule="evenodd"/><path fill="#666666" d="m480.09015 124.602806q-0.5 0.09375 -0.953125 -0.0625q-0.4375 -0.15625 -0.71875 -0.515625q-0.265625 -0.375 -0.265625 -0.921875q-0.046875 -0.515625 0.109375 -1.21875q0.171875 -0.703125 0.5 -1.40625q0.328125 -0.703125 0.71875 -1.203125q0.359375 -0.421875 0.703125 -0.765625q0.34375 -0.34375 0.625 -0.46875q0.234375 -0.109375 0.484375 -0.140625q0.265625 -0.03125 0.40625 -0.03125q0.28125 0.0625 0.609375 0.25q0.328125 0.171875 0.328125 0.375q0 0 0.046875 0.046875q0.046875 0.03125 0.046875 0.03125q0.09375 0 0.1875 0.234375q0.109375 0.234375 0.140625 0.53125q0.03125 0.296875 -0.078125 0.484375q-0.0625 0.328125 -0.25 0.609375q-0.171875 0.265625 -0.3125 0.265625q-0.078125 0 -0.140625 0.015625q-0.046875 0 -0.046875 0.078125q0 0.09375 -0.125 0.078125q-0.125 -0.015625 -0.265625 -0.09375q-0.140625 -0.09375 -0.1875 -0.234375q0 -0.09375 0.0625 -0.265625q0.0625 -0.1875 0.125 -0.515625q0.109375 -0.484375 -0.015625 -0.640625q-0.109375 -0.15625 -0.453125 -0.015625q-0.421875 0.234375 -0.78125 0.640625q-0.34375 0.390625 -0.640625 1.046875q-0.296875 0.640625 -0.546875 1.671875q-0.109375 0.390625 -0.0625 0.671875q0.046875 0.265625 0.09375 0.28125q0.25 0.0625 0.609375 0.03125q0.375 -0.046875 0.5625 -0.15625q0.28125 -0.140625 0.578125 -0.34375q0.3125 -0.203125 0.578125 -0.40625q0.078125 -0.046875 0.1875 -0.171875q0.109375 -0.140625 0.234375 -0.203125q0.140625 -0.203125 0.28125 -0.234375q0.140625 -0.03125 0.34375 -0.03125q0.140625 0.046875 0.28125 0.140625q0.140625 0.078125 0.1875 0.171875q0.0625 0.09375 -0.046875 0.140625q-0.0625 0 -0.078125 0.046875q-0.015625 0.046875 -0.015625 0.046875q0.046875 0.0625 -0.140625 0.296875q-0.1875 0.21875 -0.46875 0.484375q-0.265625 0.25 -0.515625 0.453125q-0.25 0.1875 -0.359375 0.1875q-0.171875 0 -0.171875 0.09375q0 0.046875 -0.25 0.1875q-0.25 0.125 -0.578125 0.265625q-0.3125 0.140625 -0.5625 0.1875zm6.45343 0.125q-0.25 -0.0625 -0.4375 -0.1875q-0.1875 -0.125 -0.453125 -0.34375q-0.203125 -0.28125 -0.3125 -0.515625q-0.09375 -0.25 -0.125 -0.5625q-0.03125 -0.328125 -0.03125 -0.828125q0 -0.21875 0.078125 -0.625q0.078125 -0.40625 0.1875 -0.84375q0.125 -0.4375 0.203125 -0.78125q0.09375 -0.359375 0.109375 -0.453125q0.046875 -0.234375 -0.1875 -0.265625q-0.21875 -0.03125 -0.484375 -0.015625q-0.265625 0 -0.359375 -0.046875q-0.0625 -0.015625 -0.0625 -0.109375q0 -0.09375 0 -0.09375q0 -0.0625 -0.03125 -0.078125q-0.015625 -0.03125 -0.078125 -0.125q-0.03125 -0.0625 0.0625 -0.203125q0.09375 -0.15625 0.28125 -0.1875q0.15625 -0.046875 0.4375 -0.0625q0.28125 -0.03125 0.578125 -0.125q0.296875 -0.09375 0.46875 -0.296875q0.15625 -0.390625 0.34375 -0.84375q0.203125 -0.46875 0.390625 -0.828125q0.203125 -0.359375 0.265625 -0.453125q0.296875 -0.15625 0.484375 -0.125q0.203125 0.03125 0.390625 0.296875q0.078125 0.125 0.125 0.1875q0.0625 0.0625 0.03125 0.203125q-0.03125 0.125 -0.171875 0.40625q-0.140625 0.28125 -0.4375 0.84375q-0.09375 0.171875 -0.171875 0.296875q-0.0625 0.125 -0.0625 0.125q0.078125 0.015625 0.203125 0.015625q0.140625 0 0.359375 -0.015625q0.1875 -0.03125 0.453125 -0.046875q0.28125 -0.03125 0.46875 0q0.390625 0 0.578125 0.171875q0.1875 0.171875 0.21875 0.515625q0.03125 0.203125 -0.109375 0.265625q-0.140625 0.0625 -0.609375 0.0625q-0.15625 0 -0.46875 0.03125q-0.3125 0.015625 -0.65625 0.03125q-0.34375 0.015625 -0.578125 0.046875q-0.234375 0.015625 -0.234375 0.046875q-0.046875 0.046875 -0.171875 0.328125q-0.109375 0.265625 -0.21875 0.625q-0.109375 0.359375 -0.203125 0.640625q-0.125 0.59375 -0.1875 1.171875q-0.046875 0.578125 -0.015625 1.015625q0.03125 0.421875 0.1875 0.59375q0.15625 0.15625 0.5625 0.03125q0.40625 -0.125 0.6875 -0.34375q0.3125 -0.265625 0.515625 -0.21875q0.203125 0.03125 0.25 0.25q0.046875 0.203125 -0.171875 0.546875q-0.21875 0.3125 -0.5625 0.546875q-0.328125 0.21875 -0.6875 0.3125q-0.34375 0.109375 -0.640625 0.015625zm3.2512207 -0.140625q-0.09375 0 -0.21875 -0.109375q-0.125 -0.109375 -0.203125 -0.265625q-0.078125 -0.171875 -0.09375 -0.296875q0 -0.09375 0.25 -0.390625q0.25 -0.296875 0.640625 -0.71875q0.40625 -0.4375 0.8125 -0.84375l0.671875 -0.765625l-0.3125 -0.8125q-0.09375 -0.265625 -0.203125 -0.578125q-0.109375 -0.328125 -0.1875 -0.59375q-0.078125 -0.265625 -0.078125 -0.359375q-0.078125 -0.1875 -0.03125 -0.390625q0.046875 -0.203125 0.09375 -0.265625q-0.015625 -0.140625 0.21875 -0.15625q0.25 -0.03125 0.390625 0.09375q0.140625 0.03125 0.265625 0.234375q0.140625 0.1875 0.25 0.4375q0.109375 0.25 0.15625 0.484375q0 0.046875 0.0625 0.265625q0.0625 0.21875 0.140625 0.40625l0.109375 0.484375l0.359375 -0.375q0.109375 -0.140625 0.25 -0.265625q0.15625 -0.125 0.15625 -0.1875q0.078125 0 0.25 -0.171875q0.171875 -0.1875 0.40625 -0.4375q0.25 -0.28125 0.5 -0.4375q0.265625 -0.15625 0.34375 -0.15625q0.234375 -0.015625 0.40625 0.21875q0.171875 0.234375 0.1875 0.5q0 0.125 -0.296875 0.484375q-0.296875 0.34375 -0.921875 0.796875q-0.390625 0.28125 -0.59375 0.46875q-0.203125 0.1875 -0.625 0.515625q0.28125 0.578125 0.5 1.0q0.234375 0.40625 0.609375 0.828125q0.1875 0.171875 0.359375 0.359375q0.171875 0.1875 0.171875 0.1875q0.078125 -0.015625 0.15625 0.078125q0.078125 0.09375 0.0625 0.234375q0.046875 0.171875 -0.046875 0.265625q-0.078125 0.078125 -0.203125 0.125q-0.125 0.046875 -0.15625 0.09375q-0.125 0.015625 -0.21875 -0.046875q-0.09375 -0.0625 -0.140625 -0.015625q-0.078125 0.03125 -0.375 -0.1875q-0.296875 -0.21875 -0.578125 -0.53125q-0.125 -0.125 -0.3125 -0.390625q-0.171875 -0.265625 -0.3125 -0.4375q-0.125 -0.1875 -0.234375 -0.328125q-0.09375 -0.140625 -0.125 -0.203125q-0.078125 0.0625 -0.3125 0.3125q-0.234375 0.234375 -0.65625 0.703125q-0.6875 0.65625 -0.953125 0.90625q-0.25 0.234375 -0.390625 0.234375z" fill-rule="nonzero"/><path fill="#980000" d="m453.01572 52.40666l8.205109 0c-0.90631104 0 -1.6410217 3.842537 -1.6410217 8.58255c0 4.7400093 0.7347107 8.582546 1.6410217 8.582546l-8.205109 0l0 0c-0.90631104 0 -1.6410217 -3.842537 -1.6410217 -8.582546c0 -4.740013 0.7347107 -8.58255 1.6410217 -8.58255z" fill-rule="evenodd"/><path stroke="#980000" stroke-width="1.0" stroke-linejoin="round" stroke-linecap="butt" d="m453.01572 52.40666l8.205109 0c-0.90631104 0 -1.6410217 3.842537 -1.6410217 8.58255c0 4.7400093 0.7347107 8.582546 1.6410217 8.582546l-8.205109 0l0 0c-0.90631104 0 -1.6410217 -3.842537 -1.6410217 -8.582546c0 -4.740013 0.7347107 -8.58255 1.6410217 -8.58255z" fill-rule="evenodd"/><path fill="#e6b8af" d="m458.24945 62.099415l0 0c0 -11.375183 9.118774 -20.596588 20.367401 -20.596588l0 0c5.401764 0 10.582306 2.1699905 14.4019165 6.0326004c3.819641 3.8626099 5.9654846 9.101433 5.9654846 14.563988l0 0c0 11.375187 -9.118805 20.596592 -20.367401 20.596592l0 0c-11.248627 0 -20.367401 -9.221405 -20.367401 -20.596592z" fill-rule="evenodd"/><path stroke="#980000" stroke-width="1.0" stroke-linejoin="round" stroke-linecap="butt" d="m458.24945 62.099415l0 0c0 -11.375183 9.118774 -20.596588 20.367401 -20.596588l0 0c5.401764 0 10.582306 2.1699905 14.4019165 6.0326004c3.819641 3.8626099 5.9654846 9.101433 5.9654846 14.563988l0 0c0 11.375187 -9.118805 20.596592 -20.367401 20.596592l0 0c-11.248627 0 -20.367401 -9.221405 -20.367401 -20.596592z" fill-rule="evenodd"/><path fill="#980000" d="m482.34192 44.91493l-7.595825 -3.038334l7.887207 -2.148941z" fill-rule="evenodd"/><path stroke="#980000" stroke-width="1.0" stroke-linejoin="round" stroke-linecap="butt" d="m482.34192 44.91493l-7.595825 -3.038334l7.887207 -2.148941z" fill-rule="evenodd"/><path fill="#000000" fill-opacity="0.0" d="m509.89218 45.32546l120.188995 0l0 35.559055l-120.188995 0z" fill-rule="evenodd"/><path fill="#434343" d="m518.8766 67.12546l3.65625 -9.546875l1.359375 0l3.90625 9.546875l-1.4375 0l-1.109375 -2.890625l-3.984375 0l-1.046875 2.890625l-1.34375 0zm2.75 -3.921875l3.234375 0l-1.0 -2.640625q-0.453125 -1.203125 -0.671875 -1.96875q-0.1875 0.90625 -0.515625 1.8125l-1.046875 2.796875zm11.545959 1.390625l1.15625 0.15625q-0.1875 1.1875 -0.96875 1.859375q-0.78125 0.671875 -1.921875 0.671875q-1.40625 0 -2.28125 -0.921875q-0.859375 -0.9375 -0.859375 -2.65625q0 -1.125 0.375 -1.96875q0.375 -0.84375 1.125 -1.25q0.765625 -0.421875 1.65625 -0.421875q1.125 0 1.84375 0.578125q0.71875 0.5625 0.921875 1.609375l-1.140625 0.171875q-0.171875 -0.703125 -0.59375 -1.046875q-0.40625 -0.359375 -0.984375 -0.359375q-0.890625 0 -1.453125 0.640625q-0.546875 0.640625 -0.546875 2.0q0 1.40625 0.53125 2.03125q0.546875 0.625 1.40625 0.625q0.6875 0 1.140625 -0.421875q0.46875 -0.421875 0.59375 -1.296875zm4.7109375 1.484375l0.171875 1.03125q-0.5 0.109375 -0.890625 0.109375q-0.640625 0 -1.0 -0.203125q-0.34375 -0.203125 -0.484375 -0.53125q-0.140625 -0.328125 -0.140625 -1.390625l0 -3.96875l-0.859375 0l0 -0.90625l0.859375 0l0 -1.71875l1.171875 -0.703125l0 2.421875l1.171875 0l0 0.90625l-1.171875 0l0 4.046875q0 0.5 0.046875 0.640625q0.0625 0.140625 0.203125 0.234375q0.140625 0.078125 0.40625 0.078125q0.203125 0 0.515625 -0.046875zm0.7030029 -2.40625q0 -1.921875 1.078125 -2.84375q0.890625 -0.765625 2.171875 -0.765625q1.421875 0 2.328125 0.9375q0.90625 0.921875 0.90625 2.578125q0 1.328125 -0.40625 2.09375q-0.390625 0.765625 -1.15625 1.1875q-0.765625 0.421875 -1.671875 0.421875q-1.453125 0 -2.359375 -0.921875q-0.890625 -0.9375 -0.890625 -2.6875zm1.203125 0q0 1.328125 0.578125 1.984375q0.59375 0.65625 1.46875 0.65625q0.875 0 1.453125 -0.65625q0.578125 -0.671875 0.578125 -2.03125q0 -1.28125 -0.59375 -1.9375q-0.578125 -0.65625 -1.4375 -0.65625q-0.875 0 -1.46875 0.65625q-0.578125 0.65625 -0.578125 1.984375zm6.6312256 3.453125l0 -6.90625l1.0625 0l0 1.046875q0.40625 -0.734375 0.734375 -0.96875q0.34375 -0.234375 0.765625 -0.234375q0.59375 0 1.203125 0.375l-0.40625 1.078125q-0.4375 -0.25 -0.859375 -0.25q-0.390625 0 -0.703125 0.234375q-0.296875 0.234375 -0.421875 0.640625q-0.203125 0.625 -0.203125 1.359375l0 3.625l-1.171875 0z" fill-rule="nonzero"/><path fill="#000000" fill-opacity="0.0" d="m509.89218 93.38845l120.188995 0l0 35.55906l-120.188995 0z" fill-rule="evenodd"/><path fill="#434343" d="m526.72034 111.8447l1.265625 0.3125q-0.390625 1.5625 -1.421875 2.375q-1.03125 0.8125 -2.53125 0.8125q-1.53125 0 -2.5 -0.625q-0.96875 -0.625 -1.484375 -1.8125q-0.5 -1.1875 -0.5 -2.5625q0 -1.484375 0.5625 -2.59375q0.578125 -1.109375 1.625 -1.6875q1.0625 -0.578125 2.328125 -0.578125q1.421875 0 2.390625 0.734375q0.984375 0.71875 1.375 2.046875l-1.25 0.296875q-0.328125 -1.046875 -0.96875 -1.515625q-0.625 -0.484375 -1.578125 -0.484375q-1.09375 0 -1.84375 0.53125q-0.734375 0.53125 -1.03125 1.421875q-0.296875 0.875 -0.296875 1.828125q0 1.21875 0.34375 2.125q0.359375 0.90625 1.109375 1.359375q0.75 0.4375 1.625 0.4375q1.0625 0 1.796875 -0.609375q0.734375 -0.609375 0.984375 -1.8125zm2.234497 -0.109375q0 -1.921875 1.078125 -2.84375q0.890625 -0.765625 2.171875 -0.765625q1.421875 0 2.328125 0.9375q0.90625 0.921875 0.90625 2.578125q0 1.328125 -0.40625 2.09375q-0.390625 0.765625 -1.15625 1.1875q-0.765625 0.421875 -1.671875 0.421875q-1.453125 0 -2.359375 -0.921875q-0.890625 -0.9375 -0.890625 -2.6875zm1.203125 0q0 1.328125 0.578125 1.984375q0.59375 0.65625 1.46875 0.65625q0.875 0 1.453125 -0.65625q0.578125 -0.671875 0.578125 -2.03125q0 -1.28125 -0.59375 -1.9375q-0.578125 -0.65625 -1.4375 -0.65625q-0.875 0 -1.46875 0.65625q-0.578125 0.65625 -0.578125 1.984375zm6.6468506 3.453125l0 -6.90625l1.0625 0l0 0.984375q0.75 -1.140625 2.1875 -1.140625q0.625 0 1.15625 0.21875q0.53125 0.21875 0.78125 0.59375q0.265625 0.359375 0.375 0.859375q0.0625 0.328125 0.0625 1.140625l0 4.25l-1.171875 0l0 -4.203125q0 -0.71875 -0.140625 -1.0625q-0.140625 -0.359375 -0.484375 -0.5625q-0.34375 -0.21875 -0.8125 -0.21875q-0.75 0 -1.296875 0.46875q-0.546875 0.46875 -0.546875 1.796875l0 3.78125l-1.171875 0zm9.974976 -1.046875l0.171875 1.03125q-0.5 0.109375 -0.890625 0.109375q-0.640625 0 -1.0 -0.203125q-0.34375 -0.203125 -0.484375 -0.53125q-0.140625 -0.328125 -0.140625 -1.390625l0 -3.96875l-0.859375 0l0 -0.90625l0.859375 0l0 -1.71875l1.171875 -0.703125l0 2.421875l1.171875 0l0 0.90625l-1.171875 0l0 4.046875q0 0.5 0.046875 0.640625q0.0625 0.140625 0.203125 0.234375q0.140625 0.078125 0.40625 0.078125q0.203125 0 0.515625 -0.046875zm5.874878 -1.171875l1.203125 0.140625q-0.28125 1.0625 -1.0625 1.65625q-0.765625 0.578125 -1.96875 0.578125q-1.515625 0 -2.40625 -0.9375q-0.890625 -0.9375 -0.890625 -2.609375q0 -1.75 0.890625 -2.703125q0.90625 -0.96875 2.34375 -0.96875q1.390625 0 2.265625 0.9375q0.875 0.9375 0.875 2.65625q0 0.109375 0 0.3125l-5.15625 0q0.0625 1.140625 0.640625 1.75q0.578125 0.59375 1.4375 0.59375q0.65625 0 1.109375 -0.328125q0.453125 -0.34375 0.71875 -1.078125zm-3.84375 -1.90625l3.859375 0q-0.078125 -0.859375 -0.4375 -1.296875q-0.5625 -0.6875 -1.453125 -0.6875q-0.8125 0 -1.359375 0.546875q-0.546875 0.53125 -0.609375 1.4375zm5.7406006 4.125l2.53125 -3.59375l-2.34375 -3.3125l1.46875 0l1.0625 1.609375q0.296875 0.46875 0.484375 0.78125q0.28125 -0.4375 0.515625 -0.765625l1.171875 -1.625l1.40625 0l-2.390625 3.25l2.5625 3.65625l-1.4375 0l-1.421875 -2.140625l-0.375 -0.59375l-1.8125 2.734375l-1.421875 0zm10.0078125 -1.046875l0.171875 1.03125q-0.5 0.109375 -0.890625 0.109375q-0.640625 0 -1.0 -0.203125q-0.34375 -0.203125 -0.484375 -0.53125q-0.140625 -0.328125 -0.140625 -1.390625l0 -3.96875l-0.859375 0l0 -0.90625l0.859375 0l0 -1.71875l1.171875 -0.703125l0 2.421875l1.171875 0l0 0.90625l-1.171875 0l0 4.046875q0 0.5 0.046875 0.640625q0.0625 0.140625 0.203125 0.234375q0.140625 0.078125 0.40625 0.078125q0.203125 0 0.515625 -0.046875z" fill-rule="nonzero"/><path fill="#000000" fill-opacity="0.0" d="m456.30063 159.231l44.629913 0" fill-rule="evenodd"/><path stroke="#38761d" stroke-width="1.0" stroke-linejoin="round" stroke-linecap="butt" d="m456.3006 159.231l41.20285 0" fill-rule="evenodd"/><path fill="#38761d" stroke="#38761d" stroke-width="1.0" stroke-linecap="butt" d="m497.50345 159.231l-1.1246033 1.124588l3.0897827 -1.124588l-3.0897827 -1.124588z" fill-rule="evenodd"/><path fill="#000000" fill-opacity="0.0" d="m509.8924 141.45276l120.188965 0l0 35.55905l-120.188965 0z" fill-rule="evenodd"/><path fill="#434343" d="m519.92365 163.25276l0 -9.546875l3.28125 0q1.109375 0 1.703125 0.140625q0.8125 0.1875 1.390625 0.6875q0.765625 0.640625 1.140625 1.640625q0.375 0.984375 0.375 2.25q0 1.09375 -0.265625 1.9375q-0.25 0.828125 -0.65625 1.390625q-0.390625 0.546875 -0.859375 0.859375q-0.46875 0.3125 -1.140625 0.484375q-0.65625 0.15625 -1.53125 0.15625l-3.4375 0zm1.265625 -1.125l2.03125 0q0.9375 0 1.46875 -0.171875q0.546875 -0.1875 0.875 -0.5q0.4375 -0.453125 0.6875 -1.203125q0.25 -0.765625 0.25 -1.84375q0 -1.5 -0.5 -2.296875q-0.484375 -0.8125 -1.1875 -1.078125q-0.5 -0.203125 -1.625 -0.203125l-2.0 0l0 7.296875zm8.218872 -7.0625l0 -1.359375l1.171875 0l0 1.359375l-1.171875 0zm0 8.1875l0 -6.90625l1.171875 0l0 6.90625l-1.171875 0zm2.4767456 -2.0625l1.15625 -0.1875q0.109375 0.703125 0.546875 1.078125q0.453125 0.359375 1.25 0.359375q0.8125 0 1.203125 -0.328125q0.390625 -0.328125 0.390625 -0.765625q0 -0.390625 -0.359375 -0.625q-0.234375 -0.15625 -1.1875 -0.390625q-1.296875 -0.328125 -1.796875 -0.5625q-0.484375 -0.25 -0.75 -0.65625q-0.25 -0.421875 -0.25 -0.9375q0 -0.453125 0.203125 -0.84375q0.21875 -0.40625 0.578125 -0.671875q0.28125 -0.1875 0.75 -0.328125q0.46875 -0.140625 1.015625 -0.140625q0.8125 0 1.421875 0.234375q0.609375 0.234375 0.90625 0.640625q0.296875 0.390625 0.40625 1.0625l-1.140625 0.15625q-0.078125 -0.53125 -0.453125 -0.828125q-0.375 -0.3125 -1.0625 -0.3125q-0.8125 0 -1.15625 0.265625q-0.34375 0.265625 -0.34375 0.625q0 0.234375 0.140625 0.421875q0.15625 0.1875 0.453125 0.3125q0.171875 0.0625 1.03125 0.296875q1.25 0.328125 1.734375 0.546875q0.5 0.203125 0.78125 0.609375q0.28125 0.40625 0.28125 1.0q0 0.59375 -0.34375 1.109375q-0.34375 0.515625 -1.0 0.796875q-0.640625 0.28125 -1.453125 0.28125q-1.34375 0 -2.046875 -0.5625q-0.703125 -0.5625 -0.90625 -1.65625zm7.1328125 4.71875l0 -9.5625l1.078125 0l0 0.890625q0.375 -0.53125 0.84375 -0.78125q0.484375 -0.265625 1.15625 -0.265625q0.875 0 1.546875 0.453125q0.6875 0.453125 1.03125 1.28125q0.34375 0.828125 0.34375 1.828125q0 1.046875 -0.375 1.90625q-0.375 0.84375 -1.109375 1.296875q-0.71875 0.453125 -1.53125 0.453125q-0.578125 0 -1.046875 -0.25q-0.46875 -0.25 -0.765625 -0.625l0 3.375l-1.171875 0zm1.0625 -6.078125q0 1.34375 0.53125 1.984375q0.546875 0.625 1.3125 0.625q0.78125 0 1.34375 -0.65625q0.5625 -0.65625 0.5625 -2.046875q0 -1.3125 -0.546875 -1.96875q-0.546875 -0.671875 -1.296875 -0.671875q-0.75 0 -1.328125 0.703125q-0.578125 0.703125 -0.578125 2.03125zm10.865601 2.5625q-0.65625 0.5625 -1.265625 0.796875q-0.59375 0.21875 -1.28125 0.21875q-1.140625 0 -1.75 -0.546875q-0.609375 -0.5625 -0.609375 -1.4375q0 -0.5 0.21875 -0.921875q0.234375 -0.421875 0.609375 -0.671875q0.375 -0.25 0.84375 -0.390625q0.34375 -0.078125 1.046875 -0.171875q1.421875 -0.171875 2.09375 -0.40625q0 -0.234375 0 -0.296875q0 -0.71875 -0.328125 -1.015625q-0.453125 -0.390625 -1.34375 -0.390625q-0.8125 0 -1.21875 0.296875q-0.390625 0.28125 -0.578125 1.015625l-1.140625 -0.15625q0.15625 -0.734375 0.515625 -1.1875q0.359375 -0.453125 1.03125 -0.6875q0.671875 -0.25 1.5625 -0.25q0.890625 0 1.4375 0.203125q0.5625 0.203125 0.8125 0.53125q0.265625 0.3125 0.375 0.796875q0.046875 0.296875 0.046875 1.078125l0 1.5625q0 1.625 0.078125 2.0625q0.078125 0.4375 0.296875 0.828125l-1.21875 0q-0.1875 -0.359375 -0.234375 -0.859375zm-0.09375 -2.609375q-0.640625 0.265625 -1.921875 0.4375q-0.71875 0.109375 -1.015625 0.25q-0.296875 0.125 -0.46875 0.375q-0.15625 0.25 -0.15625 0.546875q0 0.46875 0.34375 0.78125q0.359375 0.3125 1.046875 0.3125q0.671875 0 1.203125 -0.296875q0.53125 -0.296875 0.78125 -0.8125q0.1875 -0.390625 0.1875 -1.171875l0 -0.421875zm5.5531006 2.421875l0.171875 1.03125q-0.5 0.109375 -0.890625 0.109375q-0.640625 0 -1.0 -0.203125q-0.34375 -0.203125 -0.484375 -0.53125q-0.140625 -0.328125 -0.140625 -1.390625l0 -3.96875l-0.859375 0l0 -0.90625l0.859375 0l0 -1.71875l1.171875 -0.703125l0 2.421875l1.171875 0l0 0.90625l-1.171875 0l0 4.046875q0 0.5 0.046875 0.640625q0.0625 0.140625 0.203125 0.234375q0.140625 0.078125 0.40625 0.078125q0.203125 0 0.515625 -0.046875zm5.656128 -1.484375l1.15625 0.15625q-0.1875 1.1875 -0.96875 1.859375q-0.78125 0.671875 -1.921875 0.671875q-1.40625 0 -2.28125 -0.921875q-0.859375 -0.9375 -0.859375 -2.65625q0 -1.125 0.375 -1.96875q0.375 -0.84375 1.125 -1.25q0.765625 -0.421875 1.65625 -0.421875q1.125 0 1.84375 0.578125q0.71875 0.5625 0.921875 1.609375l-1.140625 0.171875q-0.171875 -0.703125 -0.59375 -1.046875q-0.40625 -0.359375 -0.984375 -0.359375q-0.890625 0 -1.453125 0.640625q-0.546875 0.640625 -0.546875 2.0q0 1.40625 0.53125 2.03125q0.546875 0.625 1.40625 0.625q0.6875 0 1.140625 -0.421875q0.46875 -0.421875 0.59375 -1.296875zm2.1484375 2.53125l0 -9.546875l1.171875 0l0 3.421875q0.828125 -0.9375 2.078125 -0.9375q0.765625 0 1.328125 0.296875q0.5625 0.296875 0.8125 0.84375q0.25 0.53125 0.25 1.546875l0 4.375l-1.171875 0l0 -4.375q0 -0.890625 -0.390625 -1.28125q-0.375 -0.40625 -1.078125 -0.40625q-0.515625 0 -0.984375 0.28125q-0.453125 0.265625 -0.65625 0.734375q-0.1875 0.453125 -0.1875 1.265625l0 3.78125l-1.171875 0z" fill-rule="nonzero"/></g></svg>