<svg version="1.1" viewBox="0.0 0.0 681.0708661417323 221.26771653543307" fill="none" stroke="none" stroke-linecap="square" stroke-miterlimit="10" xmlns:xlink="http://www.w3.org/1999/xlink" xmlns="http://www.w3.org/2000/svg"><clipPath id="p.0"><path d="m0 0l681.07086 0l0 221.26772l-681.07086 0l0 -221.26772z" clip-rule="nonzero"/></clipPath><g clip-path="url(#p.0)"><path fill="#000000" fill-opacity="0.0" d="m0 0l681.07086 0l0 221.26772l-681.07086 0z" fill-rule="evenodd"/><path fill="#e6b8af" d="m30.377953 118.961945l0 0c0 -23.439491 19.001457 -42.44095 42.44095 -42.44095l0 0c11.256035 0 22.051056 4.471443 30.010277 12.430664c7.959221 7.959221 12.430664 18.754242 12.430664 30.010284l0 0c0 23.439484 -19.001457 42.44095 -42.44094 42.44095l0 0c-23.439491 0 -42.44095 -19.001465 -42.44095 -42.44095z" fill-rule="evenodd"/><path stroke="#980000" stroke-width="1.0" stroke-linejoin="round" stroke-linecap="butt" d="m30.377953 118.961945l0 0c0 -23.439491 19.001457 -42.44095 42.44095 -42.44095l0 0c11.256035 0 22.051056 4.471443 30.010277 12.430664c7.959221 7.959221 12.430664 18.754242 12.430664 30.010284l0 0c0 23.439484 -19.001457 42.44095 -42.44094 42.44095l0 0c-23.439491 0 -42.44095 -19.001465 -42.44095 -42.44095z" fill-rule="evenodd"/><path fill="#000000" d="m64.85329 131.13382q-0.796875 -0.34375 -1.3593788 -0.828125q-0.546875 -0.484375 -0.609375 -0.8125q0.03125 -0.265625 0.140625 -0.390625q0.125 -0.140625 0.640625 -0.125q0.5156288 0.015625 1.6562538 0.21875q0.390625 0 0.90625 -0.046875q0.53125 -0.046875 0.96875 -0.15625q0.453125 -0.125 0.59375 -0.296875q0.15625 -0.03125 0.0625 -0.140625q-0.09375 -0.125 -0.234375 -0.265625q-0.125 -0.03125 -0.296875 -0.125q-0.171875 -0.109375 -0.296875 -0.109375q-0.03125 -0.15625763 -0.328125 -0.35938263q-0.28125 -0.203125 -0.578125 -0.359375q-0.734375 -0.609375 -1.296875 -1.078125q-0.5625 -0.46875 -0.4375 -0.65625q0 -0.140625 0 -0.15625q0 -0.015625 0 -0.015625q-0.234375 0 -0.4843788 -0.65625q-0.25 -0.671875 -0.25 -1.21875q0 -0.453125 0.25 -1.078125q0.2500038 -0.640625 0.6718788 -1.296875q0.421875 -0.65625 0.84375 -1.078125q0.640625 -0.609375 1.46875 -1.21875q0.828125 -0.625 1.6875 -1.125q0.875 -0.5 1.640625 -0.6875q0.546875 -0.203125 1.09375 -0.203125q0.546875 0 0.90625 0.203125q0.3125 0.0625 0.625 0.359375q0.3125 0.296875 0.59375 0.65625q0.28125 0.34375 0.390625 0.640625q0 0.40625 -0.0625 0.921875q-0.046875 0.515625 -0.140625 0.90625q-0.09375 0.375 -0.328125 0.375q0 0 -0.09375 0.015625q-0.078125 0.015625 -0.078125 0.1875q0 0.328125 -0.5 0.765625q-0.640625 0.4375 -1.140625 0.59375q-0.5 0.140625 -0.65625 -0.234375q-0.140625 -0.125 -0.203125 -0.234375q-0.0625 -0.125 -0.203125 -0.1875q0 0 -0.109375 -0.109375q-0.09375 -0.125 -0.09375 -0.328125q0 -0.140625 0.09375 -0.25q0.109375 -0.125 0.109375 -0.125q0.265625 -0.125 0.53125 -0.5q0.265625 -0.390625 0.4375 -0.765625q0.171875 -0.390625 0.171875 -0.5625q0 -0.203125 -0.0625 -0.25q-0.046875 -0.046875 -0.3125 -0.046875q-0.359375 0.125 -1.0 0.453125q-0.625 0.3125 -1.21875 0.65625q-0.578125 0.328125 -0.875 0.625q-0.140625 0.234375 -0.171875 0.28125q-0.03125 0.046875 -0.15625 0.046875q0 -0.125 -0.203125 0.09375q-0.203125 0.203125 -0.5 0.609375q-0.296875 0.390625 -0.578125 0.78125q-0.265625 0.390625 -0.390625 0.578125q-0.03125 0.140625 -0.140625 0.4375q-0.09375 0.296875 -0.09375 0.5625q-0.0625 0.375 0.140625 0.578125q0.21875 0.1875 0.796875 0.65625q1.15625 0.875 1.78125 1.421875q0.640625 0.546875 0.9375 0.90625q0.3125 0.34375 0.375 0.6406326q0.59375 1.0 0.296875 1.609375q-0.296875 0.59375 -1.1875 0.984375q-0.34375 0.171875 -1.140625 0.28125q-0.796875 0.125 -1.640625 0.140625q-0.828125 0.015625 -1.359375 -0.109375zm15.667984 -0.671875q-0.234375 0 -0.75 -0.203125q-0.515625 -0.203125 -1.109375 -0.5q-0.578125 -0.296875 -0.90625 -0.59375q-0.875 -0.765625 -1.375 -1.8281326q-0.5 -1.078125 -0.671875 -2.25q-0.15625 -1.1875 0.015625 -2.25q0.359375 -2.140625 1.578125 -4.234375q1.21875 -2.109375 2.8125 -3.46875q0.875 -0.765625 1.640625 -1.21875q0.765625 -0.453125 1.765625 -0.6875q0.359375 -0.09375 0.875 -0.109375q0.515625 -0.015625 0.75 -0.015625q0.671875 0 1.390625 0.265625q0.71875 0.265625 1.21875 0.65625q0.5 0.375 0.5 0.703125q0 0.234375 -0.046875 0.390625q-0.03125 0.140625 -0.296875 0.015625l-0.328125 0l0.328125 1.0q0.140625 0.265625 0.234375 0.71875q0.109375 0.4375 0.109375 0.8125q0 0.296875 -0.09375 0.953125q-0.078125 0.640625 -0.25 1.375q-0.15625 0.734375 -0.328125 1.375q-0.171875 0.625 -0.296875 0.921875q-0.109375 0.203125 -0.125 0.390625q-0.015625 0.1875 -0.015625 0.3125q-0.125 0.234375 -0.421875 0.90625q-0.28125 0.65625 -0.40625 0.9375q-0.140625 0.125 -0.21875 0.234375q-0.078125 0.09375 0.046875 0.21875q0 0.109375 -0.171875 0.46875q-0.15625 0.34375 -0.34375 0.640625q-0.1875 0.296875 -0.28125 0.296875q0 0 -0.09375 0.015625q-0.078125 0.015625 -0.078125 0.125q0 0.125 -0.4375 0.671875q-0.421875 0.5468826 -1.015625 1.1562576q-0.34375 0.328125 -0.984375 0.765625q-0.625 0.4375 -1.25 0.734375q-0.609375 0.296875 -0.96875 0.296875zm-0.0625 -2.4687576q0.359375 0 0.6875 -0.109375q0.34375 -0.125 0.578125 -0.359375q0.59375 -0.390625 1.3125 -1.21875q0.71875 -0.84375 1.078125 -1.703125q0.375 -0.5 0.578125 -1.046875q0.21875 -0.5625 0.6875 -1.890625q0.265625 -0.375 0.359375 -0.90625q0.109375 -0.53125 0.109375 -0.890625q0 -0.375 0.015625 -1.0q0.015625 -0.640625 0.15625 -1.078125q0 -0.859375 -0.046875 -1.09375q-0.03125 -0.234375 -0.25 -0.5q-0.140625 -0.09375 -0.359375 -0.1875q-0.21875 -0.109375 -0.453125 -0.109375q-0.234375 0 -0.78125 0.203125q-0.546875 0.1875 -0.8125 0.359375q-0.234375 0.140625 -0.515625 0.046875q-0.28125 -0.109375 -0.28125 -0.28125q0 -0.46875 -0.5625 -0.03125q-0.546875 0.4375 -1.28125 1.328125q-0.59375 0.609375 -1.015625 1.234375q-0.40625 0.609375 -0.40625 0.734375q0 0.140625 -0.109375 0.34375q-0.09375 0.1875 -0.1875 0.453125q-0.171875 0.234375 -0.40625 0.78125q-0.234375 0.53125 -0.453125 1.046875q-0.21875 0.515625 -0.28125 0.78125q0 0.125 0 0.71875q0 0.578125 0 1.078125q0 0.5625 0.03125 0.921875q0.03125 0.34375 0.125 0.59375q0.109375 0.25 0.28125 0.578125q0.125 0.234375 0.40625 0.5625q0.296875 0.3125 0.390625 0.4375q0.359375 0.34375763 0.5625 0.34375763q0.203125 0 0.84375 -0.14063263z" fill-rule="nonzero"/><path fill="#ffe599" d="m0 -0.001312336l201.22835 0l0 33.6063l-201.22835 0z" fill-rule="evenodd"/><path stroke="#f1c232" stroke-width="1.0" stroke-linejoin="round" stroke-linecap="butt" d="m0 -0.001312336l201.22835 0l0 33.6063l-201.22835 0z" fill-rule="evenodd"/><path fill="#000000" d="m20.5625 22.284336q1.234375 0.859375 2.265625 1.25l-0.515625 1.21875q-1.4375 -0.515625 -2.875 -1.625q-1.484375 0.828125 -3.28125 0.828125q-1.8125 0 -3.296875 -0.875q-1.46875 -0.875 -2.265625 -2.453125q-0.796875 -1.59375 -0.796875 -3.578125q0 -1.984375 0.796875 -3.59375q0.8125 -1.625 2.28125 -2.46875q1.484375 -0.859375 3.328125 -0.859375q1.84375 0 3.328125 0.890625q1.484375 0.875 2.265625 2.453125q0.78125 1.578125 0.78125 3.5625q0 1.65625 -0.5 2.96875q-0.5 1.3125 -1.515625 2.28125zm-3.890625 -2.25q1.53125 0.421875 2.515625 1.28125q1.5625 -1.421875 1.5625 -4.28125q0 -1.625 -0.546875 -2.828125q-0.546875 -1.21875 -1.609375 -1.875q-1.0625 -0.671875 -2.390625 -0.671875q-1.96875 0 -3.28125 1.359375q-1.296875 1.34375 -1.296875 4.03125q0 2.59375 1.28125 4.0q1.296875 1.390625 3.296875 1.390625q0.953125 0 1.78125 -0.359375q-0.828125 -0.53125 -1.75 -0.765625l0.4375 -1.28125zm6.808304 3.6875l5.125 -13.359375l1.90625 0l5.46875 13.359375l-2.015625 0l-1.546875 -4.046875l-5.59375 0l-1.46875 4.046875l-1.875 0zm3.859375 -5.484375l4.53125 0l-1.40625 -3.703125q-0.625 -1.6875 -0.9375 -2.765625q-0.265625 1.28125 -0.71875 2.546875l-1.46875 3.921875zm16.162323 1.9375l1.609375 0.21875q-0.265625 1.65625 -1.359375 2.609375q-1.078125 0.9375 -2.671875 0.9375q-1.984375 0 -3.1875 -1.296875q-1.203125 -1.296875 -1.203125 -3.71875q0 -1.578125 0.515625 -2.75q0.515625 -1.171875 1.578125 -1.75q1.0625 -0.59375 2.3125 -0.59375q1.578125 0 2.578125 0.796875q1.0 0.796875 1.28125 2.265625l-1.59375 0.234375q-0.234375 -0.96875 -0.8125 -1.453125q-0.578125 -0.5 -1.390625 -0.5q-1.234375 0 -2.015625 0.890625q-0.78125 0.890625 -0.78125 2.8125q0 1.953125 0.75 2.84375q0.75 0.875 1.953125 0.875q0.96875 0 1.609375 -0.59375q0.65625 -0.59375 0.828125 -1.828125zm6.59375 2.078125l0.234375 1.453125q-0.6875 0.140625 -1.234375 0.140625q-0.890625 0 -1.390625 -0.28125q-0.484375 -0.28125 -0.6875 -0.734375q-0.203125 -0.46875 -0.203125 -1.9375l0 -5.578125l-1.203125 0l0 -1.265625l1.203125 0l0 -2.390625l1.625 -0.984375l0 3.375l1.65625 0l0 1.265625l-1.65625 0l0 5.671875q0 0.6875 0.078125 0.890625q0.09375 0.203125 0.28125 0.328125q0.203125 0.109375 0.578125 0.109375q0.265625 0 0.71875 -0.0625zm0.99580383 -3.375q0 -2.6875 1.484375 -3.96875q1.25 -1.078125 3.046875 -1.078125q2.0 0 3.265625 1.3125q1.265625 1.296875 1.265625 3.609375q0 1.859375 -0.5625 2.9375q-0.5625 1.0625 -1.640625 1.65625q-1.0625 0.59375 -2.328125 0.59375q-2.03125 0 -3.28125 -1.296875q-1.25 -1.3125 -1.25 -3.765625zm1.6875 0q0 1.859375 0.796875 2.796875q0.8125 0.921875 2.046875 0.921875q1.21875 0 2.03125 -0.921875q0.8125 -0.9375 0.8125 -2.84375q0 -1.796875 -0.8125 -2.71875q-0.8125 -0.921875 -2.03125 -0.921875q-1.234375 0 -2.046875 0.921875q-0.796875 0.90625 -0.796875 2.765625zm9.281967 4.84375l0 -9.671875l1.46875 0l0 1.46875q0.5625 -1.03125 1.03125 -1.359375q0.484375 -0.328125 1.0625 -0.328125q0.828125 0 1.6875 0.53125l-0.5625 1.515625q-0.609375 -0.359375 -1.203125 -0.359375q-0.546875 0 -0.96875 0.328125q-0.421875 0.328125 -0.609375 0.890625q-0.28125 0.875 -0.28125 1.921875l0 5.0625l-1.625 0zm11.802231 0l0 -8.40625l-1.453125 0l0 -1.265625l1.453125 0l0 -1.03125q0 -0.96875 0.171875 -1.453125q0.234375 -0.640625 0.828125 -1.03125q0.59375 -0.390625 1.671875 -0.390625q0.6875 0 1.53125 0.15625l-0.25 1.4375q-0.5 -0.09375 -0.953125 -0.09375q-0.75 0 -1.0625 0.328125q-0.3125 0.3125 -0.3125 1.1875l0 0.890625l1.890625 0l0 1.265625l-1.890625 0l0 8.40625l-1.625 0zm4.183304 -4.84375q0 -2.6875 1.484375 -3.96875q1.25 -1.078125 3.046875 -1.078125q2.0 0 3.265625 1.3125q1.265625 1.296875 1.265625 3.609375q0 1.859375 -0.5625 2.9375q-0.5625 1.0625 -1.640625 1.65625q-1.0625 0.59375 -2.328125 0.59375q-2.03125 0 -3.28125 -1.296875q-1.25 -1.3125 -1.25 -3.765625zm1.6875 0q0 1.859375 0.796875 2.796875q0.8125 0.921875 2.046875 0.921875q1.21875 0 2.03125 -0.921875q0.8125 -0.9375 0.8125 -2.84375q0 -1.796875 -0.8125 -2.71875q-0.8125 -0.921875 -2.03125 -0.921875q-1.234375 0 -2.046875 0.921875q-0.796875 0.90625 -0.796875 2.765625zm8.688217 0q0 -2.6875 1.484375 -3.96875q1.25 -1.078125 3.046875 -1.078125q2.0 0 3.265625 1.3125q1.265625 1.296875 1.265625 3.609375q0 1.859375 -0.5625 2.9375q-0.5625 1.0625 -1.640625 1.65625q-1.0625 0.59375 -2.328125 0.59375q-2.03125 0 -3.28125 -1.296875q-1.25 -1.3125 -1.25 -3.765625zm1.6875 0q0 1.859375 0.796875 2.796875q0.8125 0.921875 2.046875 0.921875q1.21875 0 2.03125 -0.921875q0.8125 -0.9375 0.8125 -2.84375q0 -1.796875 -0.8125 -2.71875q-0.8125 -0.921875 -2.03125 -0.921875q-1.234375 0 -2.046875 0.921875q-0.796875 0.90625 -0.796875 2.765625zm15.563217 4.84375l0 -1.21875q-0.90625 1.4375 -2.703125 1.4375q-1.15625 0 -2.125 -0.640625q-0.96875 -0.640625 -1.5 -1.78125q-0.53125 -1.140625 -0.53125 -2.625q0 -1.453125 0.484375 -2.625q0.484375 -1.1875 1.4375 -1.8125q0.96875 -0.625 2.171875 -0.625q0.875 0 1.546875 0.375q0.6875 0.359375 1.109375 0.953125l0 -4.796875l1.640625 0l0 13.359375l-1.53125 0zm-5.171875 -4.828125q0 1.859375 0.78125 2.78125q0.78125 0.921875 1.84375 0.921875q1.078125 0 1.828125 -0.875q0.75 -0.890625 0.75 -2.6875q0 -1.984375 -0.765625 -2.90625q-0.765625 -0.9375 -1.890625 -0.9375q-1.078125 0 -1.8125 0.890625q-0.734375 0.890625 -0.734375 2.8125zm15.594467 1.28125l1.609375 0.21875q-0.265625 1.65625 -1.359375 2.609375q-1.078125 0.9375 -2.671875 0.9375q-1.984375 0 -3.1875 -1.296875q-1.203125 -1.296875 -1.203125 -3.71875q0 -1.578125 0.515625 -2.75q0.515625 -1.171875 1.578125 -1.75q1.0625 -0.59375 2.3125 -0.59375q1.578125 0 2.578125 0.796875q1.0 0.796875 1.28125 2.265625l-1.59375 0.234375q-0.234375 -0.96875 -0.8125 -1.453125q-0.578125 -0.5 -1.390625 -0.5q-1.234375 0 -2.015625 0.890625q-0.78125 0.890625 -0.78125 2.8125q0 1.953125 0.75 2.84375q0.75 0.875 1.953125 0.875q0.96875 0 1.609375 -0.59375q0.65625 -0.59375 0.828125 -1.828125zm2.40625 -1.296875q0 -2.6875 1.484375 -3.96875q1.25 -1.078125 3.046875 -1.078125q2.0 0 3.265625 1.3125q1.265625 1.296875 1.265625 3.609375q0 1.859375 -0.5625 2.9375q-0.5625 1.0625 -1.640625 1.65625q-1.0625 0.59375 -2.328125 0.59375q-2.03125 0 -3.28125 -1.296875q-1.25 -1.3125 -1.25 -3.765625zm1.6875 0q0 1.859375 0.796875 2.796875q0.8125 0.921875 2.046875 0.921875q1.21875 0 2.03125 -0.921875q0.8125 -0.9375 0.8125 -2.84375q0 -1.796875 -0.8125 -2.71875q-0.8125 -0.921875 -2.03125 -0.921875q-1.234375 0 -2.046875 0.921875q-0.796875 0.90625 -0.796875 2.765625zm9.297592 4.84375l0 -9.671875l1.46875 0l0 1.375q1.0625 -1.59375 3.078125 -1.59375q0.875 0 1.609375 0.3125q0.734375 0.3125 1.09375 0.828125q0.375 0.5 0.515625 1.203125q0.09375 0.453125 0.09375 1.59375l0 5.953125l-1.640625 0l0 -5.890625q0 -1.0 -0.203125 -1.484375q-0.1875 -0.5 -0.671875 -0.796875q-0.484375 -0.296875 -1.140625 -0.296875q-1.046875 0 -1.8125 0.671875q-0.75 0.65625 -0.75 2.515625l0 5.28125l-1.640625 0zm9.719467 -2.890625l1.625 -0.25q0.125 0.96875 0.75 1.5q0.625 0.515625 1.75 0.515625q1.125 0 1.671875 -0.453125q0.546875 -0.46875 0.546875 -1.09375q0 -0.546875 -0.484375 -0.875q-0.328125 -0.21875 -1.671875 -0.546875q-1.8125 -0.46875 -2.515625 -0.796875q-0.6875 -0.328125 -1.046875 -0.90625q-0.359375 -0.59375 -0.359375 -1.3125q0 -0.640625 0.296875 -1.1875q0.296875 -0.5625 0.8125 -0.921875q0.375 -0.28125 1.03125 -0.46875q0.671875 -0.203125 1.421875 -0.203125q1.140625 0 2.0 0.328125q0.859375 0.328125 1.265625 0.890625q0.421875 0.5625 0.578125 1.5l-1.609375 0.21875q-0.109375 -0.75 -0.640625 -1.171875q-0.515625 -0.421875 -1.46875 -0.421875q-1.140625 0 -1.625 0.375q-0.46875 0.375 -0.46875 0.875q0 0.3125 0.1875 0.578125q0.203125 0.265625 0.640625 0.4375q0.234375 0.09375 1.4375 0.421875q1.75 0.453125 2.4375 0.75q0.6875 0.296875 1.078125 0.859375q0.390625 0.5625 0.390625 1.40625q0 0.828125 -0.484375 1.546875q-0.46875 0.71875 -1.375 1.125q-0.90625 0.390625 -2.046875 0.390625q-1.875 0 -2.875 -0.78125q-0.984375 -0.78125 -1.25 -2.328125zm16.3125 2.890625l0 -1.421875q-1.125 1.640625 -3.0625 1.640625q-0.859375 0 -1.609375 -0.328125q-0.734375 -0.328125 -1.09375 -0.828125q-0.359375 -0.5 -0.5 -1.21875q-0.109375 -0.46875 -0.109375 -1.53125l0 -5.984375l1.640625 0l0 5.359375q0 1.28125 0.109375 1.734375q0.15625 0.640625 0.65625 1.015625q0.5 0.375 1.234375 0.375q0.734375 0 1.375 -0.375q0.65625 -0.390625 0.921875 -1.03125q0.265625 -0.65625 0.265625 -1.890625l0 -5.1875l1.640625 0l0 9.671875l-1.46875 0zm4.047592 0l0 -9.671875l1.46875 0l0 1.359375q0.453125 -0.71875 1.203125 -1.140625q0.765625 -0.4375 1.71875 -0.4375q1.078125 0 1.765625 0.453125q0.6875 0.4375 0.96875 1.234375q1.15625 -1.6875 2.984375 -1.6875q1.453125 0 2.21875 0.796875q0.78125 0.796875 0.78125 2.453125l0 6.640625l-1.640625 0l0 -6.09375q0 -0.984375 -0.15625 -1.40625q-0.15625 -0.4375 -0.578125 -0.703125q-0.421875 -0.265625 -0.984375 -0.265625q-1.015625 0 -1.6875 0.6875q-0.671875 0.671875 -0.671875 2.15625l0 5.625l-1.640625 0l0 -6.28125q0 -1.09375 -0.40625 -1.640625q-0.40625 -0.546875 -1.3125 -0.546875q-0.6875 0 -1.28125 0.359375q-0.59375 0.359375 -0.859375 1.0625q-0.25 0.703125 -0.25 2.03125l0 5.015625l-1.640625 0zm22.165802 -3.109375l1.6875 0.203125q-0.40625 1.484375 -1.484375 2.3125q-1.078125 0.8125 -2.765625 0.8125q-2.125 0 -3.375 -1.296875q-1.234375 -1.3125 -1.234375 -3.671875q0 -2.453125 1.25 -3.796875q1.265625 -1.34375 3.265625 -1.34375q1.9375 0 3.15625 1.328125q1.234375 1.3125 1.234375 3.703125q0 0.15625 0 0.4375l-7.21875 0q0.09375 1.59375 0.90625 2.453125q0.8125 0.84375 2.015625 0.84375q0.90625 0 1.546875 -0.46875q0.640625 -0.484375 1.015625 -1.515625zm-5.390625 -2.65625l5.40625 0q-0.109375 -1.21875 -0.625 -1.828125q-0.78125 -0.953125 -2.03125 -0.953125q-1.125 0 -1.90625 0.765625q-0.765625 0.75 -0.84375 2.015625zm9.125717 5.765625l0 -9.671875l1.46875 0l0 1.46875q0.5625 -1.03125 1.03125 -1.359375q0.484375 -0.328125 1.0625 -0.328125q0.828125 0 1.6875 0.53125l-0.5625 1.515625q-0.609375 -0.359375 -1.203125 -0.359375q-0.546875 0 -0.96875 0.328125q-0.421875 0.328125 -0.609375 0.890625q-0.28125 0.875 -0.28125 1.921875l0 5.0625l-1.625 0z" fill-rule="nonzero"/><path fill="#d9ead3" d="m152.5958 118.961945l0 0c0 -23.439491 19.001465 -42.44095 42.44095 -42.44095l0 0c11.2560425 0 22.051056 4.471443 30.010284 12.430664c7.9592133 7.959221 12.430664 18.754242 12.430664 30.010284l0 0c0 23.439484 -19.001465 42.44095 -42.44095 42.44095l0 0c-23.439484 0 -42.44095 -19.001465 -42.44095 -42.44095z" fill-rule="evenodd"/><path stroke="#073763" stroke-width="1.0" stroke-linejoin="round" stroke-linecap="butt" d="m152.5958 118.961945l0 0c0 -23.439491 19.001465 -42.44095 42.44095 -42.44095l0 0c11.2560425 0 22.051056 4.471443 30.010284 12.430664c7.9592133 7.959221 12.430664 18.754242 12.430664 30.010284l0 0c0 23.439484 -19.001465 42.44095 -42.44095 42.44095l0 0c-23.439484 0 -42.44095 -19.001465 -42.44095 -42.44095z" fill-rule="evenodd"/><path fill="#000000" d="m187.07114 125.63381q-0.796875 -0.34375 -1.359375 -0.828125q-0.546875 -0.484375 -0.609375 -0.8125q0.03125 -0.265625 0.140625 -0.390625q0.125 -0.140625 0.640625 -0.125q0.515625 0.015625 1.65625 0.21875q0.390625 0 0.90625 -0.046875q0.53125 -0.046875 0.96875 -0.15625q0.453125 -0.125 0.59375 -0.296875q0.15625 -0.03125 0.0625 -0.140625q-0.09375 -0.125 -0.234375 -0.265625q-0.125 -0.03125 -0.296875 -0.125q-0.171875 -0.109375 -0.296875 -0.109375q-0.03125 -0.15625 -0.328125 -0.359375q-0.28125 -0.203125 -0.578125 -0.359375q-0.734375 -0.609375 -1.296875 -1.078125q-0.5625 -0.46875 -0.4375 -0.65625q0 -0.140625 0 -0.15625q0 -0.015625 0 -0.015625q-0.234375 0 -0.484375 -0.65625q-0.25 -0.671875 -0.25 -1.21875q0 -0.453125 0.25 -1.078125q0.25 -0.640625 0.671875 -1.296875q0.421875 -0.65625 0.84375 -1.078125q0.640625 -0.609375 1.46875 -1.21875q0.828125 -0.625 1.6875 -1.125q0.875 -0.5 1.640625 -0.6875q0.546875 -0.203125 1.09375 -0.203125q0.546875 0 0.90625 0.203125q0.3125 0.0625 0.625 0.359375q0.3125 0.296875 0.59375 0.65625q0.28125 0.34375 0.390625 0.640625q0 0.40625 -0.0625 0.921875q-0.046875 0.515625 -0.140625 0.90625q-0.09375 0.375 -0.328125 0.375q0 0 -0.09375 0.015625q-0.078125 0.015625 -0.078125 0.1875q0 0.328125 -0.5 0.765625q-0.640625 0.4375 -1.140625 0.59375q-0.5 0.140625 -0.65625 -0.234375q-0.140625 -0.125 -0.203125 -0.234375q-0.0625 -0.125 -0.203125 -0.1875q0 0 -0.109375 -0.109375q-0.09375 -0.125 -0.09375 -0.328125q0 -0.140625 0.09375 -0.25q0.109375 -0.125 0.109375 -0.125q0.265625 -0.125 0.53125 -0.5q0.265625 -0.390625 0.4375 -0.765625q0.171875 -0.390625 0.171875 -0.5625q0 -0.203125 -0.0625 -0.25q-0.046875 -0.046875 -0.3125 -0.046875q-0.359375 0.125 -1.0 0.453125q-0.625 0.3125 -1.21875 0.65625q-0.578125 0.328125 -0.875 0.625q-0.140625 0.234375 -0.171875 0.28125q-0.03125 0.046875 -0.15625 0.046875q0 -0.125 -0.203125 0.09375q-0.203125 0.203125 -0.5 0.609375q-0.296875 0.390625 -0.578125 0.78125q-0.265625 0.390625 -0.390625 0.578125q-0.03125 0.140625 -0.140625 0.4375q-0.09375 0.296875 -0.09375 0.5625q-0.0625 0.375 0.140625 0.578125q0.21875 0.1875 0.796875 0.65625q1.15625 0.875 1.78125 1.421875q0.640625 0.546875 0.9375 0.90625q0.3125 0.34375 0.375 0.640625q0.59375 1.0 0.296875 1.609375q-0.296875 0.59375 -1.1875 0.984375q-0.34375 0.171875 -1.140625 0.28125q-0.796875 0.125 -1.640625 0.140625q-0.828125 0.015625 -1.359375 -0.109375zm17.371109 0.265625q-0.109375 0.0625 -0.34375 0.015625q-0.234375 -0.046875 -0.515625 -0.203125q-0.28125 -0.15625 -0.515625 -0.34375q-0.125 -0.140625 -0.203125 -0.3125q-0.0625 -0.1875 0.015625 -0.65625q0.09375 -0.46875 0.28125 -1.5q0.140625 -0.671875 0.296875 -1.34375q0.171875 -0.6875 0.328125 -1.171875q0.15625 -0.484375 0.15625 -0.484375q0.15625 -0.0625 0.46875 -1.0q0.328125 -0.9375 0.71875 -2.265625q0.140625 -0.46875 0.46875 -1.5625q0.34375 -1.109375 0.671875 -2.140625q0.296875 -0.96875 0.515625 -1.65625q0.21875 -0.703125 0.21875 -0.703125q0 0 -0.453125 0.265625q-0.453125 0.265625 -1.15625 0.703125q-0.6875 0.421875 -1.390625 0.953125q-0.5625 0.34375 -1.34375 0.9375q-0.765625 0.59375 -1.359375 0.96875q-0.90625 0.703125 -1.140625 0.828125q-0.21875 0.109375 -0.53125 -0.0625q-0.421875 -0.375 -0.65625 -0.875q-0.234375 -0.5 -0.03125 -0.828125q0.0625 -0.03125 0.421875 -0.28125q0.375 -0.25 0.8125 -0.5625q0.453125 -0.328125 0.859375 -0.609375q0.40625 -0.28125 0.5625 -0.375q0.109375 0 0.375 -0.234375q0.265625 -0.234375 0.5625 -0.4375q0.171875 -0.203125 1.171875 -0.890625q1.0 -0.703125 2.15625 -1.578125q1.234375 -0.765625 2.109375 -1.21875q0.890625 -0.46875 1.03125 -0.4375q0.09375 0 0.375 0.171875q0.28125 0.15625 0.53125 0.390625q0.25 0.234375 0.296875 0.4375q0.1875 0.234375 -0.203125 1.0625q-0.140625 0.296875 -0.4375 1.078125q-0.296875 0.78125 -0.65625 1.796875q-0.34375 1.015625 -0.65625 2.0q-0.3125 0.984375 -0.515625 1.6875q-0.265625 1.03125 -0.484375 1.609375q-0.21875 0.5625 -0.40625 1.078125q-0.1875 0.515625 -0.40625 1.40625q-0.234375 0.546875 -0.484375 1.359375q-0.25 0.8125 -0.453125 1.59375q-0.203125 0.78125 -0.296875 1.28125q-0.265625 0.734375 -0.4375 1.359375q-0.171875 0.609375 -0.328125 0.75z" fill-rule="nonzero"/><path fill="#000000" d="m192.70384 142.14069q-0.21875 0.171875 -0.5 0.203125q-0.265625 0.015625 -0.515625 -0.09375q-0.25 -0.109375 -0.421875 -0.328125q-0.140625 -0.171875 -0.203125 -0.4375q-0.046875 -0.265625 0 -0.703125q0.03125 -0.390625 0.234375 -0.78125q0.203125 -0.390625 0.5 -0.6875q0.3125 -0.3125 0.625 -0.421875q0.125 -0.09375 0.234375 -0.09375q0.125 0 0.328125 0.015625q0.21875 0.03125 0.34375 0.09375q0.125 0.0625 0.1875 0.15625q0.15625 0.140625 0.203125 0.28125q0.046875 0.140625 0.03125 0.265625q-0.03125 0.234375 -0.265625 0.546875q-0.234375 0.3125 -0.609375 0.5q-0.1875 0.0625 -0.421875 0.0625q-0.234375 0 -0.46875 -0.109375q-0.203125 -0.0625 -0.265625 0.046875q-0.0625 0.09375 -0.078125 0.421875q-0.015625 0.296875 0.0625 0.453125q0.078125 0.140625 0.234375 0.1875q0.203125 0.03125 0.296875 0.03125q0.109375 -0.015625 0.265625 -0.09375q0.125 -0.078125 0.171875 -0.09375q0.046875 -0.03125 0.078125 -0.0625q0.046875 -0.03125 0.125 -0.109375q0.0625 -0.0625 0.09375 -0.078125q0.046875 -0.03125 0.09375 -0.03125q0.0625 0 0.109375 0.0625q0.0625 0.0625 0.109375 0.109375q0.046875 0.03125 -0.015625 0.15625q-0.0625 0.109375 -0.21875 0.265625q-0.140625 0.140625 -0.34375 0.265625zm-0.046875 -2.015625q0.09375 -0.03125 0.203125 -0.125q0.125 -0.09375 0.203125 -0.203125q0.09375 -0.125 0.09375 -0.1875q0 -0.109375 -0.125 -0.1875q-0.125 -0.09375 -0.359375 -0.046875q-0.09375 0.03125 -0.21875 0.140625q-0.125 0.09375 -0.234375 0.21875q-0.109375 0.109375 -0.1875 0.21875q-0.0625 0.09375 -0.0625 0.125q0.03125 0.046875 0.15625 0.078125q0.125 0.03125 0.28125 0.03125q0.15625 -0.015625 0.25 -0.0625zm2.2158813 2.078125q-0.078125 0.015625 -0.203125 0.015625q-0.109375 -0.015625 -0.203125 -0.03125q-0.09375 -0.03125 -0.09375 -0.0625q0 -0.03125 -0.046875 -0.03125q0 0 -0.0625 -0.046875q-0.046875 -0.0625 -0.140625 -0.09375q-0.078125 -0.140625 -0.09375 -0.296875q0 -0.15625 0.09375 -0.53125q0.015625 -0.25 0.171875 -0.5625q0.171875 -0.328125 0.390625 -0.640625q0.234375 -0.328125 0.484375 -0.578125q0.25 -0.265625 0.453125 -0.390625q0.140625 -0.125 0.328125 -0.140625q0.203125 -0.015625 0.375 0.078125q0.09375 0.046875 0.1875 0.171875q0.109375 0.109375 0.1875 0.25q0.09375 0.125 0.15625 0.25q0.015625 0.09375 0.03125 0.171875q0.015625 0.078125 0.015625 0.203125q0 0.109375 -0.03125 0.328125q-0.046875 0.171875 -0.078125 0.390625q-0.03125 0.21875 -0.03125 0.390625q-0.03125 0.1875 0.03125 0.265625q0.0625 0.0625 0.1875 0q0.109375 -0.0625 0.21875 -0.03125q0.109375 0.015625 0.171875 0.09375q0.0625 0.0625 0.03125 0.1875q-0.015625 0.125 -0.140625 0.234375q-0.109375 0.109375 -0.265625 0.1875q-0.140625 0.078125 -0.28125 0.078125q-0.109375 0 -0.203125 -0.109375q-0.09375 -0.109375 -0.171875 -0.28125q-0.0625 -0.171875 -0.125 -0.328125l-0.0625 -0.21875l-0.375 0.359375q-0.125 0.125 -0.25 0.234375q-0.109375 0.109375 -0.140625 0.15625q-0.046875 0.078125 -0.171875 0.15625q-0.125 0.078125 -0.34375 0.171875zm0.109375 -0.671875q0.15625 -0.09375 0.328125 -0.25q0.171875 -0.171875 0.34375 -0.375q0.171875 -0.203125 0.296875 -0.390625q0.15625 -0.21875 0.234375 -0.375q0.09375 -0.171875 0.125 -0.328125q-0.03125 -0.109375 -0.125 -0.21875q-0.078125 -0.125 -0.140625 -0.125q-0.171875 0 -0.390625 0.21875q-0.21875 0.21875 -0.421875 0.53125q-0.046875 0.03125 -0.109375 0.140625q-0.046875 0.109375 -0.109375 0.203125q-0.0625 0.078125 -0.078125 0.109375q-0.03125 0.03125 -0.109375 0.1875q-0.0625 0.15625 -0.125 0.328125q-0.0625 0.15625 -0.0625 0.21875q0 0.0625 0.015625 0.125q0.015625 0.0625 0.078125 0.078125q0.078125 0.015625 0.25 -0.078125zm3.565445 0.859375q-0.09375 -0.03125 -0.21875 -0.125q-0.109375 -0.09375 -0.203125 -0.21875q-0.078125 -0.125 -0.09375 -0.21875q0 -0.015625 -0.03125 -0.03125q-0.015625 -0.03125 -0.015625 -0.03125q-0.046875 -0.03125 -0.046875 -0.25q0 -0.21875 0.015625 -0.484375q0.03125 -0.28125 0.078125 -0.4375q0.046875 -0.15625 0.140625 -0.40625q0.09375 -0.25 0.15625 -0.46875l0.25 -0.53125l-0.375 -0.109375q-0.0625 -0.015625 -0.109375 -0.0625q-0.046875 -0.0625 -0.046875 -0.09375q0 -0.078125 0.078125 -0.1875q0.09375 -0.125 0.140625 -0.125q0.046875 0 0.171875 0q0.125 0 0.234375 0q0.125 -0.015625 0.15625 -0.015625q0.03125 -0.03125 0.0625 -0.0625q0.046875 -0.03125 0.0625 -0.09375q0.046875 -0.09375 0.078125 -0.171875q0.046875 -0.09375 0.109375 -0.203125q0.0625 -0.125 0.109375 -0.203125q0.046875 -0.078125 0.140625 -0.234375q0.046875 -0.0625 0.09375 -0.15625q0.0625 -0.09375 0.140625 -0.15625q0.09375 -0.078125 0.203125 -0.078125q0.125 -0.015625 0.265625 0.109375q0.078125 0.09375 0.078125 0.15625q0.015625 0.046875 -0.0625 0.1875q-0.078125 0.15625 -0.1875 0.3125q-0.09375 0.140625 -0.171875 0.296875q-0.140625 0.203125 -0.0625 0.234375q0.09375 0.03125 0.53125 -0.03125q0.265625 -0.046875 0.390625 0.03125q0.125 0.078125 0.140625 0.234375q0.03125 0.21875 -0.046875 0.265625q-0.078125 0.046875 -0.421875 0.046875q-0.234375 0.046875 -0.390625 0.046875q-0.15625 0 -0.234375 0q-0.125 0.015625 -0.15625 0.015625q-0.03125 0 -0.109375 0.015625q-0.078125 0.015625 -0.109375 0.0625q-0.03125 0.046875 -0.078125 0.109375q-0.03125 0.046875 -0.109375 0.203125q-0.0625 0.15625 -0.1875 0.34375q-0.125 0.390625 -0.21875 0.765625q-0.078125 0.375 -0.15625 0.75q-0.015625 0.203125 0.015625 0.296875q0.046875 0.078125 0.25 0.09375q0.09375 0.015625 0.3125 0q0.21875 -0.015625 0.359375 -0.046875q0.09375 -0.046875 0.203125 -0.09375q0.109375 -0.0625 0.203125 -0.109375q0.09375 -0.046875 0.171875 -0.09375q0.09375 -0.0625 0.09375 -0.0625q0.046875 -0.078125 0.109375 -0.015625q0.0625 0.046875 0.09375 0.15625q0 0.109375 -0.046875 0.25q-0.046875 0.125 -0.34375 0.296875q-0.421875 0.25 -0.796875 0.3125q-0.359375 0.0625 -0.609375 0.015625z" fill-rule="nonzero"/><path fill="#000000" fill-opacity="0.0" d="m115.25984 118.961945l37.32283 0" fill-rule="evenodd"/><path stroke="#660000" stroke-width="1.0" stroke-linejoin="round" stroke-linecap="butt" d="m115.25984 118.961945l31.32283 0" fill-rule="evenodd"/><path stroke="#660000" stroke-width="1.0" stroke-linecap="butt" d="m146.58267 120.61368l4.538101 -1.6517334l-4.538101 -1.6517334z" fill-rule="evenodd"/><path fill="#000000" fill-opacity="0.0" d="m118.10105 100.82021l22.236214 0l0 14.551178l-22.236214 0z" fill-rule="evenodd"/><path fill="#000000" d="m122.09807 112.293335q-1.734375 0 -2.328125 -0.796875q-0.484375 -0.5625 -0.265625 -1.59375q0.1875 -0.890625 0.921875 -1.453125q0.34375 -0.28125 1.1875 -0.515625q-0.578125 -0.140625 -0.90625 -0.5625q-0.34375 -0.375 -0.171875 -1.21875q0.1875 -0.890625 0.859375 -1.40625q0.859375 -0.703125 2.453125 -0.703125q2.109375 0 2.796875 1.59375l-1.0 0.5625q-0.453125 -1.21875 -2.046875 -1.21875q-1.03125 0 -1.59375 0.421875q-0.28125 0.28125 -0.390625 0.75q-0.109375 0.5625 0.0625 0.796875q0.515625 0.65625 1.953125 0.5625l-0.203125 0.9375q-1.6875 0 -2.203125 0.46875q-0.5625 0.421875 -0.6875 1.03125q-0.109375 0.515625 0.21875 0.890625q0.359375 0.515625 1.578125 0.515625q1.1875 -0.046875 1.921875 -0.65625q0.390625 -0.28125 0.78125 -0.75l0.765625 0.5625q-0.484375 0.515625 -1.0 0.9375q-1.015625 0.84375 -2.703125 0.84375z" fill-rule="nonzero"/><path fill="#000000" d="m126.48869 109.762085l0.21875 -1.0625l3.234375 0l-0.21875 1.0625l-3.234375 0zm3.8242188 2.578125l1.296875 -6.21875l1.0625 0l-0.21875 1.015625q0.59375 -0.65625 1.0625 -0.90625q0.46875 -0.25 1.015625 -0.25q0.578125 0 0.96875 0.3125q0.390625 0.296875 0.515625 0.84375q0.46875 -0.578125 0.984375 -0.859375q0.53125 -0.296875 1.109375 -0.296875q0.78125 0 1.171875 0.375q0.390625 0.359375 0.390625 1.03125q0 0.28125 -0.140625 0.9375l-0.828125 4.015625l-1.0625 0l0.859375 -4.109375q0.109375 -0.515625 0.109375 -0.71875q0 -0.3125 -0.203125 -0.484375q-0.1875 -0.171875 -0.53125 -0.171875q-0.484375 0 -0.984375 0.28125q-0.484375 0.28125 -0.765625 0.75q-0.265625 0.46875 -0.46875 1.4375l-0.625 3.015625l-1.0625 0l0.875 -4.203125q0.09375 -0.421875 0.09375 -0.609375q0 -0.296875 -0.1875 -0.484375q-0.1875 -0.1875 -0.5 -0.1875q-0.453125 0 -0.953125 0.28125q-0.484375 0.28125 -0.796875 0.796875q-0.3125 0.515625 -0.515625 1.46875l-0.609375 2.9375l-1.0625 0z" fill-rule="nonzero"/><path fill="#000000" fill-opacity="0.0" d="m239.87401 137.57611l102.99214 0l0 33.921265l-102.99214 0z" fill-rule="evenodd"/><path fill="#666666" d="m246.20778 141.09862l-0.203125 0.9375l-0.9375 0l0.171875 -0.828125q0.15625 -0.734375 0.46875 -1.0625q0.328125 -0.34375 0.78125 -0.40625l-0.078125 0.359375q-0.53125 0.15625 -0.71875 1.0l0.515625 0zm-1.453125 0l-0.203125 0.9375l-0.9375 0l0.171875 -0.828125q0.15625 -0.734375 0.46875 -1.0625q0.328125 -0.34375 0.78125 -0.40625l-0.078125 0.359375q-0.53125 0.15625 -0.71875 1.0l0.515625 0zm1.4032135 5.4375l0.875 -4.203125l-0.734375 0l0.140625 -0.640625l0.734375 0l0.140625 -0.6875q0.109375 -0.515625 0.21875 -0.734375q0.125 -0.234375 0.375 -0.375q0.265625 -0.15625 0.71875 -0.15625q0.3125 0 0.90625 0.140625l-0.140625 0.71875q-0.421875 -0.109375 -0.703125 -0.109375q-0.25 0 -0.375 0.125q-0.125 0.109375 -0.203125 0.5625l-0.109375 0.515625l0.90625 0l-0.125 0.640625l-0.921875 0l-0.875 4.203125l-0.828125 0zm2.6229095 -1.828125q0 -1.421875 0.828125 -2.359375q0.703125 -0.765625 1.8125 -0.765625q0.875 0 1.40625 0.546875q0.53125 0.546875 0.53125 1.484375q0 0.828125 -0.34375 1.546875q-0.328125 0.71875 -0.953125 1.109375q-0.609375 0.375 -1.296875 0.375q-0.5625 0 -1.03125 -0.234375q-0.46875 -0.25 -0.71875 -0.6875q-0.234375 -0.4375 -0.234375 -1.015625zm0.828125 -0.09375q0 0.6875 0.328125 1.046875q0.328125 0.34375 0.828125 0.34375q0.265625 0 0.515625 -0.109375q0.265625 -0.109375 0.484375 -0.3125q0.234375 -0.21875 0.390625 -0.5q0.15625 -0.28125 0.25 -0.609375q0.140625 -0.453125 0.140625 -0.859375q0 -0.65625 -0.328125 -1.015625q-0.328125 -0.375 -0.828125 -0.375q-0.390625 0 -0.71875 0.1875q-0.3125 0.1875 -0.578125 0.546875q-0.25 0.34375 -0.375 0.828125q-0.109375 0.46875 -0.109375 0.828125zm4.359741 0.09375q0 -1.421875 0.828125 -2.359375q0.703125 -0.765625 1.8125153 -0.765625q0.875 0 1.40625 0.546875q0.53125 0.546875 0.53125 1.484375q0 0.828125 -0.34375 1.546875q-0.328125 0.71875 -0.953125 1.109375q-0.609375 0.375 -1.2968903 0.375q-0.5625 0 -1.03125 -0.234375q-0.46875 -0.25 -0.71875 -0.6875q-0.234375 -0.4375 -0.234375 -1.015625zm0.828125 -0.09375q0 0.6875 0.328125 1.046875q0.328125 0.34375 0.828125 0.34375q0.26564026 0 0.51564026 -0.109375q0.265625 -0.109375 0.484375 -0.3125q0.234375 -0.21875 0.390625 -0.5q0.15625 -0.28125 0.25 -0.609375q0.140625 -0.453125 0.140625 -0.859375q0 -0.65625 -0.328125 -1.015625q-0.328125 -0.375 -0.828125 -0.375q-0.390625 0 -0.71876526 0.1875q-0.3125 0.1875 -0.578125 0.546875q-0.25 0.34375 -0.375 0.828125q-0.109375 0.46875 -0.109375 0.828125zm7.4847565 1.21875q-0.71875 0.8125 -1.484375 0.8125q-0.6875 0 -1.15625 -0.5q-0.453125 -0.515625 -0.453125 -1.484375q0 -0.875 0.359375 -1.609375q0.375 -0.734375 0.921875 -1.09375q0.546875 -0.375 1.078125 -0.375q0.90625 0 1.375 0.875l0.546875 -2.59375l0.8125 0l-1.390625 6.671875l-0.765625 0l0.15625 -0.703125zm-2.265625 -1.328125q0 0.515625 0.09375 0.8125q0.109375 0.28125 0.34375 0.484375q0.25 0.1875 0.578125 0.1875q0.5625 0 1.015625 -0.59375q0.609375 -0.765625 0.609375 -1.90625q0 -0.578125 -0.296875 -0.890625q-0.296875 -0.328125 -0.75 -0.328125q-0.296875 0 -0.546875 0.140625q-0.234375 0.125 -0.484375 0.4375q-0.234375 0.3125 -0.40625 0.8125q-0.15625 0.484375 -0.15625 0.84375zm7.515991 0.265625l0.828125 0.09375q-0.3125 0.90625 -0.890625 1.34375q-0.5625 0.4375 -1.28125 0.4375q-0.796875 0 -1.28125 -0.5q-0.484375 -0.515625 -0.484375 -1.4375q0 -0.796875 0.3125 -1.5625q0.3125 -0.765625 0.890625 -1.15625q0.59375 -0.40625 1.34375 -0.40625q0.78125 0 1.234375 0.453125q0.453125 0.4375 0.453125 1.15625l-0.8125 0.0625q0 -0.46875 -0.265625 -0.71875q-0.265625 -0.265625 -0.6875 -0.265625q-0.5 0 -0.875 0.3125q-0.359375 0.3125 -0.5625 0.953125q-0.203125 0.640625 -0.203125 1.234375q0 0.625 0.265625 0.9375q0.28125 0.296875 0.6875 0.296875q0.390625 0 0.75 -0.296875q0.375 -0.3125 0.578125 -0.9375zm1.4765625 -0.0625q0 -1.421875 0.828125 -2.359375q0.703125 -0.765625 1.8125 -0.765625q0.875 0 1.40625 0.546875q0.53125 0.546875 0.53125 1.484375q0 0.828125 -0.34375 1.546875q-0.328125 0.71875 -0.953125 1.109375q-0.609375 0.375 -1.296875 0.375q-0.5625 0 -1.03125 -0.234375q-0.46875 -0.25 -0.71875 -0.6875q-0.234375 -0.4375 -0.234375 -1.015625zm0.828125 -0.09375q0 0.6875 0.328125 1.046875q0.328125 0.34375 0.828125 0.34375q0.265625 0 0.515625 -0.109375q0.265625 -0.109375 0.484375 -0.3125q0.234375 -0.21875 0.390625 -0.5q0.15625 -0.28125 0.25 -0.609375q0.140625 -0.453125 0.140625 -0.859375q0 -0.65625 -0.328125 -1.015625q-0.328125 -0.375 -0.828125 -0.375q-0.390625 0 -0.71875 0.1875q-0.3125 0.1875 -0.578125 0.546875q-0.25 0.34375 -0.375 0.828125q-0.109375 0.46875 -0.109375 0.828125zm4.219116 1.921875l1.015625 -4.84375l0.734375 0l-0.171875 0.84375q0.484375 -0.484375 0.90625 -0.71875q0.421875 -0.234375 0.875 -0.234375q0.578125 0 0.90625 0.328125q0.34375 0.3125 0.34375 0.84375q0 0.28125 -0.109375 0.859375l-0.625 2.921875l-0.828125 0l0.65625 -3.0625q0.09375 -0.453125 0.09375 -0.65625q0 -0.25 -0.171875 -0.390625q-0.171875 -0.15625 -0.484375 -0.15625q-0.625 0 -1.125 0.453125q-0.5 0.453125 -0.71875 1.5625l-0.46875 2.25l-0.828125 0zm5.265991 -1.65625l0.828125 -0.046875q0 0.359375 0.109375 0.609375q0.109375 0.25 0.390625 0.40625q0.296875 0.15625 0.6875 0.15625q0.546875 0 0.8125 -0.21875q0.28125 -0.21875 0.28125 -0.515625q0 -0.203125 -0.15625 -0.40625q-0.171875 -0.1875 -0.828125 -0.46875q-0.65625 -0.28125 -0.828125 -0.390625q-0.3125 -0.1875 -0.46875 -0.4375q-0.15625 -0.25 -0.15625 -0.578125q0 -0.578125 0.453125 -0.984375q0.46875 -0.421875 1.28125 -0.421875q0.90625 0 1.375 0.421875q0.484375 0.421875 0.5 1.109375l-0.796875 0.0625q-0.015625 -0.4375 -0.3125 -0.6875q-0.296875 -0.265625 -0.828125 -0.265625q-0.421875 0 -0.671875 0.203125q-0.234375 0.1875 -0.234375 0.421875q0 0.21875 0.21875 0.40625q0.125 0.109375 0.703125 0.359375q0.9375 0.40625 1.1875 0.640625q0.390625 0.375 0.390625 0.921875q0 0.359375 -0.21875 0.703125q-0.21875 0.34375 -0.671875 0.5625q-0.453125 0.203125 -1.0625 0.203125q-0.84375 0 -1.4375 -0.421875q-0.578125 -0.40625 -0.546875 -1.34375zm7.8828125 0.78125q-0.875 0.984375 -1.78125 0.984375q-0.5625 0 -0.90625 -0.3125q-0.34375 -0.328125 -0.34375 -0.796875q0 -0.296875 0.15625 -1.046875l0.59375 -2.796875l0.8125 0l-0.640625 3.09375q-0.078125 0.390625 -0.078125 0.609375q0 0.265625 0.15625 0.421875q0.171875 0.15625 0.5 0.15625q0.34375 0 0.671875 -0.171875q0.328125 -0.171875 0.5625 -0.453125q0.25 -0.28125 0.390625 -0.6875q0.109375 -0.25 0.234375 -0.875l0.4375 -2.09375l0.828125 0l-1.015625 4.84375l-0.75 0l0.171875 -0.875zm1.8909912 0.875l1.0 -4.84375l0.828125 0l-0.171875 0.796875q0.46875 -0.515625 0.828125 -0.703125q0.359375 -0.203125 0.78125 -0.203125q0.453125 0 0.75 0.25q0.3125 0.234375 0.40625 0.65625q0.359375 -0.453125 0.765625 -0.671875q0.421875 -0.234375 0.875 -0.234375q0.59375 0 0.890625 0.296875q0.3125 0.28125 0.3125 0.796875q0 0.234375 -0.109375 0.75l-0.640625 3.109375l-0.828125 0l0.65625 -3.203125q0.09375 -0.390625 0.09375 -0.546875q0 -0.25 -0.15625 -0.375q-0.140625 -0.140625 -0.421875 -0.140625q-0.359375 0 -0.75 0.21875q-0.375 0.21875 -0.59375 0.59375q-0.203125 0.359375 -0.375 1.109375l-0.484375 2.34375l-0.828125 0l0.6875 -3.265625q0.078125 -0.328125 0.078125 -0.46875q0 -0.234375 -0.15625 -0.375q-0.140625 -0.15625 -0.390625 -0.15625q-0.34375 0 -0.734375 0.21875q-0.375 0.21875 -0.625 0.625q-0.234375 0.390625 -0.390625 1.140625l-0.484375 2.28125l-0.8125 0zm11.317261 -1.640625l0.8125 0.078125q-0.1875 0.59375 -0.8125 1.140625q-0.609375 0.53125 -1.46875 0.53125q-0.546875 0 -1.0 -0.25q-0.4375 -0.25 -0.671875 -0.71875q-0.234375 -0.46875 -0.234375 -1.078125q0 -0.796875 0.359375 -1.53125q0.375 -0.75 0.953125 -1.109375q0.578125 -0.375 1.265625 -0.375q0.859375 0 1.375 0.546875q0.515625 0.53125 0.515625 1.46875q0 0.34375 -0.0625 0.71875l-3.5625 0q-0.015625 0.140625 -0.015625 0.265625q0 0.671875 0.3125 1.03125q0.3125 0.359375 0.765625 0.359375q0.421875 0 0.828125 -0.28125q0.421875 -0.28125 0.640625 -0.796875zm-2.390625 -1.203125l2.71875 0q0 -0.125 0 -0.1875q0 -0.609375 -0.3125 -0.9375q-0.3125 -0.328125 -0.796875 -0.328125q-0.53125 0 -0.96875 0.359375q-0.421875 0.359375 -0.640625 1.09375zm4.031616 2.84375l1.015625 -4.84375l0.71875 0l-0.203125 1.0q0.375 -0.5625 0.734375 -0.828125q0.359375 -0.28125 0.734375 -0.28125q0.234375 0 0.59375 0.1875l-0.328125 0.765625q-0.21875 -0.15625 -0.46875 -0.15625q-0.4375 0 -0.890625 0.484375q-0.453125 0.484375 -0.71875 1.734375l-0.40625 1.9375l-0.78125 0zm5.776123 -1.65625l0.828125 -0.046875q0 0.359375 0.109375 0.609375q0.109375 0.25 0.390625 0.40625q0.296875 0.15625 0.6875 0.15625q0.546875 0 0.8125 -0.21875q0.28125 -0.21875 0.28125 -0.515625q0 -0.203125 -0.15625 -0.40625q-0.171875 -0.1875 -0.828125 -0.46875q-0.65625 -0.28125 -0.828125 -0.390625q-0.3125 -0.1875 -0.46875 -0.4375q-0.15625 -0.25 -0.15625 -0.578125q0 -0.578125 0.453125 -0.984375q0.46875 -0.421875 1.28125 -0.421875q0.90625 0 1.375 0.421875q0.484375 0.421875 0.5 1.109375l-0.796875 0.0625q-0.015625 -0.4375 -0.3125 -0.6875q-0.296875 -0.265625 -0.828125 -0.265625q-0.421875 0 -0.671875 0.203125q-0.234375 0.1875 -0.234375 0.421875q0 0.21875 0.21875 0.40625q0.125 0.109375 0.703125 0.359375q0.9375 0.40625 1.1875 0.640625q0.390625 0.375 0.390625 0.921875q0 0.359375 -0.21875 0.703125q-0.21875 0.34375 -0.671875 0.5625q-0.453125 0.203125 -1.0625 0.203125q-0.84375 0 -1.4375 -0.421875q-0.578125 -0.40625 -0.546875 -1.34375zm8.1328125 0.015625l0.8125 0.078125q-0.1875 0.59375 -0.8125 1.140625q-0.609375 0.53125 -1.46875 0.53125q-0.546875 0 -1.0 -0.25q-0.4375 -0.25 -0.671875 -0.71875q-0.234375 -0.46875 -0.234375 -1.078125q0 -0.796875 0.359375 -1.53125q0.375 -0.75 0.953125 -1.109375q0.578125 -0.375 1.265625 -0.375q0.859375 0 1.375 0.546875q0.515625 0.53125 0.515625 1.46875q0 0.34375 -0.0625 0.71875l-3.5625 0q-0.015625 0.140625 -0.015625 0.265625q0 0.671875 0.3125 1.03125q0.3125 0.359375 0.765625 0.359375q0.421875 0 0.828125 -0.28125q0.421875 -0.28125 0.640625 -0.796875zm-2.390625 -1.203125l2.71875 0q0 -0.125 0 -0.1875q0 -0.609375 -0.3125 -0.9375q-0.3125 -0.328125 -0.796875 -0.328125q-0.53125 0 -0.96875 0.359375q-0.421875 0.359375 -0.640625 1.09375zm4.031616 2.84375l1.015625 -4.84375l0.734375 0l-0.171875 0.84375q0.484375 -0.484375 0.90625 -0.71875q0.421875 -0.234375 0.875 -0.234375q0.578125 0 0.90625 0.328125q0.34375 0.3125 0.34375 0.84375q0 0.28125 -0.109375 0.859375l-0.625 2.921875l-0.828125 0l0.65625 -3.0625q0.09375 -0.453125 0.09375 -0.65625q0 -0.25 -0.171875 -0.390625q-0.171875 -0.15625 -0.484375 -0.15625q-0.625 0 -1.125 0.453125q-0.5 0.453125 -0.71875 1.5625l-0.46875 2.25l-0.828125 0zm8.453491 -0.703125q-0.71875 0.8125 -1.484375 0.8125q-0.6875 0 -1.15625 -0.5q-0.453125 -0.515625 -0.453125 -1.484375q0 -0.875 0.359375 -1.609375q0.375 -0.734375 0.921875 -1.09375q0.546875 -0.375 1.078125 -0.375q0.90625 0 1.375 0.875l0.546875 -2.59375l0.8125 0l-1.390625 6.671875l-0.765625 0l0.15625 -0.703125zm-2.265625 -1.328125q0 0.515625 0.09375 0.8125q0.109375 0.28125 0.34375 0.484375q0.25 0.1875 0.578125 0.1875q0.5625 0 1.015625 -0.59375q0.609375 -0.765625 0.609375 -1.90625q0 -0.578125 -0.296875 -0.890625q-0.296875 -0.328125 -0.75 -0.328125q-0.296875 0 -0.546875 0.140625q-0.234375 0.125 -0.484375 0.4375q-0.234375 0.3125 -0.40625 0.8125q-0.15625 0.484375 -0.15625 0.84375zm4.265991 0.375l0.828125 -0.046875q0 0.359375 0.109375 0.609375q0.109375 0.25 0.390625 0.40625q0.296875 0.15625 0.6875 0.15625q0.546875 0 0.8125 -0.21875q0.28125 -0.21875 0.28125 -0.515625q0 -0.203125 -0.15625 -0.40625q-0.171875 -0.1875 -0.828125 -0.46875q-0.65625 -0.28125 -0.828125 -0.390625q-0.3125 -0.1875 -0.46875 -0.4375q-0.15625 -0.25 -0.15625 -0.578125q0 -0.578125 0.453125 -0.984375q0.46875 -0.421875 1.28125 -0.421875q0.90625 0 1.375 0.421875q0.484375 0.421875 0.5 1.109375l-0.796875 0.0625q-0.015625 -0.4375 -0.3125 -0.6875q-0.296875 -0.265625 -0.828125 -0.265625q-0.421875 0 -0.671875 0.203125q-0.234375 0.1875 -0.234375 0.421875q0 0.21875 0.21875 0.40625q0.125 0.109375 0.703125 0.359375q0.9375 0.40625 1.1875 0.640625q0.390625 0.375 0.390625 0.921875q0 0.359375 -0.21875 0.703125q-0.21875 0.34375 -0.671875 0.5625q-0.453125 0.203125 -1.0625 0.203125q-0.84375 0 -1.4375 -0.421875q-0.578125 -0.40625 -0.546875 -1.34375zm10.443237 1.0625q-0.4375 0.359375 -0.84375 0.53125q-0.390625 0.171875 -0.828125 0.171875q-0.671875 0 -1.09375 -0.390625q-0.40625 -0.390625 -0.40625 -1.015625q0 -0.40625 0.1875 -0.71875q0.1875 -0.3125 0.484375 -0.5q0.3125 -0.1875 0.75 -0.265625q0.28125 -0.0625 1.046875 -0.09375q0.78125 -0.03125 1.125 -0.15625q0.09375 -0.34375 0.09375 -0.5625q0 -0.28125 -0.203125 -0.453125q-0.296875 -0.21875 -0.84375 -0.21875q-0.515625 0 -0.84375 0.234375q-0.328125 0.21875 -0.484375 0.640625l-0.828125 -0.078125q0.25 -0.71875 0.796875 -1.09375q0.5625 -0.390625 1.40625 -0.390625q0.890625 0 1.421875 0.4375q0.390625 0.3125 0.390625 0.828125q0 0.390625 -0.109375 0.890625l-0.265625 1.203125q-0.125 0.578125 -0.125 0.9375q0 0.234375 0.09375 0.65625l-0.828125 0q-0.078125 -0.234375 -0.09375 -0.59375zm0.296875 -1.859375q-0.171875 0.078125 -0.375 0.109375q-0.1875 0.03125 -0.65625 0.078125q-0.71875 0.0625 -1.015625 0.15625q-0.296875 0.09375 -0.453125 0.3125q-0.140625 0.21875 -0.140625 0.46875q0 0.359375 0.234375 0.578125q0.234375 0.21875 0.6875 0.21875q0.40625 0 0.78125 -0.21875q0.375 -0.21875 0.59375 -0.59375q0.21875 -0.390625 0.34375 -1.109375z" fill-rule="nonzero"/><path fill="#666666" d="m252.75168 155.97049l0.828125 0.09375q-0.3125 0.90625 -0.890625 1.34375q-0.5625 0.4375 -1.28125 0.4375q-0.796875 0 -1.28125 -0.5q-0.484375 -0.515625 -0.484375 -1.4375q0 -0.796875 0.3125 -1.5625q0.3125 -0.765625 0.890625 -1.15625q0.59375 -0.40625 1.34375 -0.40625q0.78125 0 1.234375 0.453125q0.453125 0.4375 0.453125 1.15625l-0.8125 0.0625q0 -0.46875 -0.265625 -0.71875q-0.265625 -0.265625 -0.6875 -0.265625q-0.5 0 -0.875 0.3125q-0.359375 0.3125 -0.5625 0.953125q-0.203125 0.640625 -0.203125 1.234375q0 0.625 0.265625 0.9375q0.28125 0.296875 0.6875 0.296875q0.390625 0 0.75 -0.296875q0.375 -0.3125 0.578125 -0.9375zm1.4765625 -0.0625q0 -1.421875 0.828125 -2.359375q0.703125 -0.765625 1.8125 -0.765625q0.875 0 1.40625 0.546875q0.53125 0.546875 0.53125 1.484375q0 0.828125 -0.34375 1.546875q-0.328125 0.71875 -0.953125 1.109375q-0.609375 0.375 -1.296875 0.375q-0.5625 0 -1.03125 -0.234375q-0.46875 -0.25 -0.71875 -0.6875q-0.234375 -0.4375 -0.234375 -1.015625zm0.828125 -0.09375q0 0.6875 0.328125 1.046875q0.328125 0.34375 0.828125 0.34375q0.265625 0 0.515625 -0.109375q0.265625 -0.109375 0.484375 -0.3125q0.234375 -0.21875 0.390625 -0.5q0.15625 -0.28125 0.25 -0.609375q0.140625 -0.453125 0.140625 -0.859375q0 -0.65625 -0.328125 -1.015625q-0.328125 -0.375 -0.828125 -0.375q-0.390625 0 -0.71875 0.1875q-0.3125 0.1875 -0.578125 0.546875q-0.25 0.34375 -0.375 0.828125q-0.109375 0.46875 -0.109375 0.828125zm4.219116 1.921875l1.0 -4.84375l0.828125 0l-0.171875 0.796875q0.46875 -0.515625 0.828125 -0.703125q0.359375 -0.203125 0.78125 -0.203125q0.453125 0 0.75 0.25q0.3125 0.234375 0.40625 0.65625q0.359375 -0.453125 0.765625 -0.671875q0.421875 -0.234375 0.875 -0.234375q0.59375 0 0.890625 0.296875q0.3125 0.28125 0.3125 0.796875q0 0.234375 -0.109375 0.75l-0.640625 3.109375l-0.828125 0l0.65625 -3.203125q0.09375 -0.390625 0.09375 -0.546875q0 -0.25 -0.15625 -0.375q-0.140625 -0.140625 -0.421875 -0.140625q-0.359375 0 -0.75 0.21875q-0.375 0.21875 -0.59375 0.59375q-0.203125 0.359375 -0.375 1.109375l-0.484375 2.34375l-0.828125 0l0.6875 -3.265625q0.078125 -0.328125 0.078125 -0.46875q0 -0.234375 -0.15625 -0.375q-0.140625 -0.15625 -0.390625 -0.15625q-0.34375 0 -0.734375 0.21875q-0.375 0.21875 -0.625 0.625q-0.234375 0.390625 -0.390625 1.140625l-0.484375 2.28125l-0.8125 0zm7.7704163 0l1.0 -4.84375l0.828125 0l-0.171875 0.796875q0.46875 -0.515625 0.828125 -0.703125q0.359375 -0.203125 0.78125 -0.203125q0.453125 0 0.75 0.25q0.3125 0.234375 0.40625 0.65625q0.359375 -0.453125 0.765625 -0.671875q0.421875 -0.234375 0.875 -0.234375q0.59375 0 0.890625 0.296875q0.3125 0.28125 0.3125 0.796875q0 0.234375 -0.109375 0.75l-0.640625 3.109375l-0.828125 0l0.65625 -3.203125q0.09375 -0.390625 0.09375 -0.546875q0 -0.25 -0.15625 -0.375q-0.140625 -0.140625 -0.421875 -0.140625q-0.359375 0 -0.75 0.21875q-0.375 0.21875 -0.59375 0.59375q-0.203125 0.359375 -0.375 1.109375l-0.484375 2.34375l-0.828125 0l0.6875 -3.265625q0.078125 -0.328125 0.078125 -0.46875q0 -0.234375 -0.15625 -0.375q-0.140625 -0.15625 -0.390625 -0.15625q-0.34375 0 -0.734375 0.21875q-0.375 0.21875 -0.625 0.625q-0.234375 0.390625 -0.390625 1.140625l-0.484375 2.28125l-0.8125 0zm11.036011 -0.59375q-0.4375 0.359375 -0.84375 0.53125q-0.390625 0.171875 -0.828125 0.171875q-0.671875 0 -1.09375 -0.390625q-0.40625 -0.390625 -0.40625 -1.015625q0 -0.40625 0.1875 -0.71875q0.1875 -0.3125 0.484375 -0.5q0.3125 -0.1875 0.75 -0.265625q0.28125 -0.0625 1.046875 -0.09375q0.78125 -0.03125 1.125 -0.15625q0.09375 -0.34375 0.09375 -0.5625q0 -0.28125 -0.203125 -0.453125q-0.296875 -0.21875 -0.84375 -0.21875q-0.515625 0 -0.84375 0.234375q-0.328125 0.21875 -0.484375 0.640625l-0.828125 -0.078125q0.25 -0.71875 0.796875 -1.09375q0.5625 -0.390625 1.40625 -0.390625q0.890625 0 1.421875 0.4375q0.390625 0.3125 0.390625 0.828125q0 0.390625 -0.109375 0.890625l-0.265625 1.203125q-0.125 0.578125 -0.125 0.9375q0 0.234375 0.09375 0.65625l-0.828125 0q-0.078125 -0.234375 -0.09375 -0.59375zm0.296875 -1.859375q-0.171875 0.078125 -0.375 0.109375q-0.1875 0.03125 -0.65625 0.078125q-0.71875 0.0625 -1.015625 0.15625q-0.296875 0.09375 -0.453125 0.3125q-0.140625 0.21875 -0.140625 0.46875q0 0.359375 0.234375 0.578125q0.234375 0.21875 0.6875 0.21875q0.40625 0 0.78125 -0.21875q0.375 -0.21875 0.59375 -0.59375q0.21875 -0.390625 0.34375 -1.109375zm1.6253662 2.453125l1.015625 -4.84375l0.734375 0l-0.171875 0.84375q0.484375 -0.484375 0.90625 -0.71875q0.421875 -0.234375 0.875 -0.234375q0.578125 0 0.90625 0.328125q0.34375 0.3125 0.34375 0.84375q0 0.28125 -0.109375 0.859375l-0.625 2.921875l-0.828125 0l0.65625 -3.0625q0.09375 -0.453125 0.09375 -0.65625q0 -0.25 -0.171875 -0.390625q-0.171875 -0.15625 -0.484375 -0.15625q-0.625 0 -1.125 0.453125q-0.5 0.453125 -0.71875 1.5625l-0.46875 2.25l-0.828125 0zm8.453491 -0.703125q-0.71875 0.8125 -1.484375 0.8125q-0.6875 0 -1.15625 -0.5q-0.453125 -0.515625 -0.453125 -1.484375q0 -0.875 0.359375 -1.609375q0.375 -0.734375 0.921875 -1.09375q0.546875 -0.375 1.078125 -0.375q0.90625 0 1.375 0.875l0.546875 -2.59375l0.8125 0l-1.390625 6.671875l-0.765625 0l0.15625 -0.703125zm-2.265625 -1.328125q0 0.515625 0.09375 0.8125q0.109375 0.28125 0.34375 0.484375q0.25 0.1875 0.578125 0.1875q0.5625 0 1.015625 -0.59375q0.609375 -0.765625 0.609375 -1.90625q0 -0.578125 -0.296875 -0.890625q-0.296875 -0.328125 -0.75 -0.328125q-0.296875 0 -0.546875 0.140625q-0.234375 0.125 -0.484375 0.4375q-0.234375 0.3125 -0.40625 0.8125q-0.15625 0.484375 -0.15625 0.84375zm8.701416 1.359375l-0.140625 0.671875q-0.296875 0.078125 -0.5625 0.078125q-0.5 0 -0.78125 -0.234375q-0.21875 -0.1875 -0.21875 -0.5q0 -0.15625 0.109375 -0.734375l0.59375 -2.8125l-0.65625 0l0.125 -0.640625l0.65625 0l0.25 -1.1875l0.953125 -0.5625l-0.375 1.75l0.8125 0l-0.140625 0.640625l-0.8125 0l-0.546875 2.671875q-0.109375 0.515625 -0.109375 0.609375q0 0.15625 0.078125 0.234375q0.09375 0.078125 0.28125 0.078125q0.265625 0 0.484375 -0.0625zm0.8103943 -1.15625q0 -1.421875 0.828125 -2.359375q0.703125 -0.765625 1.8125 -0.765625q0.875 0 1.40625 0.546875q0.53125 0.546875 0.53125 1.484375q0 0.828125 -0.34375 1.546875q-0.328125 0.71875 -0.953125 1.109375q-0.609375 0.375 -1.296875 0.375q-0.5625 0 -1.03125 -0.234375q-0.46875 -0.25 -0.71875 -0.6875q-0.234375 -0.4375 -0.234375 -1.015625zm0.828125 -0.09375q0 0.6875 0.328125 1.046875q0.328125 0.34375 0.828125 0.34375q0.265625 0 0.515625 -0.109375q0.265625 -0.109375 0.484375 -0.3125q0.234375 -0.21875 0.390625 -0.5q0.15625 -0.28125 0.25 -0.609375q0.140625 -0.453125 0.140625 -0.859375q0 -0.65625 -0.328125 -1.015625q-0.328125 -0.375 -0.828125 -0.375q-0.390625 0 -0.71875 0.1875q-0.3125 0.1875 -0.578125 0.546875q-0.25 0.34375 -0.375 0.828125q-0.109375 0.46875 -0.109375 0.828125zm8.732666 1.25l-0.140625 0.671875q-0.296875 0.078125 -0.5625 0.078125q-0.5 0 -0.78125 -0.234375q-0.21875 -0.1875 -0.21875 -0.5q0 -0.15625 0.109375 -0.734375l0.59375 -2.8125l-0.65625 0l0.125 -0.640625l0.65625 0l0.25 -1.1875l0.953125 -0.5625l-0.375 1.75l0.8125 0l-0.140625 0.640625l-0.8125 0l-0.546875 2.671875q-0.109375 0.515625 -0.109375 0.609375q0 0.15625 0.078125 0.234375q0.09375 0.078125 0.28125 0.078125q0.265625 0 0.484375 -0.0625zm3.9353943 0.078125q-0.4375 0.359375 -0.84375 0.53125q-0.390625 0.171875 -0.828125 0.171875q-0.671875 0 -1.09375 -0.390625q-0.40625 -0.390625 -0.40625 -1.015625q0 -0.40625 0.1875 -0.71875q0.1875 -0.3125 0.484375 -0.5q0.3125 -0.1875 0.75 -0.265625q0.28125 -0.0625 1.046875 -0.09375q0.78125 -0.03125 1.125 -0.15625q0.09375 -0.34375 0.09375 -0.5625q0 -0.28125 -0.203125 -0.453125q-0.296875 -0.21875 -0.84375 -0.21875q-0.515625 0 -0.84375 0.234375q-0.328125 0.21875 -0.484375 0.640625l-0.828125 -0.078125q0.25 -0.71875 0.796875 -1.09375q0.5625 -0.390625 1.40625 -0.390625q0.890625 0 1.421875 0.4375q0.390625 0.3125 0.390625 0.828125q0 0.390625 -0.109375 0.890625l-0.265625 1.203125q-0.125 0.578125 -0.125 0.9375q0 0.234375 0.09375 0.65625l-0.828125 0q-0.078125 -0.234375 -0.09375 -0.59375zm0.296875 -1.859375q-0.171875 0.078125 -0.375 0.109375q-0.1875 0.03125 -0.65625 0.078125q-0.71875 0.0625 -1.015625 0.15625q-0.296875 0.09375 -0.453125 0.3125q-0.140625 0.21875 -0.140625 0.46875q0 0.359375 0.234375 0.578125q0.234375 0.21875 0.6875 0.21875q0.40625 0 0.78125 -0.21875q0.375 -0.21875 0.59375 -0.59375q0.21875 -0.390625 0.34375 -1.109375zm1.6253662 2.453125l1.390625 -6.671875l0.828125 0l-0.5 2.375q0.390625 -0.359375 0.703125 -0.5q0.328125 -0.15625 0.671875 -0.15625q0.671875 0 1.125 0.515625q0.453125 0.5 0.453125 1.46875q0 0.640625 -0.1875 1.171875q-0.171875 0.53125 -0.4375 0.90625q-0.265625 0.359375 -0.5625 0.578125q-0.28125 0.203125 -0.578125 0.3125q-0.296875 0.109375 -0.578125 0.109375q-0.484375 0 -0.84375 -0.25q-0.359375 -0.25 -0.578125 -0.78125l-0.1875 0.921875l-0.71875 0zm1.21875 -1.984375l0 0.15625q0 0.609375 0.296875 0.9375q0.296875 0.328125 0.734375 0.328125q0.4375 0 0.796875 -0.296875q0.359375 -0.3125 0.59375 -0.953125q0.234375 -0.640625 0.234375 -1.1875q0 -0.609375 -0.296875 -0.9375q-0.296875 -0.34375 -0.734375 -0.34375q-0.4375 0 -0.8125 0.34375q-0.375 0.34375 -0.625 1.0625q-0.1875 0.53125 -0.1875 0.890625zm3.9066162 1.984375l1.390625 -6.671875l0.828125 0l-1.390625 6.671875l-0.828125 0zm5.681793 -1.640625l0.8125 0.078125q-0.1875 0.59375 -0.8125 1.140625q-0.609375 0.53125 -1.46875 0.53125q-0.546875 0 -1.0 -0.25q-0.4375 -0.25 -0.671875 -0.71875q-0.234375 -0.46875 -0.234375 -1.078125q0 -0.796875 0.359375 -1.53125q0.375 -0.75 0.953125 -1.109375q0.578125 -0.375 1.265625 -0.375q0.859375 0 1.375 0.546875q0.515625 0.53125 0.515625 1.46875q0 0.34375 -0.0625 0.71875l-3.5625 0q-0.015625 0.140625 -0.015625 0.265625q0 0.671875 0.3125 1.03125q0.3125 0.359375 0.765625 0.359375q0.421875 0 0.828125 -0.28125q0.421875 -0.28125 0.640625 -0.796875zm-2.390625 -1.203125l2.71875 0q0 -0.125 0 -0.1875q0 -0.609375 -0.3125 -0.9375q-0.3125 -0.328125 -0.796875 -0.328125q-0.53125 0 -0.96875 0.359375q-0.421875 0.359375 -0.640625 1.09375zm8.545166 2.171875l-0.140625 0.671875q-0.296875 0.078125 -0.5625 0.078125q-0.5 0 -0.78125 -0.234375q-0.21875 -0.1875 -0.21875 -0.5q0 -0.15625 0.109375 -0.734375l0.59375 -2.8125l-0.65625 0l0.125 -0.640625l0.65625 0l0.25 -1.1875l0.953125 -0.5625l-0.375 1.75l0.8125 0l-0.140625 0.640625l-0.8125 0l-0.546875 2.671875q-0.109375 0.515625 -0.109375 0.609375q0 0.15625 0.078125 0.234375q0.09375 0.078125 0.28125 0.078125q0.265625 0 0.484375 -0.0625zm0.8103943 -1.15625q0 -1.421875 0.828125 -2.359375q0.703125 -0.765625 1.8125 -0.765625q0.875 0 1.40625 0.546875q0.53125 0.546875 0.53125 1.484375q0 0.828125 -0.34375 1.546875q-0.328125 0.71875 -0.953125 1.109375q-0.609375 0.375 -1.296875 0.375q-0.5625 0 -1.03125 -0.234375q-0.46875 -0.25 -0.71875 -0.6875q-0.234375 -0.4375 -0.234375 -1.015625zm0.828125 -0.09375q0 0.6875 0.328125 1.046875q0.328125 0.34375 0.828125 0.34375q0.265625 0 0.515625 -0.109375q0.265625 -0.109375 0.484375 -0.3125q0.234375 -0.21875 0.390625 -0.5q0.15625 -0.28125 0.25 -0.609375q0.140625 -0.453125 0.140625 -0.859375q0 -0.65625 -0.328125 -1.015625q-0.328125 -0.375 -0.828125 -0.375q-0.390625 0 -0.71875 0.1875q-0.3125 0.1875 -0.578125 0.546875q-0.25 0.34375 -0.375 0.828125q-0.109375 0.46875 -0.109375 0.828125z" fill-rule="nonzero"/><path fill="#666666" d="m251.50282 168.93611l1.015625 -4.84375l0.71875 0l-0.203125 1.0q0.375 -0.5625 0.734375 -0.828125q0.359375 -0.28125 0.734375 -0.28125q0.234375 0 0.59375 0.1875l-0.328125 0.765625q-0.21875 -0.15625 -0.46875 -0.15625q-0.4375 0 -0.890625 0.484375q-0.453125 0.484375 -0.71875 1.734375l-0.40625 1.9375l-0.78125 0zm6.6532135 -1.640625l0.8125 0.078125q-0.1875 0.59375 -0.8125 1.140625q-0.609375 0.53125 -1.46875 0.53125q-0.546875 0 -1.0 -0.25q-0.4375 -0.25 -0.671875 -0.71875q-0.234375 -0.46875 -0.234375 -1.078125q0 -0.796875 0.359375 -1.53125q0.375 -0.75 0.953125 -1.109375q0.578125 -0.375 1.265625 -0.375q0.859375 0 1.375 0.546875q0.515625 0.53125 0.515625 1.46875q0 0.34375 -0.0625 0.71875l-3.5625 0q-0.015625 0.140625 -0.015625 0.265625q0 0.671875 0.3125 1.03125q0.3125 0.359375 0.765625 0.359375q0.421875 0 0.828125 -0.28125q0.421875 -0.28125 0.640625 -0.796875zm-2.390625 -1.203125l2.71875 0q0 -0.125 0 -0.1875q0 -0.609375 -0.3125 -0.9375q-0.3125 -0.328125 -0.796875 -0.328125q-0.53125 0 -0.96875 0.359375q-0.421875 0.359375 -0.640625 1.09375zm4.031616 2.84375l1.0 -4.84375l0.828125 0l-0.171875 0.796875q0.46875 -0.515625 0.828125 -0.703125q0.359375 -0.203125 0.78125 -0.203125q0.453125 0 0.75 0.25q0.3125 0.234375 0.40625 0.65625q0.359375 -0.453125 0.765625 -0.671875q0.421875 -0.234375 0.875 -0.234375q0.59375 0 0.890625 0.296875q0.3125 0.28125 0.3125 0.796875q0 0.234375 -0.109375 0.75l-0.640625 3.109375l-0.828125 0l0.65625 -3.203125q0.09375 -0.390625 0.09375 -0.546875q0 -0.25 -0.15625 -0.375q-0.140625 -0.140625 -0.421875 -0.140625q-0.359375 0 -0.75 0.21875q-0.375 0.21875 -0.59375 0.59375q-0.203125 0.359375 -0.375 1.109375l-0.484375 2.34375l-0.828125 0l0.6875 -3.265625q0.078125 -0.328125 0.078125 -0.46875q0 -0.234375 -0.15625 -0.375q-0.140625 -0.15625 -0.390625 -0.15625q-0.34375 0 -0.734375 0.21875q-0.375 0.21875 -0.625 0.625q-0.234375 0.390625 -0.390625 1.140625l-0.484375 2.28125l-0.8125 0zm7.9110107 -1.828125q0 -1.421875 0.828125 -2.359375q0.703125 -0.765625 1.8125 -0.765625q0.875 0 1.40625 0.546875q0.53125 0.546875 0.53125 1.484375q0 0.828125 -0.34375 1.546875q-0.328125 0.71875 -0.953125 1.109375q-0.609375 0.375 -1.296875 0.375q-0.5625 0 -1.03125 -0.234375q-0.46875 -0.25 -0.71875 -0.6875q-0.234375 -0.4375 -0.234375 -1.015625zm0.828125 -0.09375q0 0.6875 0.328125 1.046875q0.328125 0.34375 0.828125 0.34375q0.265625 0 0.515625 -0.109375q0.265625 -0.109375 0.484375 -0.3125q0.234375 -0.21875 0.390625 -0.5q0.15625 -0.28125 0.25 -0.609375q0.140625 -0.453125 0.140625 -0.859375q0 -0.65625 -0.328125 -1.015625q-0.328125 -0.375 -0.828125 -0.375q-0.390625 0 -0.71875 0.1875q-0.3125 0.1875 -0.578125 0.546875q-0.25 0.34375 -0.375 0.828125q-0.109375 0.46875 -0.109375 0.828125zm5.437866 1.921875l-0.796875 -4.84375l0.8125 0l0.40625 2.671875q0.0625 0.4375 0.171875 1.421875q0.234375 -0.515625 0.609375 -1.171875l1.609375 -2.921875l0.875 0l-2.765625 4.84375l-0.921875 0zm6.9921875 -1.640625l0.8125 0.078125q-0.1875 0.59375 -0.8125 1.140625q-0.609375 0.53125 -1.46875 0.53125q-0.546875 0 -1.0 -0.25q-0.4375 -0.25 -0.671875 -0.71875q-0.234375 -0.46875 -0.234375 -1.078125q0 -0.796875 0.359375 -1.53125q0.375 -0.75 0.953125 -1.109375q0.578125 -0.375 1.265625 -0.375q0.859375 0 1.375 0.546875q0.515625 0.53125 0.515625 1.46875q0 0.34375 -0.0625 0.71875l-3.5625 0q-0.015625 0.140625 -0.015625 0.265625q0 0.671875 0.3125 1.03125q0.3125 0.359375 0.765625 0.359375q0.421875 0 0.828125 -0.28125q0.421875 -0.28125 0.640625 -0.796875zm-2.390625 -1.203125l2.71875 0q0 -0.125 0 -0.1875q0 -0.609375 -0.3125 -0.9375q-0.3125 -0.328125 -0.796875 -0.328125q-0.53125 0 -0.96875 0.359375q-0.421875 0.359375 -0.640625 1.09375zm6.701416 1.1875l0.828125 -0.046875q0 0.359375 0.109375 0.609375q0.109375 0.25 0.390625 0.40625q0.296875 0.15625 0.6875 0.15625q0.546875 0 0.8125 -0.21875q0.28125 -0.21875 0.28125 -0.515625q0 -0.203125 -0.15625 -0.40625q-0.171875 -0.1875 -0.828125 -0.46875q-0.65625 -0.28125 -0.828125 -0.390625q-0.3125 -0.1875 -0.46875 -0.4375q-0.15625 -0.25 -0.15625 -0.578125q0 -0.578125 0.453125 -0.984375q0.46875 -0.421875 1.28125 -0.421875q0.90625 0 1.375 0.421875q0.484375 0.421875 0.5 1.109375l-0.796875 0.0625q-0.015625 -0.4375 -0.3125 -0.6875q-0.296875 -0.265625 -0.828125 -0.265625q-0.421875 0 -0.671875 0.203125q-0.234375 0.1875 -0.234375 0.421875q0 0.21875 0.21875 0.40625q0.125 0.109375 0.703125 0.359375q0.9375 0.40625 1.1875 0.640625q0.390625 0.375 0.390625 0.921875q0 0.359375 -0.21875 0.703125q-0.21875 0.34375 -0.671875 0.5625q-0.453125 0.203125 -1.0625 0.203125q-0.84375 0 -1.4375 -0.421875q-0.578125 -0.40625 -0.546875 -1.34375zm4.7265625 -0.171875q0 -1.421875 0.828125 -2.359375q0.703125 -0.765625 1.8125 -0.765625q0.875 0 1.40625 0.546875q0.53125 0.546875 0.53125 1.484375q0 0.828125 -0.34375 1.546875q-0.328125 0.71875 -0.953125 1.109375q-0.609375 0.375 -1.296875 0.375q-0.5625 0 -1.03125 -0.234375q-0.46875 -0.25 -0.71875 -0.6875q-0.234375 -0.4375 -0.234375 -1.015625zm0.828125 -0.09375q0 0.6875 0.328125 1.046875q0.328125 0.34375 0.828125 0.34375q0.265625 0 0.515625 -0.109375q0.265625 -0.109375 0.484375 -0.3125q0.234375 -0.21875 0.390625 -0.5q0.15625 -0.28125 0.25 -0.609375q0.140625 -0.453125 0.140625 -0.859375q0 -0.65625 -0.328125 -1.015625q-0.328125 -0.375 -0.828125 -0.375q-0.390625 0 -0.71875 0.1875q-0.3125 0.1875 -0.578125 0.546875q-0.25 0.34375 -0.375 0.828125q-0.109375 0.46875 -0.109375 0.828125zm4.219116 1.921875l1.0 -4.84375l0.828125 0l-0.171875 0.796875q0.46875 -0.515625 0.828125 -0.703125q0.359375 -0.203125 0.78125 -0.203125q0.453125 0 0.75 0.25q0.3125 0.234375 0.40625 0.65625q0.359375 -0.453125 0.765625 -0.671875q0.421875 -0.234375 0.875 -0.234375q0.59375 0 0.890625 0.296875q0.3125 0.28125 0.3125 0.796875q0 0.234375 -0.109375 0.75l-0.640625 3.109375l-0.828125 0l0.65625 -3.203125q0.09375 -0.390625 0.09375 -0.546875q0 -0.25 -0.15625 -0.375q-0.140625 -0.140625 -0.421875 -0.140625q-0.359375 0 -0.75 0.21875q-0.375 0.21875 -0.59375 0.59375q-0.203125 0.359375 -0.375 1.109375l-0.484375 2.34375l-0.828125 0l0.6875 -3.265625q0.078125 -0.328125 0.078125 -0.46875q0 -0.234375 -0.15625 -0.375q-0.140625 -0.15625 -0.390625 -0.15625q-0.34375 0 -0.734375 0.21875q-0.375 0.21875 -0.625 0.625q-0.234375 0.390625 -0.390625 1.140625l-0.484375 2.28125l-0.8125 0zm11.317261 -1.640625l0.8125 0.078125q-0.1875 0.59375 -0.8125 1.140625q-0.609375 0.53125 -1.46875 0.53125q-0.546875 0 -1.0 -0.25q-0.4375 -0.25 -0.671875 -0.71875q-0.234375 -0.46875 -0.234375 -1.078125q0 -0.796875 0.359375 -1.53125q0.375 -0.75 0.953125 -1.109375q0.578125 -0.375 1.265625 -0.375q0.859375 0 1.375 0.546875q0.515625 0.53125 0.515625 1.46875q0 0.34375 -0.0625 0.71875l-3.5625 0q-0.015625 0.140625 -0.015625 0.265625q0 0.671875 0.3125 1.03125q0.3125 0.359375 0.765625 0.359375q0.421875 0 0.828125 -0.28125q0.421875 -0.28125 0.640625 -0.796875zm-2.390625 -1.203125l2.71875 0q0 -0.125 0 -0.1875q0 -0.609375 -0.3125 -0.9375q-0.3125 -0.328125 -0.796875 -0.328125q-0.53125 0 -0.96875 0.359375q-0.421875 0.359375 -0.640625 1.09375zm6.732666 2.84375l0.875 -4.203125l-0.734375 0l0.140625 -0.640625l0.734375 0l0.140625 -0.6875q0.109375 -0.515625 0.21875 -0.734375q0.125 -0.234375 0.375 -0.375q0.265625 -0.15625 0.71875 -0.15625q0.3125 0 0.90625 0.140625l-0.140625 0.71875q-0.421875 -0.109375 -0.703125 -0.109375q-0.25 0 -0.375 0.125q-0.125 0.109375 -0.203125 0.5625l-0.109375 0.515625l0.90625 0l-0.125 0.640625l-0.921875 0l-0.875 4.203125l-0.828125 0zm2.6228943 -1.828125q0 -1.421875 0.828125 -2.359375q0.703125 -0.765625 1.8125 -0.765625q0.875 0 1.40625 0.546875q0.53125 0.546875 0.53125 1.484375q0 0.828125 -0.34375 1.546875q-0.328125 0.71875 -0.953125 1.109375q-0.609375 0.375 -1.296875 0.375q-0.5625 0 -1.03125 -0.234375q-0.46875 -0.25 -0.71875 -0.6875q-0.234375 -0.4375 -0.234375 -1.015625zm0.828125 -0.09375q0 0.6875 0.328125 1.046875q0.328125 0.34375 0.828125 0.34375q0.265625 0 0.515625 -0.109375q0.265625 -0.109375 0.484375 -0.3125q0.234375 -0.21875 0.390625 -0.5q0.15625 -0.28125 0.25 -0.609375q0.140625 -0.453125 0.140625 -0.859375q0 -0.65625 -0.328125 -1.015625q-0.328125 -0.375 -0.828125 -0.375q-0.390625 0 -0.71875 0.1875q-0.3125 0.1875 -0.578125 0.546875q-0.25 0.34375 -0.375 0.828125q-0.109375 0.46875 -0.109375 0.828125zm4.359741 0.09375q0 -1.421875 0.828125 -2.359375q0.703125 -0.765625 1.8125 -0.765625q0.875 0 1.40625 0.546875q0.53125 0.546875 0.53125 1.484375q0 0.828125 -0.34375 1.546875q-0.328125 0.71875 -0.953125 1.109375q-0.609375 0.375 -1.296875 0.375q-0.5625 0 -1.03125 -0.234375q-0.46875 -0.25 -0.71875 -0.6875q-0.234375 -0.4375 -0.234375 -1.015625zm0.828125 -0.09375q0 0.6875 0.328125 1.046875q0.328125 0.34375 0.828125 0.34375q0.265625 0 0.515625 -0.109375q0.265625 -0.109375 0.484375 -0.3125q0.234375 -0.21875 0.390625 -0.5q0.15625 -0.28125 0.25 -0.609375q0.140625 -0.453125 0.140625 -0.859375q0 -0.65625 -0.328125 -1.015625q-0.328125 -0.375 -0.828125 -0.375q-0.390625 0 -0.71875 0.1875q-0.3125 0.1875 -0.578125 0.546875q-0.25 0.34375 -0.375 0.828125q-0.109375 0.46875 -0.109375 0.828125zm7.484741 1.21875q-0.71875 0.8125 -1.484375 0.8125q-0.6875 0 -1.15625 -0.5q-0.453125 -0.515625 -0.453125 -1.484375q0 -0.875 0.359375 -1.609375q0.375 -0.734375 0.921875 -1.09375q0.546875 -0.375 1.078125 -0.375q0.90625 0 1.375 0.875l0.546875 -2.59375l0.8125 0l-1.390625 6.671875l-0.765625 0l0.15625 -0.703125zm-2.265625 -1.328125q0 0.515625 0.09375 0.8125q0.109375 0.28125 0.34375 0.484375q0.25 0.1875 0.578125 0.1875q0.5625 0 1.015625 -0.59375q0.609375 -0.765625 0.609375 -1.90625q0 -0.578125 -0.296875 -0.890625q-0.296875 -0.328125 -0.75 -0.328125q-0.296875 0 -0.546875 0.140625q-0.234375 0.125 -0.484375 0.4375q-0.234375 0.3125 -0.40625 0.8125q-0.15625 0.484375 -0.15625 0.84375zm5.125366 -3.6875l0.203125 -0.9375l0.9375 0l-0.171875 0.828125q-0.15625 0.734375 -0.484375 1.078125q-0.3125 0.328125 -0.765625 0.390625l0.078125 -0.359375q0.546875 -0.15625 0.71875 -1.0l-0.515625 0zm1.515625 0l0.1875 -0.9375l0.9375 0l-0.171875 0.828125q-0.140625 0.734375 -0.46875 1.078125q-0.328125 0.328125 -0.765625 0.390625l0.0625 -0.359375q0.546875 -0.15625 0.71875 -1.0l-0.5 0z" fill-rule="nonzero"/><path fill="#ffffff" d="m451.01968 32.95801l221.79526 0l0 176.47244l-221.79526 0z" fill-rule="evenodd"/><path stroke="#000000" stroke-width="1.3333333333333333" stroke-linejoin="round" stroke-linecap="butt" d="m449.68634 32.95801c0 -0.7363777 0.59695435 -1.3333321 1.3333435 -1.3333321l221.79526 0c0.73638916 0 1.333374 0.59695435 1.333374 1.3333321l0 176.47244c0 0.7363739 -0.59698486 1.3333282 -1.333374 1.3333282l-221.79526 0c-0.73638916 0 -1.3333435 -0.59695435 -1.3333435 -1.3333282z" fill-rule="nonzero"/><path stroke="#000000" stroke-width="1.3333333333333333" stroke-linejoin="round" stroke-linecap="butt" d="m452.35303 34.291348l219.1286 0l0 173.80576l-219.1286 0z" fill-rule="nonzero"/><path fill="#000000" fill-opacity="0.0" d="m465.6838 186.81761l44.629944 0" fill-rule="evenodd"/><path stroke="#660000" stroke-width="1.0" stroke-linejoin="round" stroke-linecap="butt" d="m465.6838 186.81763l38.629913 0" fill-rule="evenodd"/><path stroke="#660000" stroke-width="1.0" stroke-linecap="butt" d="m504.31372 188.46936l4.5381165 -1.6517334l-4.5381165 -1.6517334z" fill-rule="evenodd"/><path fill="#000000" fill-opacity="0.0" d="m514.38666 125.986496l169.92126 0l0 35.55905l-169.92126 0z" fill-rule="evenodd"/><path fill="#434343" d="m523.9804 144.724l1.203125 -0.109375q0.078125 0.71875 0.390625 1.1875q0.3125 0.453125 0.953125 0.734375q0.65625 0.28125 1.46875 0.28125q0.71875 0 1.265625 -0.21875q0.5625 -0.21875 0.828125 -0.578125q0.265625 -0.375 0.265625 -0.828125q0 -0.453125 -0.265625 -0.78125q-0.25 -0.328125 -0.84375 -0.5625q-0.390625 -0.15625 -1.703125 -0.46875q-1.3125 -0.3125 -1.84375 -0.59375q-0.671875 -0.359375 -1.015625 -0.890625q-0.328125 -0.53125 -0.328125 -1.1875q0 -0.71875 0.40625 -1.34375q0.40625 -0.625 1.1875 -0.953125q0.796875 -0.328125 1.765625 -0.328125q1.046875 0 1.859375 0.34375q0.8125 0.34375 1.25 1.015625q0.4375 0.65625 0.46875 1.484375l-1.203125 0.09375q-0.109375 -0.90625 -0.671875 -1.359375q-0.5625 -0.46875 -1.65625 -0.46875q-1.140625 0 -1.671875 0.421875q-0.515625 0.421875 -0.515625 1.015625q0 0.515625 0.359375 0.84375q0.375 0.328125 1.90625 0.6875q1.546875 0.34375 2.109375 0.59375q0.84375 0.390625 1.234375 0.984375q0.390625 0.578125 0.390625 1.359375q0 0.75 -0.4375 1.4375q-0.421875 0.671875 -1.25 1.046875q-0.8125 0.359375 -1.828125 0.359375q-1.296875 0 -2.171875 -0.375q-0.875 -0.375 -1.375 -1.125q-0.5 -0.765625 -0.53125 -1.71875zm11.733459 2.015625l0.171875 1.03125q-0.5 0.109375 -0.890625 0.109375q-0.640625 0 -1.0 -0.203125q-0.34375 -0.203125 -0.484375 -0.53125q-0.140625 -0.328125 -0.140625 -1.390625l0 -3.96875l-0.859375 0l0 -0.90625l0.859375 0l0 -1.71875l1.171875 -0.703125l0 2.421875l1.171875 0l0 0.90625l-1.171875 0l0 4.046875q0 0.5 0.046875 0.640625q0.0625 0.140625 0.203125 0.234375q0.140625 0.078125 0.40625 0.078125q0.203125 0 0.515625 -0.046875zm5.656128 0.1875q-0.65625 0.5625 -1.265625 0.796875q-0.59375 0.21875 -1.28125 0.21875q-1.140625 0 -1.75 -0.546875q-0.609375 -0.5625 -0.609375 -1.4375q0 -0.5 0.21875 -0.921875q0.234375 -0.421875 0.609375 -0.671875q0.375 -0.25 0.84375 -0.390625q0.34375 -0.078125 1.046875 -0.171875q1.421875 -0.171875 2.09375 -0.40625q0 -0.234375 0 -0.296875q0 -0.71875 -0.328125 -1.015625q-0.453125 -0.390625 -1.34375 -0.390625q-0.8125 0 -1.21875 0.296875q-0.390625 0.28125 -0.578125 1.015625l-1.140625 -0.15625q0.15625 -0.734375 0.515625 -1.1875q0.359375 -0.453125 1.03125 -0.6875q0.671875 -0.25 1.5625 -0.25q0.890625 0 1.4375 0.203125q0.5625 0.203125 0.8125 0.53125q0.265625 0.3125 0.375 0.796875q0.046875 0.296875 0.046875 1.078125l0 1.5625q0 1.625 0.078125 2.0625q0.078125 0.4375 0.296875 0.828125l-1.21875 0q-0.1875 -0.359375 -0.234375 -0.859375zm-0.09375 -2.609375q-0.640625 0.265625 -1.921875 0.4375q-0.71875 0.109375 -1.015625 0.25q-0.296875 0.125 -0.46875 0.375q-0.15625 0.25 -0.15625 0.546875q0 0.46875 0.34375 0.78125q0.359375 0.3125 1.046875 0.3125q0.671875 0 1.203125 -0.296875q0.53125 -0.296875 0.78125 -0.8125q0.1875 -0.390625 0.1875 -1.171875l0 -0.421875zm5.5531006 2.421875l0.171875 1.03125q-0.5 0.109375 -0.890625 0.109375q-0.640625 0 -1.0 -0.203125q-0.34375 -0.203125 -0.484375 -0.53125q-0.140625 -0.328125 -0.140625 -1.390625l0 -3.96875l-0.859375 0l0 -0.90625l0.859375 0l0 -1.71875l1.171875 -0.703125l0 2.421875l1.171875 0l0 0.90625l-1.171875 0l0 4.046875q0 0.5 0.046875 0.640625q0.0625 0.140625 0.203125 0.234375q0.140625 0.078125 0.40625 0.078125q0.203125 0 0.515625 -0.046875zm5.874878 -1.171875l1.203125 0.140625q-0.28125 1.0625 -1.0625 1.65625q-0.765625 0.578125 -1.96875 0.578125q-1.515625 0 -2.40625 -0.9375q-0.890625 -0.9375 -0.890625 -2.609375q0 -1.75 0.890625 -2.703125q0.90625 -0.96875 2.34375 -0.96875q1.390625 0 2.265625 0.9375q0.875 0.9375 0.875 2.65625q0 0.109375 0 0.3125l-5.15625 0q0.0625 1.140625 0.640625 1.75q0.578125 0.59375 1.4375 0.59375q0.65625 0 1.109375 -0.328125q0.453125 -0.34375 0.71875 -1.078125zm-3.84375 -1.90625l3.859375 0q-0.078125 -0.859375 -0.4375 -1.296875q-0.5625 -0.6875 -1.453125 -0.6875q-0.8125 0 -1.359375 0.546875q-0.546875 0.53125 -0.609375 1.4375z" fill-rule="nonzero"/><path fill="#000000" fill-opacity="0.0" d="m514.38666 169.03738l169.92126 0l0 35.559067l-169.92126 0z" fill-rule="evenodd"/><path fill="#434343" d="m526.8398 190.83739l0 -8.421875l-3.140625 0l0 -1.125l7.5625 0l0 1.125l-3.15625 0l0 8.421875l-1.265625 0zm5.0527954 0l0 -6.90625l1.0625 0l0 1.046875q0.40625 -0.734375 0.734375 -0.96875q0.34375 -0.234375 0.765625 -0.234375q0.59375 0 1.203125 0.375l-0.40625 1.078125q-0.4375 -0.25 -0.859375 -0.25q-0.390625 0 -0.703125 0.234375q-0.296875 0.234375 -0.421875 0.640625q-0.203125 0.625 -0.203125 1.359375l0 3.625l-1.171875 0zm8.9696045 -0.859375q-0.65625 0.5625 -1.265625 0.796875q-0.59375 0.21875 -1.28125 0.21875q-1.140625 0 -1.75 -0.546875q-0.609375 -0.5625 -0.609375 -1.4375q0 -0.5 0.21875 -0.921875q0.234375 -0.421875 0.609375 -0.671875q0.375 -0.25 0.84375 -0.390625q0.34375 -0.078125 1.046875 -0.171875q1.421875 -0.171875 2.09375 -0.40625q0 -0.234375 0 -0.296875q0 -0.71875 -0.328125 -1.015625q-0.453125 -0.390625 -1.34375 -0.390625q-0.8125 0 -1.21875 0.296875q-0.390625 0.28125 -0.578125 1.015625l-1.140625 -0.15625q0.15625 -0.734375 0.515625 -1.1875q0.359375 -0.453125 1.03125 -0.6875q0.671875 -0.25 1.5625 -0.25q0.890625 0 1.4375 0.203125q0.5625 0.203125 0.8125 0.53125q0.265625 0.3125 0.375 0.796875q0.046875 0.296875 0.046875 1.078125l0 1.5625q0 1.625 0.078125 2.0625q0.078125 0.4375 0.296875 0.828125l-1.21875 0q-0.1875 -0.359375 -0.234375 -0.859375zm-0.09375 -2.609375q-0.640625 0.265625 -1.921875 0.4375q-0.71875 0.109375 -1.015625 0.25q-0.296875 0.125 -0.46875 0.375q-0.15625 0.25 -0.15625 0.546875q0 0.46875 0.34375 0.78125q0.359375 0.3125 1.046875 0.3125q0.671875 0 1.203125 -0.296875q0.53125 -0.296875 0.78125 -0.8125q0.1875 -0.390625 0.1875 -1.171875l0 -0.421875zm2.9906006 3.46875l0 -6.90625l1.0625 0l0 0.984375q0.75 -1.140625 2.1875 -1.140625q0.625 0 1.15625 0.21875q0.53125 0.21875 0.78125 0.59375q0.265625 0.359375 0.375 0.859375q0.0625 0.328125 0.0625 1.140625l0 4.25l-1.171875 0l0 -4.203125q0 -0.71875 -0.140625 -1.0625q-0.140625 -0.359375 -0.484375 -0.5625q-0.34375 -0.21875 -0.8125 -0.21875q-0.75 0 -1.296875 0.46875q-0.546875 0.46875 -0.546875 1.796875l0 3.78125l-1.171875 0zm6.9437256 -2.0625l1.15625 -0.1875q0.109375 0.703125 0.546875 1.078125q0.453125 0.359375 1.25 0.359375q0.8125 0 1.203125 -0.328125q0.390625 -0.328125 0.390625 -0.765625q0 -0.390625 -0.359375 -0.625q-0.234375 -0.15625 -1.1875 -0.390625q-1.296875 -0.328125 -1.796875 -0.5625q-0.484375 -0.25 -0.75 -0.65625q-0.25 -0.421875 -0.25 -0.9375q0 -0.453125 0.203125 -0.84375q0.21875 -0.40625 0.578125 -0.671875q0.28125 -0.1875 0.75 -0.328125q0.46875 -0.140625 1.015625 -0.140625q0.8125 0 1.421875 0.234375q0.609375 0.234375 0.90625 0.640625q0.296875 0.390625 0.40625 1.0625l-1.140625 0.15625q-0.078125 -0.53125 -0.453125 -0.828125q-0.375 -0.3125 -1.0625 -0.3125q-0.8125 0 -1.15625 0.265625q-0.34375 0.265625 -0.34375 0.625q0 0.234375 0.140625 0.421875q0.15625 0.1875 0.453125 0.3125q0.171875 0.0625 1.03125 0.296875q1.25 0.328125 1.734375 0.546875q0.5 0.203125 0.78125 0.609375q0.28125 0.40625 0.28125 1.0q0 0.59375 -0.34375 1.109375q-0.34375 0.515625 -1.0 0.796875q-0.640625 0.28125 -1.453125 0.28125q-1.34375 0 -2.046875 -0.5625q-0.703125 -0.5625 -0.90625 -1.65625zm7.1484375 -6.125l0 -1.359375l1.171875 0l0 1.359375l-1.171875 0zm0 8.1875l0 -6.90625l1.171875 0l0 6.90625l-1.171875 0zm5.5079956 -1.046875l0.171875 1.03125q-0.5 0.109375 -0.890625 0.109375q-0.640625 0 -1.0 -0.203125q-0.34375 -0.203125 -0.484375 -0.53125q-0.140625 -0.328125 -0.140625 -1.390625l0 -3.96875l-0.859375 0l0 -0.90625l0.859375 0l0 -1.71875l1.171875 -0.703125l0 2.421875l1.171875 0l0 0.90625l-1.171875 0l0 4.046875q0 0.5 0.046875 0.640625q0.0625 0.140625 0.203125 0.234375q0.140625 0.078125 0.40625 0.078125q0.203125 0 0.515625 -0.046875zm1.1560669 -7.140625l0 -1.359375l1.171875 0l0 1.359375l-1.171875 0zm0 8.1875l0 -6.90625l1.171875 0l0 6.90625l-1.171875 0zm2.5079956 -3.453125q0 -1.921875 1.078125 -2.84375q0.890625 -0.765625 2.171875 -0.765625q1.421875 0 2.328125 0.9375q0.90625 0.921875 0.90625 2.578125q0 1.328125 -0.40625 2.09375q-0.390625 0.765625 -1.15625 1.1875q-0.765625 0.421875 -1.671875 0.421875q-1.453125 0 -2.359375 -0.921875q-0.890625 -0.9375 -0.890625 -2.6875zm1.203125 0q0 1.328125 0.578125 1.984375q0.59375 0.65625 1.46875 0.65625q0.875 0 1.453125 -0.65625q0.578125 -0.671875 0.578125 -2.03125q0 -1.28125 -0.59375 -1.9375q-0.578125 -0.65625 -1.4375 -0.65625q-0.875 0 -1.46875 0.65625q-0.578125 0.65625 -0.578125 1.984375zm6.6468506 3.453125l0 -6.90625l1.0625 0l0 0.984375q0.75 -1.140625 2.1875 -1.140625q0.625 0 1.15625 0.21875q0.53125 0.21875 0.78125 0.59375q0.265625 0.359375 0.375 0.859375q0.0625 0.328125 0.0625 1.140625l0 4.25l-1.171875 0l0 -4.203125q0 -0.71875 -0.140625 -1.0625q-0.140625 -0.359375 -0.484375 -0.5625q-0.34375 -0.21875 -0.8125 -0.21875q-0.75 0 -1.296875 0.46875q-0.546875 0.46875 -0.546875 1.796875l0 3.78125l-1.171875 0z" fill-rule="nonzero"/><path fill="#000000" fill-opacity="0.0" d="m456.76224 28.495869l210.29922 0l0 38.771656l-210.29922 0z" fill-rule="evenodd"/><path fill="#000000" d="m534.18524 52.85587l2.40625 -11.453125l2.34375 0l-1.984375 9.53125l5.828125 0l-0.40625 1.921875l-8.1875 0zm17.773438 -3.453125l-5.625 0q0 0.125 0 0.203125q0 0.828125 0.46875 1.34375q0.46875 0.5 1.15625 0.5q1.109375 0 1.734375 -1.15625l2.015625 0.328125q-0.59375 1.21875 -1.578125 1.828125q-0.96875 0.609375 -2.1875 0.609375q-1.671875 0 -2.71875 -1.0625q-1.046875 -1.0625 -1.046875 -2.8125q0 -1.703125 0.9375 -3.03125q1.296875 -1.796875 3.6875 -1.796875q1.515625 0 2.40625 0.953125q0.90625 0.9375 0.90625 2.625q0 0.8125 -0.15625 1.46875zm-1.890625 -1.375q0.015625 -0.140625 0.015625 -0.21875q0 -0.921875 -0.421875 -1.375q-0.40625 -0.46875 -1.109375 -0.46875q-0.6875 0 -1.25 0.53125q-0.546875 0.515625 -0.734375 1.53125l3.5 0zm2.6015625 5.265625l2.359375 0.34375q0 0.359375 0.109375 0.546875q0.125 0.1875 0.390625 0.3125q0.265625 0.125 0.71875 0.125q0.703125 0 1.140625 -0.28125q0.3125 -0.21875 0.515625 -0.703125q0.125 -0.296875 0.328125 -1.328125l0.078125 -0.390625q-1.171875 0.96875 -2.40625 0.96875q-1.21875 0 -2.0 -0.859375q-0.78125 -0.859375 -0.78125 -2.515625q0 -1.46875 0.53125 -2.6875q0.53125 -1.21875 1.484375 -1.84375q0.96875 -0.625 1.96875 -0.625q0.828125 0 1.515625 0.4375q0.6875 0.4375 1.0625 1.234375l0.3125 -1.46875l2.109375 0l-1.4375 6.90625q-0.359375 1.671875 -0.609375 2.375q-0.234375 0.71875 -0.546875 1.140625q-0.3125 0.421875 -0.796875 0.703125q-0.46875 0.296875 -1.125 0.421875q-0.640625 0.125 -1.390625 0.125q-1.765625 0 -2.671875 -0.609375q-0.890625 -0.59375 -0.890625 -2.0q0 -0.140625 0.03125 -0.328125zm2.640625 -4.015625q0 0.953125 0.421875 1.453125q0.421875 0.484375 1.0625 0.484375q0.59375 0 1.140625 -0.4375q0.546875 -0.453125 0.84375 -1.265625q0.296875 -0.828125 0.296875 -1.59375q0 -0.875 -0.484375 -1.40625q-0.46875 -0.546875 -1.09375 -0.546875q-0.609375 0 -1.109375 0.484375q-0.5 0.46875 -0.828125 1.453125q-0.25 0.765625 -0.25 1.375zm15.3203125 0.125l-5.625 0q0 0.125 0 0.203125q0 0.828125 0.46875 1.34375q0.46875 0.5 1.15625 0.5q1.109375 0 1.734375 -1.15625l2.015625 0.328125q-0.59375 1.21875 -1.578125 1.828125q-0.96875 0.609375 -2.1875 0.609375q-1.671875 0 -2.71875 -1.0625q-1.046875 -1.0625 -1.046875 -2.8125q0 -1.703125 0.9375 -3.03125q1.296875 -1.796875 3.6875 -1.796875q1.515625 0 2.40625 0.953125q0.90625 0.9375 0.90625 2.625q0 0.8125 -0.15625 1.46875zm-1.890625 -1.375q0.015625 -0.140625 0.015625 -0.21875q0 -0.921875 -0.421875 -1.375q-0.40625 -0.46875 -1.109375 -0.46875q-0.6875 0 -1.25 0.53125q-0.546875 0.515625 -0.734375 1.53125l3.5 0zm4.4765625 -3.46875l2.125 0l-0.21875 1.078125q0.796875 -0.6875 1.484375 -0.984375q0.703125 -0.296875 1.46875 -0.296875q1.015625 0 1.609375 0.59375q0.59375 0.578125 0.59375 1.546875q0 0.4375 -0.265625 1.65625l-0.96875 4.703125l-2.25 0l0.984375 -4.71875q0.21875 -1.046875 0.21875 -1.25q0 -0.4375 -0.25 -0.671875q-0.25 -0.25 -0.703125 -0.25q-0.5 0 -1.109375 0.421875q-0.59375 0.40625 -0.9375 1.078125q-0.25 0.484375 -0.5625 1.984375l-0.703125 3.40625l-2.25 0l1.734375 -8.296875zm15.6796875 8.296875l-2.125 0l0.1875 -0.90625q-0.609375 0.59375 -1.203125 0.859375q-0.59375 0.25 -1.328125 0.25q-1.296875 0 -2.09375 -0.875q-0.796875 -0.890625 -0.796875 -2.609375q0 -2.0 1.125 -3.609375q1.125 -1.609375 2.96875 -1.609375q1.671875 0 2.515625 1.328125l0.890625 -4.28125l2.25 0l-2.390625 11.453125zm-5.1875 -3.375q0 0.890625 0.453125 1.390625q0.453125 0.5 1.109375 0.5q0.609375 0 1.125 -0.421875q0.53125 -0.421875 0.84375 -1.28125q0.328125 -0.859375 0.328125 -1.640625q0 -0.90625 -0.484375 -1.453125q-0.484375 -0.5625 -1.125 -0.5625q-0.984375 0 -1.625 1.09375q-0.625 1.09375 -0.625 2.375z" fill-rule="nonzero"/><path fill="#d9ead3" d="m465.68372 143.76378l0 0c0 -11.489258 9.313904 -20.803146 20.803162 -20.803146l0 0c5.517334 0 10.808685 2.1917496 14.7100525 6.093094c3.9013367 3.901352 6.093109 9.1927185 6.093109 14.7100525l0 0c0 11.489258 -9.313904 20.803146 -20.803162 20.803146l0 0c-11.489258 0 -20.803162 -9.313889 -20.803162 -20.803146z" fill-rule="evenodd"/><path stroke="#073763" stroke-width="1.0" stroke-linejoin="round" stroke-linecap="butt" d="m465.68372 143.76378l0 0c0 -11.489258 9.313904 -20.803146 20.803162 -20.803146l0 0c5.517334 0 10.808685 2.1917496 14.7100525 6.093094c3.9013367 3.901352 6.093109 9.1927185 6.093109 14.7100525l0 0c0 11.489258 -9.313904 20.803146 -20.803162 20.803146l0 0c-11.489258 0 -20.803162 -9.313889 -20.803162 -20.803146z" fill-rule="evenodd"/><path fill="#000000" d="m483.59546 148.34628q-0.28125 -0.125 -0.484375 -0.296875q-0.1875 -0.171875 -0.21875 -0.296875q0.015625 -0.09375 0.046875 -0.140625q0.046875 -0.046875 0.234375 -0.03125q0.1875 0 0.59375 0.0625q0.140625 0 0.328125 -0.015625q0.1875 -0.015625 0.34375 -0.046875q0.171875 -0.046875 0.21875 -0.109375q0.0625 -0.015625 0.015625 -0.046875q-0.03125 -0.046875 -0.078125 -0.09375q-0.046875 -0.015625 -0.109375 -0.046875q-0.0625 -0.046875 -0.109375 -0.046875q-0.015625 -0.0625 -0.125 -0.125q-0.09375 -0.078125 -0.1875 -0.140625q-0.265625 -0.21875 -0.46875 -0.375q-0.203125 -0.171875 -0.15625 -0.25q0 -0.046875 0 -0.046875q0 0 0 0q-0.09375 0 -0.1875 -0.234375q-0.078125 -0.25 -0.078125 -0.4375q0 -0.171875 0.078125 -0.390625q0.09375 -0.234375 0.234375 -0.46875q0.15625 -0.234375 0.3125 -0.390625q0.234375 -0.21875 0.53125 -0.4375q0.296875 -0.234375 0.609375 -0.40625q0.3125 -0.1875 0.59375 -0.25q0.1875 -0.078125 0.390625 -0.078125q0.203125 0 0.328125 0.078125q0.109375 0.015625 0.21875 0.125q0.125 0.109375 0.21875 0.234375q0.109375 0.125 0.140625 0.234375q0 0.140625 -0.015625 0.328125q-0.015625 0.1875 -0.0625 0.328125q-0.03125 0.140625 -0.109375 0.140625q0 0 -0.03125 0.015625q-0.03125 0 -0.03125 0.046875q0 0.125 -0.1875 0.28125q-0.21875 0.15625 -0.40625 0.21875q-0.171875 0.046875 -0.234375 -0.078125q-0.046875 -0.0625 -0.078125 -0.09375q-0.015625 -0.046875 -0.0625 -0.0625q0 0 -0.046875 -0.046875q-0.03125 -0.046875 -0.03125 -0.109375q0 -0.046875 0.03125 -0.09375q0.046875 -0.046875 0.046875 -0.046875q0.09375 -0.046875 0.1875 -0.1875q0.09375 -0.140625 0.15625 -0.265625q0.0625 -0.140625 0.0625 -0.203125q0 -0.078125 -0.03125 -0.09375q-0.015625 -0.015625 -0.109375 -0.015625q-0.125 0.046875 -0.359375 0.171875q-0.21875 0.109375 -0.4375 0.234375q-0.203125 0.109375 -0.3125 0.21875q-0.046875 0.078125 -0.0625 0.109375q-0.015625 0.015625 -0.0625 0.015625q0 -0.046875 -0.078125 0.03125q-0.0625 0.078125 -0.171875 0.21875q-0.109375 0.140625 -0.203125 0.28125q-0.09375 0.140625 -0.140625 0.203125q-0.015625 0.046875 -0.0625 0.15625q-0.03125 0.109375 -0.03125 0.203125q-0.015625 0.140625 0.0625 0.21875q0.078125 0.0625 0.28125 0.234375q0.421875 0.3125 0.640625 0.515625q0.234375 0.1875 0.34375 0.3125q0.109375 0.125 0.125 0.234375q0.21875 0.359375 0.109375 0.578125q-0.109375 0.21875 -0.421875 0.359375q-0.125 0.0625 -0.421875 0.09375q-0.28125 0.046875 -0.578125 0.046875q-0.296875 0.015625 -0.5 -0.03125zm7.1905518 -0.171875q-0.140625 0 -0.28125 -0.125q-0.140625 -0.125 -0.234375 -0.328125q-0.09375 -0.203125 -0.09375 -0.421875q0 -0.171875 0.078125 -0.609375q0.09375 -0.453125 0.21875 -0.953125q0.078125 -0.265625 0.0625 -0.3125q-0.015625 -0.046875 -0.21875 0.0625q-0.109375 0.046875 -0.203125 0.109375q-0.09375 0.046875 -0.171875 0.125q-0.0625 0.015625 -0.203125 0.140625q-0.125 0.109375 -0.28125 0.21875q-0.125 0.109375 -0.296875 0.265625q-0.171875 0.15625 -0.34375 0.3125q-0.171875 0.15625 -0.265625 0.234375q-0.0625 0.0625 -0.171875 0.15625q-0.109375 0.078125 -0.234375 0.171875q-0.125 0.078125 -0.234375 0.109375q-0.125 0 -0.21875 -0.0625q-0.09375 -0.0625 -0.109375 -0.171875q-0.015625 -0.078125 0 -0.296875q0.015625 -0.21875 0.078125 -0.53125q0.0625 -0.328125 0.203125 -0.703125q0.015625 -0.0625 0.0625 -0.234375q0.046875 -0.171875 0.109375 -0.390625q0.078125 -0.21875 0.15625 -0.4375q0 -0.078125 0.015625 -0.171875q0.03125 -0.109375 0.046875 -0.203125q0.03125 -0.109375 0.09375 -0.15625q0.046875 -0.078125 0.140625 -0.0625q0.09375 0.015625 0.15625 0.109375q0.171875 0.109375 0.203125 0.296875q0.046875 0.171875 0 0.46875q0.015625 0.109375 0 0.25q0 0.140625 -0.046875 0.265625q-0.03125 0.109375 -0.0625 0.1875q-0.03125 0.0625 -0.03125 0.0625q0.046875 -0.015625 0.1875 -0.109375q0.140625 -0.109375 0.375 -0.234375q0.21875 -0.171875 0.359375 -0.28125q0.15625 -0.125 0.25 -0.171875q0.09375 -0.0625 0.125 -0.078125q0.0625 -0.03125 0.109375 -0.046875q0.0625 -0.03125 0.09375 -0.0625q0.046875 -0.03125 0.0625 -0.03125q0.015625 0 0.015625 0q0.015625 0 0.0625 -0.015625q0.0625 -0.03125 0.125 -0.0625q0.109375 -0.046875 0.25 0q0.15625 0.03125 0.28125 0.125q0.125 0.09375 0.125 0.203125q0 0.046875 0.015625 0.078125q0.03125 0.015625 0.046875 0.03125q0.078125 0.015625 0.125 0.265625q0.046875 0.25 -0.03125 0.515625q0 0.1875 -0.078125 0.484375q-0.0625 0.28125 -0.125 0.546875q-0.09375 0.328125 -0.125 0.5625q-0.015625 0.21875 0.015625 0.375q0.03125 0.140625 0.0625 0.21875q0.046875 0.078125 -0.03125 0.203125q-0.0625 0.109375 -0.21875 0.109375z" fill-rule="nonzero"/><path fill="#000000" fill-opacity="0.0" d="m514.38666 74.50618l169.92126 0l0 35.55905l-169.92126 0z" fill-rule="evenodd"/><path fill="#434343" d="m524.63666 96.306175l0 -9.546875l1.25 0l0 9.546875l-1.25 0zm3.327942 0l0 -6.90625l1.0625 0l0 0.984375q0.75 -1.140625 2.1875 -1.140625q0.625 0 1.15625 0.21875q0.53125 0.21875 0.78125 0.59375q0.265625 0.359375 0.375 0.859375q0.0625 0.328125 0.0625 1.140625l0 4.25l-1.171875 0l0 -4.203125q0 -0.71875 -0.140625 -1.0625q-0.140625 -0.359375 -0.484375 -0.5625q-0.34375 -0.21875 -0.8125 -0.21875q-0.75 0 -1.296875 0.46875q-0.546875 0.46875 -0.546875 1.796875l0 3.78125l-1.171875 0zm7.4281006 -8.1875l0 -1.359375l1.171875 0l0 1.359375l-1.171875 0zm0 8.1875l0 -6.90625l1.171875 0l0 6.90625l-1.171875 0zm5.5079956 -1.046875l0.171875 1.03125q-0.5 0.109375 -0.890625 0.109375q-0.640625 0 -1.0 -0.203125q-0.34375 -0.203125 -0.484375 -0.53125q-0.140625 -0.328125 -0.140625 -1.390625l0 -3.96875l-0.859375 0l0 -0.90625l0.859375 0l0 -1.71875l1.171875 -0.703125l0 2.421875l1.171875 0l0 0.90625l-1.171875 0l0 4.046875q0 0.5 0.046875 0.640625q0.0625 0.140625 0.203125 0.234375q0.140625 0.078125 0.40625 0.078125q0.203125 0 0.515625 -0.046875zm1.1561279 -7.140625l0 -1.359375l1.171875 0l0 1.359375l-1.171875 0zm0 8.1875l0 -6.90625l1.171875 0l0 6.90625l-1.171875 0zm7.4610596 -0.859375q-0.65625 0.5625 -1.265625 0.796875q-0.59375 0.21875 -1.28125 0.21875q-1.140625 0 -1.75 -0.546875q-0.609375 -0.5625 -0.609375 -1.4375q0 -0.5 0.21875 -0.921875q0.234375 -0.421875 0.609375 -0.671875q0.375 -0.25 0.84375 -0.390625q0.34375 -0.078125 1.046875 -0.171875q1.421875 -0.171875 2.09375 -0.40625q0 -0.234375 0 -0.296875q0 -0.71875 -0.328125 -1.015625q-0.453125 -0.390625 -1.34375 -0.390625q-0.8125 0 -1.21875 0.296875q-0.390625 0.28125 -0.578125 1.015625l-1.140625 -0.15625q0.15625 -0.734375 0.515625 -1.1875q0.359375 -0.453125 1.03125 -0.6875q0.671875 -0.25 1.5625 -0.25q0.890625 0 1.4375 0.203125q0.5625 0.203125 0.8125 0.53125q0.265625 0.3125 0.375 0.796875q0.046875 0.296875 0.046875 1.078125l0 1.5625q0 1.625 0.078125 2.0625q0.078125 0.4375 0.296875 0.828125l-1.21875 0q-0.1875 -0.359375 -0.234375 -0.859375zm-0.09375 -2.609375q-0.640625 0.265625 -1.921875 0.4375q-0.71875 0.109375 -1.015625 0.25q-0.296875 0.125 -0.46875 0.375q-0.15625 0.25 -0.15625 0.546875q0 0.46875 0.34375 0.78125q0.359375 0.3125 1.046875 0.3125q0.671875 0 1.203125 -0.296875q0.53125 -0.296875 0.78125 -0.8125q0.1875 -0.390625 0.1875 -1.171875l0 -0.421875zm2.9749756 3.46875l0 -9.546875l1.171875 0l0 9.546875l-1.171875 0zm6.3984375 -3.0625l1.203125 -0.109375q0.078125 0.71875 0.390625 1.1875q0.3125 0.453125 0.953125 0.734375q0.65625 0.28125 1.46875 0.28125q0.71875 0 1.265625 -0.21875q0.5625 -0.21875 0.828125 -0.578125q0.265625 -0.375 0.265625 -0.828125q0 -0.453125 -0.265625 -0.78125q-0.25 -0.328125 -0.84375 -0.5625q-0.390625 -0.15625 -1.703125 -0.46875q-1.3125 -0.3125 -1.84375 -0.59375q-0.671875 -0.359375 -1.015625 -0.890625q-0.328125 -0.53125 -0.328125 -1.1875q0 -0.71875 0.40625 -1.34375q0.40625 -0.625 1.1875 -0.953125q0.796875 -0.328125 1.765625 -0.328125q1.046875 0 1.859375 0.34375q0.8125 0.34375 1.25 1.015625q0.4375 0.65625 0.46875 1.484375l-1.203125 0.09375q-0.109375 -0.90625 -0.671875 -1.359375q-0.5625 -0.46875 -1.65625 -0.46875q-1.140625 0 -1.671875 0.421875q-0.515625 0.421875 -0.515625 1.015625q0 0.515625 0.359375 0.84375q0.375 0.328125 1.90625 0.6875q1.546875 0.34375 2.109375 0.59375q0.84375 0.390625 1.234375 0.984375q0.390625 0.578125 0.390625 1.359375q0 0.75 -0.4375 1.4375q-0.421875 0.671875 -1.25 1.046875q-0.8125 0.359375 -1.828125 0.359375q-1.296875 0 -2.171875 -0.375q-0.875 -0.375 -1.375 -1.125q-0.5 -0.765625 -0.53125 -1.71875zm11.7335205 2.015625l0.171875 1.03125q-0.5 0.109375 -0.890625 0.109375q-0.640625 0 -1.0 -0.203125q-0.34375 -0.203125 -0.484375 -0.53125q-0.140625 -0.328125 -0.140625 -1.390625l0 -3.96875l-0.859375 0l0 -0.90625l0.859375 0l0 -1.71875l1.171875 -0.703125l0 2.421875l1.171875 0l0 0.90625l-1.171875 0l0 4.046875q0 0.5 0.046875 0.640625q0.0625 0.140625 0.203125 0.234375q0.140625 0.078125 0.40625 0.078125q0.203125 0 0.515625 -0.046875zm5.656128 0.1875q-0.65625 0.5625 -1.265625 0.796875q-0.59375 0.21875 -1.28125 0.21875q-1.140625 0 -1.75 -0.546875q-0.609375 -0.5625 -0.609375 -1.4375q0 -0.5 0.21875 -0.921875q0.234375 -0.421875 0.609375 -0.671875q0.375 -0.25 0.84375 -0.390625q0.34375 -0.078125 1.046875 -0.171875q1.421875 -0.171875 2.09375 -0.40625q0 -0.234375 0 -0.296875q0 -0.71875 -0.328125 -1.015625q-0.453125 -0.390625 -1.34375 -0.390625q-0.8125 0 -1.21875 0.296875q-0.390625 0.28125 -0.578125 1.015625l-1.140625 -0.15625q0.15625 -0.734375 0.515625 -1.1875q0.359375 -0.453125 1.03125 -0.6875q0.671875 -0.25 1.5625 -0.25q0.890625 0 1.4375 0.203125q0.5625 0.203125 0.8125 0.53125q0.265625 0.3125 0.375 0.796875q0.046875 0.296875 0.046875 1.078125l0 1.5625q0 1.625 0.078125 2.0625q0.078125 0.4375 0.296875 0.828125l-1.21875 0q-0.1875 -0.359375 -0.234375 -0.859375zm-0.09375 -2.609375q-0.640625 0.265625 -1.921875 0.4375q-0.71875 0.109375 -1.015625 0.25q-0.296875 0.125 -0.46875 0.375q-0.15625 0.25 -0.15625 0.546875q0 0.46875 0.34375 0.78125q0.359375 0.3125 1.046875 0.3125q0.671875 0 1.203125 -0.296875q0.53125 -0.296875 0.78125 -0.8125q0.1875 -0.390625 0.1875 -1.171875l0 -0.421875zm5.5531006 2.421875l0.171875 1.03125q-0.5 0.109375 -0.890625 0.109375q-0.640625 0 -1.0 -0.203125q-0.34375 -0.203125 -0.484375 -0.53125q-0.140625 -0.328125 -0.140625 -1.390625l0 -3.96875l-0.859375 0l0 -0.90625l0.859375 0l0 -1.71875l1.171875 -0.703125l0 2.421875l1.171875 0l0 0.90625l-1.171875 0l0 4.046875q0 0.5 0.046875 0.640625q0.0625 0.140625 0.203125 0.234375q0.140625 0.078125 0.40625 0.078125q0.203125 0 0.515625 -0.046875zm5.874878 -1.171875l1.203125 0.140625q-0.28125 1.0625 -1.0625 1.65625q-0.765625 0.578125 -1.96875 0.578125q-1.515625 0 -2.40625 -0.9375q-0.890625 -0.9375 -0.890625 -2.609375q0 -1.75 0.890625 -2.703125q0.90625 -0.96875 2.34375 -0.96875q1.390625 0 2.265625 0.9375q0.875 0.9375 0.875 2.65625q0 0.109375 0 0.3125l-5.15625 0q0.0625 1.140625 0.640625 1.75q0.578125 0.59375 1.4375 0.59375q0.65625 0 1.109375 -0.328125q0.453125 -0.34375 0.71875 -1.078125zm-3.84375 -1.90625l3.859375 0q-0.078125 -0.859375 -0.4375 -1.296875q-0.5625 -0.6875 -1.453125 -0.6875q-0.8125 0 -1.359375 0.546875q-0.546875 0.53125 -0.609375 1.4375z" fill-rule="nonzero"/><path fill="#e6b8af" d="m465.68372 88.07087l0 0c0 -11.489265 9.313904 -20.803154 20.803162 -20.803154l0 0c5.517334 0 10.808685 2.1917572 14.7100525 6.0931015c3.9013367 3.901352 6.093109 9.192711 6.093109 14.7100525l0 0c0 11.489258 -9.313904 20.803146 -20.803162 20.803146l0 0c-11.489258 0 -20.803162 -9.313889 -20.803162 -20.803146z" fill-rule="evenodd"/><path stroke="#980000" stroke-width="1.0" stroke-linejoin="round" stroke-linecap="butt" d="m465.68372 88.07087l0 0c0 -11.489265 9.313904 -20.803154 20.803162 -20.803154l0 0c5.517334 0 10.808685 2.1917572 14.7100525 6.0931015c3.9013367 3.901352 6.093109 9.192711 6.093109 14.7100525l0 0c0 11.489258 -9.313904 20.803146 -20.803162 20.803146l0 0c-11.489258 0 -20.803162 -9.313889 -20.803162 -20.803146z" fill-rule="evenodd"/><path fill="#000000" d="m483.61346 92.653366q-0.28125 -0.125 -0.484375 -0.296875q-0.1875 -0.171875 -0.21875 -0.296875q0.015625 -0.09375 0.046875 -0.140625q0.046875 -0.046875 0.234375 -0.03125q0.1875 0 0.59375 0.0625q0.140625 0 0.328125 -0.015625q0.1875 -0.015625 0.34375 -0.046875q0.171875 -0.046875 0.21875 -0.109375q0.0625 -0.015625 0.015625 -0.046875q-0.03125 -0.046875 -0.078125 -0.09375q-0.046875 -0.015625 -0.109375 -0.046875q-0.0625 -0.046875 -0.109375 -0.046875q-0.015625 -0.0625 -0.125 -0.125q-0.09375 -0.078125 -0.1875 -0.140625q-0.265625 -0.21875 -0.46875 -0.375q-0.203125 -0.171875 -0.15625 -0.25q0 -0.046875 0 -0.046875q0 0 0 0q-0.09375 0 -0.1875 -0.234375q-0.078125 -0.25 -0.078125 -0.4375q0 -0.171875 0.078125 -0.390625q0.09375 -0.234375 0.234375 -0.46875q0.15625 -0.234375 0.3125 -0.390625q0.234375 -0.21875 0.53125 -0.4375q0.296875 -0.234375 0.609375 -0.40625q0.3125 -0.1875 0.59375 -0.25q0.1875 -0.078125 0.390625 -0.078125q0.203125 0 0.328125 0.078125q0.109375 0.015625 0.21875 0.125q0.125 0.109375 0.21875 0.234375q0.109375 0.125 0.140625 0.234375q0 0.140625 -0.015625 0.328125q-0.015625 0.1875 -0.0625 0.328125q-0.03125 0.140625 -0.109375 0.140625q0 0 -0.03125 0.015625q-0.03125 0 -0.03125 0.046875q0 0.125 -0.1875 0.28125q-0.21875 0.15625 -0.40625 0.21875q-0.171875 0.046875 -0.234375 -0.078125q-0.046875 -0.0625 -0.078125 -0.09375q-0.015625 -0.046875 -0.0625 -0.0625q0 0 -0.046875 -0.046875q-0.03125 -0.046875 -0.03125 -0.109375q0 -0.046875 0.03125 -0.09375q0.046875 -0.046875 0.046875 -0.046875q0.09375 -0.046875 0.1875 -0.1875q0.09375 -0.140625 0.15625 -0.265625q0.0625 -0.140625 0.0625 -0.203125q0 -0.078125 -0.03125 -0.09375q-0.015625 -0.015625 -0.109375 -0.015625q-0.125 0.046875 -0.359375 0.171875q-0.21875 0.109375 -0.4375 0.234375q-0.203125 0.109375 -0.3125 0.21875q-0.046875 0.078125 -0.0625 0.109375q-0.015625 0.015625 -0.0625 0.015625q0 -0.046875 -0.078125 0.03125q-0.0625 0.078125 -0.171875 0.21875q-0.109375 0.140625 -0.203125 0.28125q-0.09375 0.140625 -0.140625 0.203125q-0.015625 0.046875 -0.0625 0.15625q-0.03125 0.109375 -0.03125 0.203125q-0.015625 0.140625 0.0625 0.21875q0.078125 0.0625 0.28125 0.234375q0.421875 0.3125 0.640625 0.515625q0.234375 0.1875 0.34375 0.3125q0.109375 0.125 0.125 0.234375q0.21875 0.359375 0.109375 0.578125q-0.109375 0.21875 -0.421875 0.359375q-0.125 0.0625 -0.421875 0.09375q-0.28125 0.046875 -0.578125 0.046875q-0.296875 0.015625 -0.5 -0.03125zm5.6436462 -0.25q-0.078125 0 -0.265625 -0.0625q-0.1875 -0.078125 -0.40625 -0.1875q-0.203125 -0.109375 -0.328125 -0.203125q-0.3125 -0.28125 -0.5 -0.65625q-0.171875 -0.390625 -0.234375 -0.8125q-0.046875 -0.4375 0.015625 -0.8125q0.125 -0.78125 0.5625 -1.53125q0.4375 -0.75 1.015625 -1.25q0.3125 -0.265625 0.578125 -0.421875q0.28125 -0.171875 0.640625 -0.265625q0.140625 -0.03125 0.3125 -0.03125q0.1875 -0.015625 0.28125 -0.015625q0.234375 0 0.484375 0.109375q0.265625 0.09375 0.4375 0.234375q0.1875 0.125 0.1875 0.25q0 0.078125 -0.015625 0.140625q0 0.046875 -0.09375 0l-0.125 0l0.125 0.359375q0.046875 0.09375 0.078125 0.265625q0.03125 0.15625 0.03125 0.296875q0 0.09375 -0.03125 0.328125q-0.03125 0.234375 -0.09375 0.5q-0.046875 0.265625 -0.109375 0.5q-0.0625 0.21875 -0.109375 0.328125q-0.03125 0.078125 -0.046875 0.140625q0 0.0625 0 0.109375q-0.046875 0.09375 -0.15625 0.34375q-0.09375 0.234375 -0.140625 0.328125q-0.046875 0.046875 -0.078125 0.078125q-0.03125 0.03125 0.015625 0.078125q0 0.046875 -0.0625 0.171875q-0.0625 0.125 -0.125 0.234375q-0.0625 0.109375 -0.109375 0.109375q0 0 -0.03125 0q-0.015625 0 -0.015625 0.046875q0 0.046875 -0.15625 0.25q-0.15625 0.1875 -0.375 0.40625q-0.125 0.125 -0.359375 0.28125q-0.21875 0.15625 -0.4375 0.265625q-0.21875 0.09375 -0.359375 0.09375zm-0.015625 -0.875q0.125 0 0.234375 -0.046875q0.125 -0.046875 0.21875 -0.125q0.21875 -0.140625 0.46875 -0.4375q0.265625 -0.3125 0.390625 -0.625q0.140625 -0.171875 0.203125 -0.375q0.078125 -0.203125 0.25 -0.671875q0.09375 -0.140625 0.125 -0.328125q0.046875 -0.1875 0.046875 -0.328125q0 -0.125 0 -0.34375q0.015625 -0.234375 0.0625 -0.390625q0 -0.3125 -0.015625 -0.390625q-0.015625 -0.09375 -0.09375 -0.1875q-0.046875 -0.046875 -0.125 -0.078125q-0.078125 -0.03125 -0.171875 -0.03125q-0.078125 0 -0.28125 0.078125q-0.1875 0.0625 -0.28125 0.125q-0.09375 0.046875 -0.203125 0.015625q-0.09375 -0.046875 -0.09375 -0.09375q0 -0.171875 -0.203125 -0.015625q-0.1875 0.15625 -0.453125 0.46875q-0.21875 0.21875 -0.375 0.453125q-0.140625 0.21875 -0.140625 0.265625q0 0.046875 -0.046875 0.125q-0.03125 0.0625 -0.0625 0.15625q-0.0625 0.09375 -0.15625 0.28125q-0.078125 0.1875 -0.15625 0.375q-0.078125 0.1875 -0.09375 0.28125q0 0.046875 0 0.265625q0 0.203125 0 0.390625q0 0.203125 0 0.328125q0.015625 0.125 0.046875 0.21875q0.046875 0.078125 0.109375 0.203125q0.046875 0.078125 0.140625 0.203125q0.109375 0.109375 0.140625 0.15625q0.140625 0.125 0.203125 0.125q0.078125 0 0.3125 -0.046875z" fill-rule="nonzero"/></g></svg>